<svg width="20" height="20" viewBox="0 0 20 20" xmlns="http://www.w3.org/2000/svg"><title>Group</title><g stroke="#000" stroke-linejoin="round" fill="none" fill-rule="evenodd"><path d="M19.336 10.26c0 4.98-4.038 9.02-9.02 9.02-4.982 0-9.02-4.04-9.02-9.02 0-4.98 4.038-9.02 9.02-9.02 4.982 0 9.02 4.04 9.02 9.02z"/><path d="M6.016 2.328c4.52 3.438 7.437 8.874 7.437 14.99 0 .48-.018.95-.052 1.42"/><path d="M17.05 4.258C13.67 7.49 9.088 9.475 4.042 9.475c-.914 0-1.812-.066-2.692-.19M3.303 15.93c3.384-3.254 7.982-5.254 13.047-5.254.93 0 2.07.085 2.964.216"/></g></svg>