<svg width="21" height="20" viewBox="0 0 21 20" xmlns="http://www.w3.org/2000/svg"><title>Group</title><g stroke-linecap="round" stroke="#000" stroke-linejoin="round" fill="none" fill-rule="evenodd"><path d="M17.19 13.952c0-5.372-3.714-3.178-6.75-3.178-3.038 0-6.75-2.138-6.75 3.178 0 1.74 1.41 3.15 3.15 3.15h7.2c1.74 0 3.15-1.41 3.15-3.15z"/><path d="M19.016 7.845l.03.02s2.38-4.114-.544-6.513c-1.8 0-4.553 2.973-4.553 2.973l.02.014c-2.242-.66-4.758-.665-7.004-.016-.014-.015-2.756-2.972-4.55-2.972-2.858 2.342-.658 6.31-.555 6.496C.947 9.22.447 10.938.607 13.016c.217 2.813 2.563 5.886 5.384 5.886h8.9c2.82 0 5.167-3.073 5.383-5.886.16-2.08-.34-3.8-1.257-5.17z"/><path d="M14.508 13.952c0 .746-.402 1.35-.9 1.35-.497 0-.9-.604-.9-1.35 0-.746.403-1.35.9-1.35.498 0 .9.604.9 1.35zM8.208 13.952c0 .746-.402 1.35-.9 1.35-.497 0-.9-.604-.9-1.35 0-.746.403-1.35.9-1.35.498 0 .9.604.9 1.35z"/></g></svg>