<svg width="26" height="21" viewBox="0 0 26 21" xmlns="http://www.w3.org/2000/svg"><title>Fill 264</title><path d="M25.65 3.096c-.93.415-1.714.43-2.546.018 1.073-.642 1.122-1.092 1.51-2.307-1.004.595-2.116 1.028-3.3 1.263C20.37 1.06 19.02.43 17.527.43c-2.87 0-5.193 2.325-5.193 5.192 0 .408.045.804.133 1.184C8.15 6.59 4.323 4.52 1.762 1.378c-.447.768-.704 1.66-.704 2.613 0 1.803.918 3.392 2.31 4.323-.85-.027-1.65-.26-2.35-.65-.002.023-.002.043-.002.066 0 2.516 1.79 4.614 4.167 5.092-.76.207-1.564.24-2.346.09.66 2.062 2.58 3.563 4.85 3.606-2.22 1.74-4.976 2.467-7.687 2.15C2.298 20.14 5.027 21 7.96 21c9.553 0 14.775-7.913 14.775-14.776 0-.226-.004-.448-.014-.672 1.015-.73 2.234-1.414 2.93-2.456" fill="#000" fill-rule="evenodd"/></svg>