<svg width="31" height="30" viewBox="0 0 31 30" xmlns="http://www.w3.org/2000/svg"><title>Imported Layers</title><g fill="#8CC63F" fill-rule="evenodd"><path d="M21.784 30H.03V.143H21.32c5.536 0 9.016 3.145 9.016 8.177 0 3.23-2.013 5.535-4.025 6.332 2.306.923 4.487 3.145 4.487 6.92 0 5.493-3.733 8.428-9.016 8.428zm-.84-25.79H4.56v8.555h16.387c2.893 0 4.864-1.51 4.864-4.277 0-2.768-1.972-4.278-4.865-4.278zm.42 12.622H4.558v9.1h16.806c3.145 0 4.906-1.93 4.906-4.57 0-2.642-1.76-4.53-4.906-4.53z"/><path d="M4.516 4.194H19.06l.004-4.05H.03V30H19.04l.003-4.032H4.515v-9.194h12.42v-4.032H4.515V4.194"/><path d="M4.516.143H.03V30H19.04l.003-4.032H4.515v-9.194"/></g></svg>