<svg width="161" height="40" viewBox="0 0 161 40" xmlns="http://www.w3.org/2000/svg"><title>Group</title><g fill="none" fill-rule="evenodd"><path id="Shape" fill="#FFF" d="M82.453 23.354c.025.07.05.14.068.21l-.067-.21c.025.07 0 .03 0 0zM51.28 29.376c1.937-.553 3.378-1.67 4.28-3.48-1.3 1.308-2.825 2.357-4.28 3.48.914-.26.63-.487 0 0 1.936-.553.732-.566 0 0z"/><path d="M137.64 5.46l-.6.34c.517.084.926-.085 1.228-.51-.21.283-.58.204-.63.17-.21.082.166.12 0 0z" id="Shape"/><path id="Shape" fill="#FFF" d="M143.67 23.354c.03.07.054.14.07.21-.026-.07-.047-.14-.07-.21.03.07 0 .03 0 0z"/><path d="M124.705 5.46l-.595.34c.517.085.928-.084 1.23-.51-.213.284-.584.204-.635.17-.21.088.176.12 0 0z" id="Shape"/><path d="M21.053 25.592c-.14.052-.197-.742-.685-.435-.48.304.253 1.348.387 1.64.82-.607.46-.72.298-1.205-.07.026.088.264 0 0zM20.347 24.538c0-.114-1.03-2.2-.235.5.382-.162.235-.5.235-.5 0-.325.045.258 0 0z" id="Shape" fill="#FFF"/><path d="M59.252 21.66c.02-.678 2.325-11.767.48-11.073 0-.768-.017-.675-.725-.795.84-.6-1.128-1.205-1.317-.002-.217 1.384-.4 2.618-.28 4.038.132 1.61.017 3.205-.006 4.822-.024 1.66.69 4.58-.414 5.97-1.286 1.62-5.69 5.635-7.797 5.217-3.24-.643-4.566-3.29-5.13-6.33-.657-3.535-.364-6.912-.336-10.463.012-1.643 1.48-3.523-.746-2.665-.167-.25-.39-.286-.667-.11-.57.256-.107 1.255-.07 1.68.15 1.72-.47 3.634-.527 5.38-.136 4.07 1.205 7.162 2.795 10.775-3.843-2.51-3.922-7.506-3.568-11.6.103-1.198 1.023-5.134.18-6.022-.762-.8-.918 4.736-.98 5.378-.467 4.84-.226 10.827 4.695 13.38 2.388 1.238 3.943 2.317 6.844 1.407 2.128-.666 4.587-1.374 6.014-3.218 0 .253.41 4.326.976 3.053.658-1.187.302-4.01.463-5.346 0 1.71.042 3.417.35 5.106.187 1.03 1.29 1.614.936.202-.383-1.527-.292-3.044-.364-4.6-.068-1.433-.843-2.796-.804-4.185.012-.404-.01.395 0 0 .015-.51-.014.502 0 0zm-4.445 6.527c-.743.555-1.606.935-2.494 1.19 1.45-1.13 2.977-2.176 4.28-3.482-.475.95-1.103 1.82-1.98 2.436.115-.08.66-.494.194-.143-.743.555.68-.512 0 0z" id="Shape" fill="#000"/><path d="M40.343 20.153c-.038-2.342-1.595-4.028-1.65-6.354-.08-3.383-.18-6.767-.206-10.15-.002-.333.37-2.788-.596-2.45-.676.24-.246 3.08-.24 3.627.04 3.307.15 6.614.233 9.92-.527-1.588.105-3.314-.293-4.9-.356-1.418-.524.977-.465-1.696.036-1.604-.046-3.21-.257-4.803.716-.233-.933-.75-.896-.73-.22 1.05-.125 1.814-.178 2.875-.127 2.56-.183 5.122-.24 7.684-.474-.29-.97-.537-1.484-.743-2.202-.583.093-.368-.93-.865.28.024 1.544-.24.733-.71-.83-.48-2.53-.267-3.475-.37-3.32-.36-5.606.81-7.874 3.21-2.145 2.267-2.946 4.135-2.94 7.305.003 1.49.215 3.122.6 4.325.265-.364.855-.216.792.278.01-.336-.048-.662-.173-.975 1.52 2.696 5.524 4.458 8.476 4.787-2.966.657-6.536-.073-7.925-3.065-1.13.876.41 2.26 1.227 3.025 1.087.995 2.502.955 3.875.87 3.07-.19 6.358-.527 9.012-2.228 0 3.08.84 1.494.84-.592 0 .872.247 1.8.165 2.664-.013.134-1.268 1.603-.164 1.36 1.99-.513.267-4.122 1.536-5.467.044 1.362-.03 2.736.16 4.09-.076.297.025.49.303.577 1.176.065.812-1.108.84-2.108.04-1.35-.523-3.406.153-4.636.666-1.21 1.1-2.588 1.038-3.98.002.045.012.616.003.225-.02-1.284.013.56 0 0zm-18.02-2.863c.272-2.7 2.482-4.4 5.096-4.578-2.497.804-3.538 2.706-5.097 4.578.033-.327 0 0 0 0zm-.632 5.96c-.44-.866-.66-1.82-.646-2.79.015-.64.11-1.27.29-1.884-.068-.79.207-1.105.823-.945-1.14 2.33-.62 5.146.676 7.293-.497-.562-.894-1.175-1.23-1.844.03.055.317.623.088.17-.934-1.837.307.606 0 0zm13.8-2.843c.014 1.916.006 3.832-.023 5.748-.54 1.08-3.692 1.442-4.73 1.65-3.224.647-6.613-1.236-7.785-4.266-1.136-2.936.01-6.36 2.305-8.4 2.787-2.478 6.176-2.343 9.493-1.24 1.338 0 .728 6.026.746 7.056-.007-.366-.01-.732-.007-1.097v.547c.014 1.915-.01-1.908 0 0zm1.72 3.497c.22-.19-.4-5.994-.428-7.157.828 1.987 1.23 5.1.428 7.157.026-.022.243-.62 0 0-.065.057.222-.568 0 0zM79.922 25.654c-.332 1.596-2.258 2.196-3.554 2.752 1.042-.887 2.273-2.005 3.06-3.14.865-1.25-.96-.69-1.372-.43-.516-1.03-2.993 1.02-4.12 1.428-1.857.675-4.045 1.077-6.025.866-1.8-.19-2.887-.998-3.79-2.53-.435-.738-.525-1.398-.468-2.246.006-.088-.082-.93.107-.27.12-1.81.513-3.62 1.275-5.27.38-.82.85-1.6 1.423-2.3.118-.144 2.213-1.904.782-1.003 2.14-2.062 3.636-1.498 6.092-.774 1.015.298 2.187-.524.766-.79-1.053-.198-1.865-.95-2.948-1.08-1.09-.127-2.11.4-3.194.4 2.01-1.2 5.674-.92 7.694.358.334.21 1.12.586 1.366-.178.072-.222-1.408-1.435-1.632-1.59-4.314-2.993-13.814 1.65-15.055 6.4-1.374 5.262.4 11.028 5.16 13.628 2.485 1.358 5.717 1.59 8.35.585 2-.768 7.278-2.14 6.082-4.816-.123.586.125.285 0 0-.32 1.533.155.347 0 0zM61.57 19.436c-.163.753-.23 1.513-.202 2.282-1.424-2.832 0-6.74 2.628-8.45-1.377 1.687-1.963 4.354-2.484 6.42.037-.145.19-.852.057-.252-.174.768.193-.877 0 0zm1.356 2.198c-.942-3.224 1.148-7.832 4.18-9.298-2.685 2.213-4.077 6.812-4.222 8.928.088-.238.1-.114.042.37-.282-.964.057-.833 0 0zm2.18 6.298c-.337-.42-.618-.873-.842-1.364.82.748 1.893 2.167 2.95 2.48-.84-.042-1.58-.475-2.107-1.116-.26-.323.256.31 0 0-.337-.416.326.396 0 0zm7.715-.182c-1.803 1.24-3.862 1.43-5.62.157 2.147.453 4.336-.01 6.4-.62-1.56.9-.646.377-.78.463-.818.563.255-.164 0 0z" id="Shape" fill="#000"/><path d="M61.07 20.722c0-1.33-.09-2.686.265-3.984-1.19 2.33-.8 5.14-.015 7.482-.08-1.166-.13-2.335-.25-3.498.017.15.032.302.048.454-.016-.152-.03-.303-.047-.454 0-1.332.11 1.076 0 0zM82.473 23.312c.044-.095.024-.14-.062-.132.02.045.042.088.063.132.044-.094-.04-.057 0 0zM79.708 25.186c-.056-.036-.01.003 0 0 0 0-.012.003 0 0zM80.505 25.605c-.982-.244-.214.968-.012 1.228.148-.256.588-1.1.012-1.228-.983-.244.222.05 0 0z" id="Shape" fill="#FFF"/><path d="M120.44 15.98c-3.213-7.09-12.324-8.067-17.678-2.887l.17-9.834c.012-.762 1.256-2.082-.102-2.896-.894-.536-1.095 5.986-1.097 6.535-.017 2.29.62 6.295-.63 8.307.014-1.23.712-13.282-.5-12.962-.502.133-.32 9.812-.337 11.27-.062 4.343-.065 8.573-.136 12.92-.013.74-.662 4.188.486 4.444 1.108.244.97-4.907 1-5.404.256.635-.197 4.478.448 4.555 1.39.17.695-2.434.695-3.328 3.573 3.578 9.755 4.004 14.15 1.744 4.706-2.422 5.1-8.354 3.424-12.7.052.134.355.77.105.233-.694-1.53.364.786 0 0zm-17.06 8.988c-1.268-2.423-.744-10.057 2.773-10.39-3.9 3.61-4.388 9.85.087 13.273-1.38-.718-2.325-1.86-3.036-3.216.115.223.23.446.35.667l-.175-.332c-.938-1.792.664 1.27 0 0zm16.13-1.87c-3.566 8.44-18.48 5.74-15.282-4.098.687-2.11 2.195-3.99 4.075-5.16 2.092-1.3 4.82-.308 6.84.788 2.818 1.53 6.334 5.265 4.25 8.738.08-.13.374-.916.117-.27-1.624 3.842.37-.934 0 0zm.556-5.55c-.708-1.894-2.65-3.42-4.29-4.475-2.128-1.366-1.984-1.74-4.588-1.465-4.28.45-7.012 2.322-8.547 6.398 0-2.3-.322-3.942 1.66-5.367 2.02-1.45 4.408-2.187 6.9-1.997 4.21.32 8.43 3.49 9.24 7.753-.102-.153-.48-1.252-.374-.848-.467-1.247.08.314 0 0zM125.555 9.325c-1.57-.397-1.215 2.588-1.312 3.688-.106-.76.07-2.078-.287-2.777-.503-.98-.818.832-.815.978.074 2.347.45 4.67.467 7.04.016 2.56.424 5.688-.083 8.2-.103.505-1.324 3.902.255 3.594.73-1.31.184-2.785.803-4.026 0 1.322-.862 4.123.758 4.285.42-6.87.677-14.11.215-20.982-.016-.004-.082.89.032.92.016-.307.006-.614-.032-.92-.278-.07.14 2.085 0 0zM132.884 27.427c-.117-4.197-.567-8.314-.99-12.484-.437-4.313.445-8.68.486-13.002-.71.126-.934-.078-.934.766-.045-.47.03-1.21-.21-1.637-.366-.658-.77.27-.734.607.273 2.58.2 5.176.274 7.764.134 4.91-.117 9.957-.602 14.847-.402-6.337-.004-12.765.082-19.11.015-1.053.456-3.086-.013-4.08-.633-1.34-.824 1.87-.825 1.948-.047 3.008-.105 6.015-.14 9.022-.04 3.18-.028 6.36-.007 9.543.013 1.643-.47 7.69 1.16 8.208.57.18-.204.73.942.62.174-.016.232-2.548.224-2.262.096-3.024-.06-6.078-.06-9.106.206 1.893.37 3.79.445 5.694.045 1.096-.298 3.2.197 4.204.542 1.1 1.003-.5 1.034-.838.077-.814-.52-.756-.326-.703-.08-2.793.2.055 0 0zM138.487 9.325c-1.574-.378-1.22 2.572-1.317 3.688-.09-.75.07-2.092-.286-2.778-.51-.982-.812.843-.808.982.07 2.346.45 4.67.468 7.036.017 2.568.408 5.683-.096 8.202-.077.39-1.26 4.043.253 3.594.764-1.295.14-2.842.812-4.027 0 1.317-.855 4.123.757 4.284.433-6.867.675-14.115.217-20.982-.027-.006-.08.892.03.92.02-.307.01-.614-.03-.92-.278-.066.14 2.085 0 0z" id="Shape" fill="#000"/><path id="Shape" fill="#FFF" d="M143.688 23.312c.05-.095.03-.14-.055-.132.02.045.037.088.055.132.05-.094-.034-.057 0 0z"/><path d="M43.593 38.37c-5.45-1.07-11.625-.368-17.163-.364.154 1.498 12.484.38 14.178.516-3.008.31-6.057.274-9.077.276-.54 0-5.61-.658-5.307.76.077.335 10.873.1 12.045.067 2.158-.06 4.662.31 6.754-.33 1.494-.462-1.832-1.096-1.827-1.028.143-.01.276.023.398.102-2.855-.56-.01-.11 0 0z" id="Shape" fill="#C4D367"/><path d="M91.313 38.834c5.47 1.033 11.61.366 17.163.362-.172-1.518-12.47-.376-14.178-.52 2.996-.39 6.063-.268 9.077-.272.58 0 5.6.662 5.312-.763-.09-.335-4.12.182-4.602.09-2.455-.473-4.97-.22-7.448-.153-2.158.058-4.662-.31-6.754.332-1.498.46 1.834 1.09 1.828 1.024-.14.01-.274-.023-.397-.1 2.86.54.01.107 0 0z" id="Shape" fill="#E66D69"/><path d="M87.144 37.48c-.705-1.104-8.15-.33-9.63-.322-2.633.015-5.295.226-7.917.46-1.15.103-3.95.526-1.388.892-.93.074-1.626.04-2.523-.1-1.212-.193-.375.82.492.832 2.922.033 5.818-.295 8.76-.16 3.15.142 6.037-.59 9.147-.877.982-.09 2.15.456 3.03.107.604-.24.314-.747.027-.832-.188-.293.175.052 0 0zm-10.89 1.013c-1.217.09-2.432-.002-3.643-.102 1.774-.107 3.372-.214 5.152-.058-.362.052-1.883.187-1.51.16-1.238.092.497-.032 0 0zm1.83.073c-.094-.485.497-.158 1.115-.13l-1.117.13c-.022-.113 0 0 0 0zm1.862-.607l-.955-.053c1.086-.025 2.17-.068 3.258-.03.442-.04-3.013.072-2.207.085.304.005.27.004-.094-.003-.32 0 .75.013 0 0z" id="Shape" fill="#6EB6BF"/><path d="M138.127 38.874c.344.662 3.32.278 3.82.267 2.62-.055 5.233.152 7.852.005 2.16-.12 4.35-.214 6.496-.466 1.307-.153 3.02-.53.758-.83.93-.08 1.625-.044 2.523.097 1.21.19.38-.824-.49-.83-2.927-.023-5.818.304-8.76.157-3.106-.155-5.954.57-9.015.867-.845.08-2.474-.524-3.142-.136-.53.31-.392.777-.043.87.202.39-.18-.047 0 0zm10.882-1.007c1.214-.1 2.428 0 3.64.1-1.775.13-3.37.212-5.15.055.364-.05 1.886-.18 1.51-.155 1.236-.103-.498.033 0 0zm-1.827-.074c.087.482-.51.168-1.12.13l1.12-.13c.02.11 0 0 0 0zm-1.86.608l.95.05c-1.084.027-2.17.07-3.254.03-.438.04 3.008-.067 2.206-.084-.302-.005-.27-.003.097.005.315-.006-.75-.015 0 0z" id="Shape" fill="#C4D367"/><path d="M24.682 39.185c.392-.825-4.024-.864-4.78-1.01-2.496-.485-5.018-.648-7.56-.648-2.676 0-5.346.19-8.015.363-.28.018-4.252-.006-3.564.974.538.766 5.277.333 6.25.25 2.546-.215 5.06-.16 7.61-.044 2.293.106 4.56.03 6.848.057 1.124.016 2.228.4 3.212.058.242-.512-.087.03 0 0zm-12.612-.72c-3.05-.078-6.096.147-9.152.066 5.3-.81 11.192-.466 16.498.132-2.604.048-5.2-.144-7.8-.21.15.004.303.007.454.012-1.79-.045 0 0 0 0z" id="Shape" fill="#6EB6BF"/><path d="M111.413 37.778c-.444.78 4.058.868 4.777 1.01 2.493.487 5.02.647 7.558.645 2.675-.002 5.345-.203 8.013-.36.15-.01 4.286-.003 3.57-.973-.572-.774-5.26-.34-6.253-.253-2.55.22-5.06.165-7.615.046-2.292-.106-4.555-.03-6.843-.058-1.11-.014-2.228-.428-3.207-.057-.287.505.084-.03 0 0zm10.29.916c-1.678-.078-3.353-.2-5.023-.393 5.466-.078 11.033-.048 16.495.134-3.822.575-7.994.388-11.843.243.123.005.247.01.372.017-1.68-.078 0 0 0 0zM50.158 38.62c-1.018-.036-2.037-.055-3.054-.054.247-.955 7.286-.59 8.664-.662 1.377-.07 7.726-1.18 8.302.197-4.27-.08-8.46.48-12.67.902 2.504 0 5.007-.08 7.5-.308 1.087-.095 2.175-.3 3.242-.413.53-.082.874.568.592.568-5.224 0-10.493.7-15.753.7.28-1.073 2.128-.83 3.178-.93-.197-.017-.388-.005-.577.04.193-.012.385-.025.578-.04-1.02-.034-1.057.1 0 0zM139.922 5.083c-.48-1.4-2.552-.56-3.3-.046.55-.772 1.353-.637 2.01-1.16.9-.716-1.153-.616-1.45-.482-.845.378-2.543 2.39-1.17 3.15 1.256.697 4.244-.18 3.91-1.462-.16-.464.058.222 0 0zm-2.202.673l-.678.044c.37-.26.983-.193 1.227-.51.115-.2-.6.472-.55.466-.224.034.197-.027 0 0z" id="Shape" fill="#F4C156"/><path d="M127.02 5.083c-.48-1.4-2.55-.562-3.297-.046.548-.775 1.353-.636 2.01-1.16.9-.716-1.152-.615-1.448-.482-.846.38-2.543 2.393-1.17 3.153 1.255.693 4.242-.19 3.906-1.465-.158-.463.06.222 0 0zm-2.198.673l-.677.044c.36-.247.984-.2 1.222-.51-.907 1.602-.578.47-.545.466-.224.034.197-.027 0 0z" id="Shape" fill="#C4D367"/><path id="Shape" fill="#FFF" d="M8.262 27.222c.21.01.42-.005.63-.005-.256-.02-.608-.036-.63.005.21.01.01-.02 0 0zM6.808 26.724c-.04-.034-.205-.116 0 0 0 0-.033-.018 0 0z"/><path d="M20.184 25.327c-3.107 2.223-6.23 3.674-10.138 2.776 2.28 0 4.543-.33 6.688-1.12.262-.096 3.448-2.642 3.367-1.956.243-2.063-1.867-.343-2.43.23-1.304 1.33-3.208 1.636-4.99 1.836-3.66.416-6.14.397-8.26-2.89-2.455-3.812-1.858-7.9 1.613-10.78 3.008-2.494 6.54-2.664 9.733-.5-3.1 2.887-6.14 6.335-8.765 9.655.784.39.61.688.454 1.593.625-.494 1.247-.993 1.865-1.496-.545.78-1.063 1.576-1.566 2.382 1.425.128 2.14-1.686 2.762-2.683.94-1.502 2.16-2.548 3.467-3.724-1.444 2.088-3.01 4.09-4.662 6.017 1.178-.38.763.417 1.734-.76.972-1.178 1.91-2.386 2.796-3.63.91-1.277 1.635-2.736 2.665-3.92.412-.445.844-.873 1.295-1.28.413-.392-.266-.95-.645-.58.206-.336.134-.578-.217-.727.31-.385.65-.742 1.02-1.072-.025.02 2.333-2.038.89-1.64.474-.865-4.857-1.098-5.406-1.157C7.11 9.237.347 13.893.99 20.914c.408 4.448 2.817 8.255 7.232 9.787 2.54.88 5.13.768 7.368-.778 1.03-.712 2.206-1.116 3.264-1.792 1.614-1.03 1.905-1.01 1.33-2.803.032.1.158.494 0 0-.914.654.16.5 0 0zM6.564 27.85c-2.7-1.523-4.45-3.624-4.45-6.87.27 1.753 1.096 3.37 2.247 4.71.282.343 2.436 1.954 2.204 2.16-1.075-.606 0-.052 0 0z" id="Shape" fill="#000"/><path id="Shape" fill="#FFF" d="M9.556 27.282c-.044-.11-.456-.066-.664-.07l.664.07c-.044-.11 0 0 0 0zM143.402 23.354l.072.21c-.023-.07-.05-.14-.072-.21.02.07 0 .03 0 0zM156.64 16.958c-.264-.756-.34-1.87-.538-2.7.18.9.27 1.82.537 2.7.093.266-.01-.034 0 0z"/><path d="M159.28 26.26c-.192-4.363.262-8.946-1.504-13.064-1.752-4.135-4.92-4.557-9-4.336-1.785.096-3.572.62-5.263 1.167-.454.146-3.657 2.197-2.74 2.997 1.142.994 3.072-.636 4.067-1.193 2.027-1.134 4.473-1.604 6.778-1.277 8.895 1.27 4.822 15.097-1.412 17.468-4.332 1.65-7.104-1.606-5.478-5.91 1.553-4.105 5.857-4.577 9.468-3.04-.796-2.48-4.253-1.77-6.2-1.226-2.555.717-4.235 3.015-4.546 5.596-1.12-2.48.418-5.12 3.102-6.36 1.587-.734 3.038-1.114 4.782-.764 1.223.246 2.6 1.823 3.6 1.107-2.65-3.35-5.478-3.687-9.398-1.863-3.778 1.76-5.83 4.76-5.024 8.92.276 1.422.86 2.544 2.037 3.447 1.45 1.117 3.17 2.638 5.014 3.03 3.317.71 9.068-1.145 10.34-4.596.116 1.32-.174 2.487-.368 3.776-.09.597.537 2.387 1.242 1.097.755-1.38.467-3.7.493-5.237-.002.15.045.894.01.264-.19-4.344.05.92 0 0zm-17.617-2.096c-.77-1.446.14-3.23.853-4.493-.658 2.094.173 4.815.68 6.87-.62-.713-1.117-1.528-1.533-2.376.064.12.122.247.18.37l-.18-.37c-.74-1.388.455.927 0 0zm1.787-.6c-.017-.07-.034-.14-.048-.21l.048.21c-.017-.07 0 0 0 0zm13.5.084c-.376 2.656-2.49 4.806-5.018 5.554 2.24-1.373 4.466-5.632 4.578-8.35.653.867.502 2.052.407 3.05.012-.145.123-.853.034-.254-.377 2.666.132-.875 0 0zm1.084-3.304c-.384-2.033-.507-4.117-1.1-6.108.873 1.776.782 5.324 1.1 6.108-.385-2.038 0 0 0 0z" id="Shape" fill="#000"/><path id="Shape" fill="#FFF" d="M82.426 23.354c.03.07.05.14.06.21l-.06-.21c.03.07 0 .03 0 0zM82.446 23.312c.05-.096.028-.14-.06-.132.022.045.042.088.06.132.05-.095-.038-.057 0 0zM82.156 23.354l.07.21-.07-.21c.024.07 0 .03 0 0zM95.39 16.958c-.308-.57-.365-1.99-.534-2.7.18.9.415 1.79.533 2.7.127.236-.004-.034 0 0z"/><path d="M98.04 26.26c-.22-4.366.232-8.934-1.506-13.064-1.81-4.12-4.878-4.56-9.004-4.336-1.785.096-3.572.62-5.265 1.167-.458.15-3.65 2.192-2.732 2.997 1.134.997 3.07-.64 4.063-1.194 2.025-1.134 4.47-1.606 6.776-1.277 8.895 1.268 4.824 15.094-1.412 17.467-4.336 1.65-7.1-1.607-5.478-5.91 1.55-4.106 5.86-4.58 9.47-3.04-.804-2.48-4.253-1.774-6.203-1.227-2.55.716-4.244 3.017-4.547 5.596-1.056-2.51.375-5.095 3.103-6.36 1.586-.736 3.038-1.116 4.783-.764 1.22.245 2.597 1.822 3.6 1.106-2.65-3.348-5.484-3.69-9.4-1.863-3.783 1.765-5.82 4.756-5.023 8.92.272 1.42.86 2.546 2.037 3.45 1.452 1.113 3.17 2.636 5.015 3.027 3.316.706 9.067-1.145 10.34-4.596.113 1.324-.18 2.486-.37 3.776-.088.596.55 2.39 1.244 1.097.685-1.275.6-3.79.49-5.237.013.15.045.893.016.264-.22-4.363.042.92 0 0zm-17.62-2.096c-.793-1.432.147-3.234.85-4.493-.65 2.092.166 4.82.68 6.87-.62-.714-1.112-1.53-1.53-2.376.067.12.124.247.18.37l-.18-.37c-.76-1.37.457.927 0 0zm1.784-.6c-.016-.07-.032-.14-.046-.21.014.07.03.14.046.21-.017-.07 0 0 0 0zm13.504.084c-.377 2.658-2.496 4.808-5.024 5.554 2.243-1.37 4.47-5.632 4.58-8.35.643.826.543 2.085.41 3.05.02-.145.12-.852.034-.254-.378 2.666.125-.875 0 0zm1.08-3.304c-.397-2.03-.508-4.117-1.103-6.108.883 1.785.785 5.307 1.102 6.108-.397-2.038 0 0 0 0z" fill="#000"/></g></svg>