<svg width="60" height="60" viewBox="0 0 60 60" xmlns="http://www.w3.org/2000/svg"><title>Rectangle 8 + G</title><g fill="none" fill-rule="evenodd"><path stroke-opacity=".9" stroke="#FA5555" d="M0 0h60v60H0z"/><path d="M37.467 23.9c-.69-1.12-1.53-1.947-2.52-2.48-.99-.535-2.232-.802-3.73-.802-2.46 0-4.24.79-5.34 2.374-1.102 1.582-1.652 3.935-1.652 7.06 0 3.1.544 5.368 1.63 6.807 1.088 1.438 2.836 2.157 5.245 2.157 1.823 0 3.503-.378 5.04-1.133v-4.2h-5.274v-4.862h10.8v11.953c-1.25.937-2.802 1.692-4.658 2.265-1.855.573-3.766.86-5.732.86-4.22 0-7.396-1.1-9.53-3.3-2.137-2.202-3.204-5.717-3.204-10.548 0-9.544 4.2-14.316 12.597-14.316 2.447 0 4.583.41 6.406 1.23 1.822.82 3.21 2.025 4.16 3.613l-4.24 3.32z" fill="#FA5555"/></g></svg>