<svg width="35" height="35" viewBox="0 0 35 35" xmlns="http://www.w3.org/2000/svg"><title>Imported Layers</title><g fill="none" fill-rule="evenodd"><path d="M29.966 29.906c-3.216 3.287-7.83 5.035-12.726 5.035-4.755 0-9.44-1.747-12.586-4.963C1.648 26.83-.1 22.077.04 17.46c.07-4.545 1.118-9.02 4.964-12.725C8.64 1.238 12.694.05 17.24.05c4.615 0 9.16 1.608 12.307 4.615 3.286 3.146 4.964 7.76 4.964 12.795 0 4.755-1.607 9.3-4.544 12.446" fill="#3D9AD1"/><path d="M24.41 15.784c0 .784.028 2.438.028 3.483 0 1.944-.26 3.86-1.045 4.99-1.102 1.568-2.96 2.612-6.5 2.612-1.712 0-4.295-.436-5.484-1.103-.262-.145-.466-.204-.35-.64.117-.434.29-.956.35-1.305.057-.29.202-.986.23-1.248.06-.318.262-.493.465-.348.93.64 2.844 1.074 4.034 1.074 1.48 0 3.25-.87 3.25-2.03v-.96c-.523.495-1.974 1.365-3.715 1.365-3.6 0-6.036-2.902-6.036-6.442 0-3.424 2.175-6.355 5.918-6.355 1.364 0 2.67.638 3.28 1.538.348.522.435.348.435-.204 0-1.102.03-1.13.26-1.13.407 0 1.945.202 2.35.23.408.03 2.15.204 2.41.262.232.087.232.174.232.522-.03.407-.116 3.483-.116 5.688zm-7.284-2.99c-1.22 0-2.41 1.017-2.41 2.584 0 1.48 1.162 2.525 2.41 2.525 1.276 0 2.408-1.074 2.408-2.554 0-1.54-1.19-2.555-2.408-2.555z" fill="#FFF"/></g></svg>