<svg width="93" height="30" viewBox="0 0 93 30" xmlns="http://www.w3.org/2000/svg"><title>HASHCARD + Rectangle 20</title><g fill="#000" fill-rule="evenodd"><path d="M40.696 0h11.478v6.26H40.696zM1.685 21.58c.265-.57.703-1.023 1.315-1.357.612-.334 1.266-.5 1.962-.5 1.238 0 2.167.367 2.786 1.105.62.737.93 1.71.93 2.922v5.99h-1.42v-5.406c0-.515-.042-.98-.126-1.398-.083-.418-.226-.776-.428-1.075-.2-.298-.473-.53-.814-.698-.34-.167-.768-.25-1.283-.25-.376 0-.74.076-1.096.23-.353.152-.67.385-.948.698-.28.313-.5.71-.668 1.19-.167.48-.25 1.047-.25 1.7v5.01H.223V13.96h1.42v7.617h.04zm18.125 1.857c0-.85-.222-1.482-.667-1.9-.446-.417-1.093-.626-1.94-.626-.586 0-1.128.106-1.63.314-.5.21-.924.487-1.272.835l-.792-.94c.403-.403.935-.737 1.596-1.002.66-.264 1.41-.396 2.244-.396.53 0 1.022.073 1.482.22.46.145.862.364 1.21.656.348.292.62.66.814 1.106.195.446.292.967.292 1.566v4.278c0 .375.014.765.042 1.17.028.402.07.743.125 1.02H20.04c-.042-.235-.077-.493-.104-.77-.028-.28-.042-.55-.042-.815h-.042c-.445.654-.95 1.124-1.513 1.41-.564.284-1.243.427-2.036.427-.375 0-.76-.053-1.158-.157-.396-.104-.758-.275-1.085-.51-.326-.238-.597-.544-.813-.92-.216-.375-.324-.834-.324-1.377 0-.75.192-1.346.574-1.784.383-.44.894-.765 1.534-.98.64-.217 1.375-.356 2.203-.42.828-.06 1.687-.092 2.577-.092v-.313zm-.417 1.42c-.584 0-1.172.023-1.763.072-.592.047-1.127.145-1.607.29-.48.147-.873.36-1.18.637-.306.28-.46.647-.46 1.106 0 .348.067.64.2.877.132.237.31.428.532.574.222.146.47.25.74.313.272.063.547.094.825.094.5 0 .946-.086 1.336-.26.39-.174.716-.41.98-.71.265-.3.467-.643.606-1.033.14-.39.208-.8.208-1.23v-.73h-.417zM31.3 22.288c-.21-.405-.526-.735-.95-.993-.425-.257-.908-.386-1.45-.386-.25 0-.502.03-.752.085-.25.055-.473.146-.668.27-.195.126-.35.286-.47.48-.118.196-.177.425-.177.69 0 .46.188.81.564 1.054.375.242.966.447 1.773.614 1.155.237 2.007.58 2.557 1.033.55.453.824 1.06.824 1.826 0 .557-.107 1.027-.322 1.41-.216.382-.498.695-.845.938-.348.245-.74.42-1.18.523-.438.104-.88.157-1.325.157-.737 0-1.454-.153-2.15-.46-.695-.306-1.265-.786-1.71-1.44l1.126-.834c.25.43.62.793 1.106 1.085.487.293 1.023.44 1.607.44.306 0 .6-.03.877-.084.278-.056.522-.153.73-.293.21-.14.376-.316.5-.532.126-.214.19-.482.19-.802 0-.515-.248-.9-.742-1.158-.494-.258-1.207-.498-2.14-.72-.29-.07-.6-.157-.928-.26-.327-.106-.63-.26-.907-.46-.28-.202-.508-.456-.69-.762-.18-.306-.27-.69-.27-1.148 0-.5.097-.93.292-1.283.193-.355.454-.647.78-.877.328-.23.7-.4 1.118-.51.417-.113.85-.168 1.294-.168.68 0 1.342.153 1.982.46.64.305 1.12.736 1.44 1.293l-1.085.814zm6.876-.71c.264-.57.702-1.023 1.314-1.357.613-.334 1.267-.5 1.962-.5 1.238 0 2.167.367 2.786 1.105.62.737.93 1.71.93 2.922v5.99h-1.42v-5.406c0-.515-.042-.98-.125-1.398-.084-.418-.226-.776-.428-1.075-.202-.298-.473-.53-.814-.698-.34-.167-.768-.25-1.283-.25-.375 0-.74.076-1.095.23-.355.152-.672.385-.95.698-.278.313-.5.71-.668 1.19-.167.48-.25 1.047-.25 1.7v5.01h-1.42V13.96h1.42v7.617h.042zm19 .625c-.235-.375-.58-.685-1.032-.928-.452-.244-.942-.366-1.47-.366-.57 0-1.086.102-1.545.304-.46.202-.853.48-1.18.835-.327.353-.578.77-.752 1.25-.174.48-.26 1-.26 1.556s.086 1.07.26 1.544c.174.473.42.887.74 1.242s.71.633 1.17.835c.46.2.974.302 1.544.302.626 0 1.155-.12 1.586-.356.432-.236.786-.542 1.065-.918l1.064.793c-.417.514-.93.924-1.534 1.23-.605.307-1.332.46-2.18.46-.794 0-1.51-.13-2.15-.387-.64-.257-1.186-.615-1.64-1.074-.45-.46-.802-1.003-1.053-1.63-.25-.625-.375-1.307-.375-2.044 0-.738.125-1.42.375-2.046.25-.626.602-1.168 1.054-1.627.453-.46 1-.818 1.64-1.075.64-.258 1.355-.386 2.148-.386.654 0 1.318.142 1.993.428.675.285 1.22.706 1.638 1.262l-1.106.793zm10.864 1.232c0-.85-.223-1.482-.668-1.9-.445-.417-1.092-.626-1.94-.626-.585 0-1.128.106-1.63.314-.5.21-.924.487-1.272.835l-.793-.94c.404-.403.936-.737 1.597-1.002.66-.264 1.41-.396 2.243-.396.53 0 1.023.073 1.482.22.458.145.862.364 1.21.656.347.292.62.66.813 1.106.195.446.293.967.293 1.566v4.278c0 .375.014.765.04 1.17.03.402.07.743.127 1.02H68.27c-.042-.235-.077-.493-.105-.77-.028-.28-.042-.55-.042-.815h-.04c-.446.654-.95 1.124-1.514 1.41-.565.284-1.243.427-2.036.427-.376 0-.762-.053-1.158-.157-.397-.104-.76-.275-1.086-.51-.327-.238-.598-.544-.813-.92-.216-.375-.324-.834-.324-1.377 0-.75.19-1.346.574-1.784.383-.44.894-.765 1.534-.98.64-.217 1.375-.356 2.203-.42.827-.06 1.687-.092 2.577-.092v-.313zm-.417 1.42c-.585 0-1.173.023-1.764.072-.592.047-1.128.145-1.608.29-.48.147-.873.36-1.18.637-.305.28-.458.647-.458 1.106 0 .348.066.64.198.877s.31.428.532.574c.223.146.47.25.74.313.273.063.547.094.826.094.5 0 .946-.086 1.335-.26.39-.174.717-.41.98-.71.265-.3.467-.643.606-1.033.14-.39.21-.8.21-1.23v-.73h-.417zm6.71-2.735c0-.265-.008-.605-.022-1.023-.013-.418-.033-.794-.06-1.128h1.355c.028.265.05.557.063.877.014.32.02.583.02.792h.042c.28-.57.696-1.033 1.253-1.388.556-.355 1.182-.532 1.878-.532.182 0 .345.007.49.02.147.015.297.042.45.084l-.188 1.336c-.083-.028-.222-.056-.417-.084-.195-.028-.39-.04-.585-.04-.375 0-.737.068-1.085.207-.348.14-.65.358-.908.658-.257.3-.466.68-.626 1.147-.16.467-.24 1.027-.24 1.68v5.01h-1.418V22.12zm16.85 5.968c-.416.627-.96 1.1-1.626 1.42-.668.32-1.357.48-2.067.48-.765 0-1.457-.133-2.076-.397-.62-.264-1.148-.626-1.586-1.085-.438-.46-.78-1.002-1.023-1.628-.243-.626-.365-1.3-.365-2.024s.122-1.4.365-2.025c.244-.625.585-1.167 1.023-1.627.438-.46.967-.82 1.586-1.085.62-.264 1.31-.396 2.076-.396.71 0 1.4.163 2.067.49.667.327 1.21.81 1.627 1.45h.042v-7.7h1.42V29.74h-1.42v-1.65h-.042zm-7.24-3.234c0 .542.083 1.054.25 1.534.167.48.407.897.72 1.252s.7.633 1.158.835c.46.2.982.302 1.567.302.542 0 1.043-.102 1.502-.303.458-.202.855-.477 1.19-.825.333-.348.593-.762.78-1.242.19-.48.283-.998.283-1.554 0-.557-.094-1.075-.282-1.555-.187-.48-.447-.897-.78-1.25-.335-.356-.732-.634-1.19-.836-.46-.202-.96-.303-1.503-.303-.585 0-1.107.106-1.566.314-.458.21-.844.49-1.157.846-.313.354-.553.772-.72 1.252-.167.48-.25.99-.25 1.534z"/></g></svg>