<svg width="32" height="35" viewBox="0 0 32 35" xmlns="http://www.w3.org/2000/svg"><title>Imported Layers Copy</title><g fill="none" fill-rule="evenodd"><path d="M.14.363h31.817v27.355H.14V.363z" fill="#BA1E2A"/><path d="M15.497 28.215l-6.455.685.457-2.4-6.056-5.31 1.2-.858-1.028-4.227 3.713.743 1.027-1.77 3.77 3.426-1.37-7.883 2.512 1.486 2.563-5.052 2.612 5.013 2.593-1.446-1.314 7.884 3.714-3.598 1.2 2.056 3.54-.914-1.085 4.284 1.428 1.028-6.34 5.2.743 2.398-6.57-.743.115 6.398-1.085.057.114-6.455" fill="#FFF"/></g></svg>