<svg width="32" height="35" viewBox="0 0 32 35" xmlns="http://www.w3.org/2000/svg"><title>Imported Layers</title><g fill="none" fill-rule="evenodd"><path d="M29.987.853L19.59.83h-.438v.043h-.002v.44l-.004 1.94-7.05-.017.005-2.025V.77l-.44-.003L1.266.747h-.44v.44L.792 16.073h.03l9.385 17.81.124.236h.266l4.697.01.5.002 4.697.01h.264l.126-.236 9.438-17.724h.078l.03-14.888.002-.44h-.44zm-9.76 32.408l-4.432-.01h-.5l-4.433-.01-9.188-17.434.03-14.045 9.515.02-.006 1.895v.484h.44l7.93.02h.44l-.002-.045h.002l.002-.44.005-1.94 9.516.022-.03 14.04-9.29 17.444z" fill="#FFF"/><path d="M29.674 1.213l-10.17-.022h-.43v.044h-.002v.43l-.003 1.897-6.9-.015.006-1.98V1.13l-.43-.002-10.17-.02h-.43v.43l-.032 14.564h.03l9.18 17.422.12.232h.26l4.595.01h.49l4.594.01h.258l.123-.23 9.233-17.34.076.002.03-14.564v-.432h-.43zm-9.548 31.704l-4.335-.01h-.49l-4.336-.01-8.988-17.055.03-13.74 9.308.02-.005 1.853v.042l-.002.388v.044h.43l7.76.018h.43l-.002-.043h.002v-.432l.006-1.896 9.31.02-.03 13.737-9.088 17.063z" fill="#FFF"/><path d="M17.533 33.445l-3.97-.01.06-29.35 3.962.007-.052 29.353M9.648 30.72L6.13 24.126l-.43-.874.046-21.49 3.96.01-.058 28.95M21.505 30.378l3.987-7.447.035-21.157-3.962-.01-.06 28.615" fill="#FFF"/><path d="M5.693 17.55l.003 1.36-1.618 1.048-.564-1.027-1.777-3.318.03-13.878 3.96.007-.034 15.81M25.492 22.93l4.005-7.39V1.84l-3.962-.01-.043 21.1M21.507 30.43l-1.63 3.017h-2.352l.067-29.364 3.218.007.017-2.324.732.002-.053 28.663M9.648 30.72l1.43 2.71 2.484.005.066-29.37-3.253-.008.008-2.313-.677-.002-.058 28.98" fill="#D7232E"/><path d="M3.08 20.662L30.608 3.9l-.012 5.975L5.46 24.897l-2.38-4.235" fill="#FFF"/><path d="M30.392 4.427L3.562 20.672l-.285-.47 26.83-16.244.285.47M30.434 10.23L5.674 25.225l-.286-.47L30.148 9.76l.286.47" fill="#CF222A"/><path d="M30.613.13L19.763.107h-.456V.15h-.002l-.002.46-.003 2.022-7.357-.017.006-2.113v-.46L11.49.04.642.02h-.46v.458L.148 16.014h.03l9.795 18.584.13.247h.276l4.9.01.523.002 4.9.01h.276l.13-.245 9.848-18.496h.082L31.073.592V.13h-.46zM20.43 33.948l-4.626-.01-.523-.002-4.624-.01-9.588-18.19L1.1 1.077l9.928.02-.004 1.978v.045l-.002.415v.046l.46.003 8.276.018h.458v-.044l.002-.46.006-2.023 9.93.022-.033 14.652-9.69 18.2z" fill="#CF222A"/><path d="M9.26 21.71l-.557.34-1.624-2.66.555-.338L9.26 21.71M11.032 20.627l-.557.34-.33-.54.555-.34.332.54M12.67 19.627l-.585.357-.68-3.24.643-.388 2.562 2.085-.603.37-.506-.444-.98.6.15.66zm-.283-1.21l.677-.413-.972-.852-.007.005.302 1.26zM16.22 17.456l-.557.342-.33-.542.556-.34.33.54M18.082 13.863c-.143-.133-.41-.38-.868-.1-.268.163-.553.58-.09 1.33.29.48.742.793 1.212.505.308-.187.415-.49.283-.858l.554-.34c.243.645.112 1.28-.554 1.686-.708.433-1.508.265-2.07-.653-.567-.928-.32-1.73.364-2.15.797-.485 1.455-.134 1.724.24l-.556.34M21.406 14.288l-.556.34-.328-.54.554-.34.33.54M23.27 10.693c-.142-.132-.41-.38-.87-.1-.268.163-.55.58-.092 1.333.293.478.745.79 1.216.504.306-.187.414-.493.282-.86l.556-.34c.24.646.112 1.28-.555 1.69-.708.43-1.507.263-2.07-.655-.568-.93-.32-1.732.365-2.15.796-.487 1.454-.135 1.724.238l-.555.34M26.594 11.118l-.555.34-.332-.54.556-.342.33.542" fill="#CF222A"/></g></svg>