<svg width="84" height="20" viewBox="0 0 84 20" xmlns="http://www.w3.org/2000/svg"><title>Logo_of_La_Voz_del_interior_newspaper_since_2009</title><g fill="#30549F" fill-rule="evenodd"><path d="M13.07 19.4H.365V.363h4.78v15.404h7.927v3.63zM23.004 15.653v-2.99c-.758.076-1.372.142-1.84.197-.47.055-.93.164-1.38.326-.393.136-.698.343-.915.62-.22.277-.327.646-.327 1.106 0 .673.18 1.136.543 1.387.362.25.897.376 1.604.376.392 0 .793-.09 1.202-.268.41-.18.78-.43 1.112-.755zm0 2.225l-.824.69c-.243.205-.57.41-.978.614-.4.196-.79.345-1.17.447-.38.102-.91.153-1.592.153-1.27 0-2.324-.426-3.164-1.28-.84-.85-1.26-1.925-1.26-3.22 0-1.066.214-1.926.64-2.583.426-.656 1.04-1.176 1.84-1.56.81-.39 1.778-.664 2.903-.818 1.124-.153 2.334-.272 3.63-.358v-.076c0-.793-.292-1.34-.876-1.643-.584-.303-1.46-.454-2.627-.454-.528 0-1.146.097-1.854.29-.707.19-1.397.436-2.07.734h-.384V5.35c.442-.128 1.158-.28 2.146-.454.99-.175 1.986-.262 2.992-.262 2.472 0 4.272.41 5.4 1.233 1.13.823 1.695 2.078 1.695 3.765V19.4h-4.45v-1.522zM54.62.364L48.073 19.4h-4.986L36.543.363h4.96l4.142 12.9 4.142-12.9h4.832zM69.935 12.227c0 2.36-.646 4.22-1.937 5.58-1.29 1.36-3.117 2.04-5.478 2.04-2.344 0-4.166-.68-5.465-2.04-1.3-1.36-1.95-3.22-1.95-5.58 0-2.386.65-4.255 1.95-5.606 1.3-1.35 3.12-2.025 5.465-2.025 2.352 0 4.176.68 5.47 2.04 1.297 1.36 1.945 3.223 1.945 5.592zm-4.59.026c0-.852-.07-1.562-.21-2.13-.14-.565-.335-1.02-.582-1.36-.265-.358-.563-.607-.895-.748-.333-.14-.712-.21-1.138-.21-.4 0-.763.06-1.087.184-.324.123-.622.36-.895.71-.255.33-.46.787-.613 1.367-.154.58-.23 1.308-.23 2.186 0 .878.072 1.587.217 2.128.145.543.332.975.562 1.3.24.33.537.574.895.728.357.153.754.23 1.188.23.358 0 .723-.077 1.093-.23.372-.154.668-.384.89-.69.264-.367.464-.808.6-1.324.137-.515.205-1.23.205-2.14zM83.767 19.4H71.213v-2.954l6.852-8.04H71.52V5.042h12.106v2.902l-6.865 8.028h7.007V19.4z"/></g></svg>