<svg width="61" height="25" viewBox="0 0 61 25" xmlns="http://www.w3.org/2000/svg"><title>Imported Layers</title><g fill="#C02349" fill-rule="evenodd"><path d="M4.972 20.557h9.084c-1.922 1.61-3.7 2.72-5.332 3.333-1.634.613-3.423.918-5.37.918-.72 0-.868-.102-1.444-.305-.577-.204-1.015-.565-1.315-1.08-.3-.518-.45-1.088-.45-1.713 0-.816.25-1.885.756-3.206L5.44 5.93c.77-1.85 1.52-3.297 2.252-4.342C8.425.543 9.5.02 10.918.02c.912 0 1.68.175 2.306.523.624.348 1.032.733 1.225 1.153.192.42.288.86.288 1.315 0 1.826-.973 4.463-2.918 7.91-1.946 3.446-4.228 6.66-6.846 9.637zm5.73-16.105c-.434.65-.836 1.393-1.208 2.234-.373.84-.775 1.88-1.207 3.117-.433 1.237-1.08 3.08-1.946 5.53 1.298-1.513 2.595-3.374 3.893-5.585 1.297-2.21 1.945-3.867 1.945-4.972 0-.288-.03-.546-.09-.774-.06-.228-.21-.342-.45-.342-.29 0-.6.264-.937.792z"/><path d="M19.143 13.21l3.413.002-2.79 7.352h5.993c-1.744 1.35-2.977 2.19-3.703 2.523-.726.333-1.687.5-2.882.5-.58 0-1.11-.14-1.588-.423-.478-.282-.837-.636-1.076-1.063-.734.625-1.472 1.072-2.215 1.34-.743.268-1.498.403-2.267.403-.376 0-.734-.108-1.075-.322-.342-.213-.564-.453-.667-.72-.102-.265-.18-.492-.23-.68-.05-.19-.077-.387-.077-.594 0-.325.033-.647.1-.965.07-.316.215-.767.437-1.35l2.306-5.998h3.355l-1.972 5.123c-.342.89-.513 1.512-.513 1.87 0 .17.047.312.14.423.095.11.236.166.424.166.205 0 .55-.093 1.037-.28.487-.19.913-.565 1.28-1.128.367-.564.78-1.427 1.243-2.588l1.326-3.588"/><path d="M31.097 14.083l.333-.87h3.407l-2.818 7.35h5.148c-.956.94-1.87 1.68-2.74 2.217-.872.538-1.786.807-2.742.807-.12 0-.235-.005-.346-.013-.11-.01-.328-.05-.653-.128-.325-.077-.645-.265-.96-.564-.317-.298-.543-.593-.68-.883-.768.588-1.4 1.042-1.895 1.363-.495.32-1.28.48-2.357.48-.82 0-1.49-.373-2.01-1.12-.522-.746-.782-1.488-.782-2.226 0-1.063.21-2.114.628-3.152.42-1.038 1.017-1.922 1.794-2.65.777-.73 1.494-1.228 2.152-1.494.657-.264 1.31-.397 1.96-.397.392 0 .742.043 1.05.13.307.088.576.21.806.366.23.156.466.417.705.783zm-4.713 3.53c-.154.242-.287.544-.398.906-.11.362-.166.673-.166.93 0 .364.093.623.282.78.188.154.41.232.666.232.34 0 .7-.117 1.075-.35.376-.233.705-.518.987-.855.282-.336.533-.72.756-1.152.22-.43.333-.812.333-1.14-.002-.397-.13-.69-.386-.88-.256-.19-.512-.286-.768-.286-.393 0-.81.177-1.256.53-.444.355-.82.782-1.127 1.283z"/><path d="M43.2 13.21l3.412.002-2.792 7.352h5.994c-1.742 1.35-2.976 2.19-3.702 2.523-.726.333-1.686.5-2.88.5-.582 0-1.112-.14-1.59-.423-.478-.282-.836-.636-1.076-1.063-.734.625-1.472 1.072-2.216 1.34-.742.268-1.498.403-2.266.403-.376 0-.735-.108-1.076-.322-.342-.213-.564-.453-.666-.72-.103-.265-.18-.492-.23-.68-.052-.19-.078-.387-.078-.594 0-.325.034-.647.103-.965.068-.316.213-.767.435-1.35l2.306-5.998h3.356l-1.973 5.123c-.34.89-.51 1.512-.51 1.87 0 .17.046.312.14.423.093.11.234.166.422.166.205 0 .55-.093 1.037-.28.486-.19.913-.565 1.28-1.128.367-.564.78-1.427 1.242-2.588L43.2 13.21"/><path d="M54.902 14.083l.333-.87h3.407l-2.818 7.35h5.15c-.957.94-1.87 1.68-2.74 2.217-.873.538-1.787.807-2.742.807-.12 0-.236-.005-.346-.013-.112-.01-.33-.05-.654-.128-.324-.077-.645-.265-.96-.564-.316-.298-.542-.593-.68-.883-.767.588-1.4 1.042-1.895 1.363-.495.32-1.28.48-2.357.48-.82 0-1.49-.373-2.01-1.12-.522-.746-.782-1.488-.782-2.226 0-1.063.21-2.114.628-3.152.418-1.038 1.016-1.922 1.793-2.65.776-.73 1.494-1.228 2.15-1.494.658-.264 1.31-.397 1.96-.397.393 0 .743.043 1.05.13.308.088.577.21.808.366.23.156.465.417.704.783zm-4.713 3.53c-.155.242-.287.544-.398.906-.11.362-.167.673-.167.93 0 .364.094.623.282.78.188.154.41.232.666.232.34 0 .7-.117 1.076-.35.375-.233.703-.518.985-.855.282-.336.534-.72.756-1.152.222-.43.334-.812.334-1.14 0-.397-.128-.69-.384-.88-.257-.19-.513-.286-.77-.286-.392 0-.81.177-1.254.53-.445.355-.82.782-1.127 1.283z"/></g></svg>