<svg width="170" height="18" viewBox="0 0 170 18" xmlns="http://www.w3.org/2000/svg"><title>STAYFUL Copy 2</title><path d="M4.28 17.452c-1.117 0-2.543-.243-4.28-.73v-2.336c1.872.87 3.41 1.303 4.616 1.303.928 0 1.675-.244 2.24-.73.565-.488.848-1.128.848-1.92 0-.653-.185-1.207-.556-1.664-.37-.456-1.054-.965-2.05-1.527l-1.145-.663C2.538 8.377 1.54 7.617.96 6.9.38 6.187.09 5.354.09 4.403c0-1.28.464-2.334 1.392-3.16C2.412.413 3.594 0 5.032 0c1.28 0 2.63.213 4.053.64v2.156c-1.752-.688-3.058-1.033-3.92-1.033-.815 0-1.49.217-2.02.652-.532.434-.798.98-.798 1.64 0 .553.195 1.044.584 1.47.39.427 1.102.936 2.135 1.528l1.19.674c1.438.816 2.44 1.587 3.01 2.313.57.726.854 1.6.854 2.617 0 1.445-.535 2.605-1.602 3.48-1.067.877-2.48 1.315-4.24 1.315zm25.3-.415V2.18h-5.895V.415h14.15V2.18H31.94v14.857h-2.36zm31.233-6.357l-2.83-7.165-2.84 7.165h5.67zm2.493 6.357l-1.808-4.605h-7.04l-1.832 4.605h-2.19L57.028.417h2.336l6.49 16.62h-2.548zm20.765 0v-6.94L78.524.416h2.696l4.31 7.5 4.65-7.5h2.19l-5.94 9.634v6.987h-2.36zm22.956 0V.417h9.288v1.762h-6.93v5.57h5.818v1.74h-5.817v7.547h-2.36zM131.44.417h2.36v10.488c0 1.67.31 2.884.926 3.644.618.76 1.6 1.14 2.948 1.14 1.318 0 2.252-.36 2.802-1.074.55-.715.826-1.926.826-3.633V.416h2.066V10.95c0 2.268-.466 3.92-1.398 4.952-.932 1.034-2.416 1.55-4.453 1.55-2.074 0-3.605-.535-4.593-1.606-.988-1.07-1.483-2.725-1.483-4.964V.416zm28.29 16.62V.417h2.36v14.856h7.48v1.764h-9.84z" fill="#000" fill-rule="evenodd"/></svg>