<svg width="130" height="83" viewBox="0 0 130 83" xmlns="http://www.w3.org/2000/svg"><title>Imported Layers Copy 2</title><g fill="#0A0B09" fill-rule="evenodd"><path d="M10.04 4.77v32.175H5.143V4.77H.453V.334H14.73V4.77h-4.69M32.525 36.945V20.322H26.51v16.623h-4.896V.335h4.895v15.55h6.015V.336h4.896v36.61h-4.895M46.09.334h9.586c3.74 0 5.608 2.09 5.608 6.27v9.027c0 3.197-.97 5.22-2.906 6.068l3.418 15.247h-4.64L53.94 22.157h-2.955v14.788H46.09V.335zm4.895 17.642h3.21c1.463 0 2.195-.883 2.195-2.652V7.42c0-1.767-.732-2.65-2.194-2.65h-3.21v13.206zM69.443 36.945V.335H81.58V4.77h-7.24v11.116h6.423v4.436H74.34V32.51h7.24v4.435H69.443M93.816 36.945H88.92V6.605c0-4.182 1.955-6.27 5.865-6.27h3.67c3.91 0 5.866 2.088 5.866 6.27v30.34h-4.895v-13.41h-5.61v13.41zm5.61-17.847V6.91c0-1.427-.714-2.14-2.144-2.14H95.96c-1.43 0-2.144.713-2.144 2.14V19.1h5.61zM112.733 36.945V.335h8.516c4.588 0 6.884 2.343 6.884 7.035v24.27c0 3.538-1.956 5.305-5.865 5.305h-9.537zm4.896-4.436h3.67c1.293 0 1.938-.545 1.938-1.634V7.42c0-1.767-.732-2.65-2.194-2.65h-3.415v27.74zM17.433 74.27v2.347c0 4.15-1.956 6.22-5.865 6.22h-3.16c-3.91 0-5.866-2.07-5.866-6.22v-24.17c0-4.147 1.955-6.22 5.865-6.22h3.16c3.91 0 5.866 2.073 5.866 6.22v4.13h-4.896v-3.773c0-1.428-.73-2.142-2.194-2.142h-.967c-1.293 0-1.94.714-1.94 2.142V76.26c0 1.427.647 2.142 1.94 2.142H10.6c1.29 0 1.937-.715 1.937-2.14V74.27h4.896M28.19 82.836c-3.942 0-5.915-2.07-5.915-6.22v-24.12c0-4.18 1.957-6.27 5.865-6.27h4.69c3.91 0 5.865 2.09 5.865 6.27v24.12c0 4.15-1.97 6.22-5.913 6.22H28.19zm1.174-4.434h2.5c1.29 0 1.938-.715 1.938-2.14V52.803c0-1.428-.732-2.142-2.194-2.142h-2.294c-1.43 0-2.142.714-2.142 2.142V76.26c0 1.427.73 2.142 2.192 2.142zM60.215 46.226v29.678c0 4.62-1.973 6.932-5.917 6.932h-4.13c-3.91 0-5.863-2.325-5.863-6.986V46.226H49.2v29.778c0 1.6.714 2.398 2.14 2.398h1.99c1.326 0 1.988-.8 1.988-2.398V46.226h4.897M76.224 63.92V46.225h4.896v36.61h-4.896v-7.29l-5.25-16.675v23.966h-4.896v-36.61h4.895l5.25 17.693M101.618 74.27v2.347c0 4.15-1.955 6.22-5.863 6.22h-3.163c-3.908 0-5.863-2.07-5.863-6.22v-24.17c0-4.147 1.954-6.22 5.862-6.22h3.163c3.908 0 5.863 2.073 5.863 6.22v4.13h-4.894v-3.773c0-1.428-.732-2.142-2.194-2.142h-.97c-1.29 0-1.936.714-1.936 2.142V76.26c0 1.427.646 2.142 1.937 2.142h1.225c1.294 0 1.94-.715 1.94-2.14V74.27h4.893M106.718 46.226h4.895v36.61h-4.895v-36.61zM129.103 82.836h-11.628v-36.61h4.897v32.176h6.73v4.434"/></g></svg>