<?xml version="1.0" encoding="UTF-8" standalone="no"?>
<svg width="198px" height="185px" viewBox="0 0 198 185" version="1.1" xmlns="http://www.w3.org/2000/svg" xmlns:xlink="http://www.w3.org/1999/xlink" xmlns:sketch="http://www.bohemiancoding.com/sketch/ns">
    <!-- Generator: Sketch 3.3.2 (12043) - http://www.bohemiancoding.com/sketch -->
    <title>New logo</title>
    <desc>Created with Sketch.</desc>
    <defs></defs>
    <g id="Page-1" stroke="none" stroke-width="1" fill="none" fill-rule="evenodd" sketch:type="MSPage">
        <g id="Desktop-Copy" sketch:type="MSArtboardGroup" transform="translate(-541.000000, -158.000000)">
            <g id="New-logo" sketch:type="MSLayerGroup" transform="translate(541.000000, 158.000000)">
                <path d="M85.4691828,145.392371 L51.3327778,107.205884 L47.0991466,184.205051 L0,184.205051 L10.5840779,26.4782358 C10.8486798,24.6260221 11.9070876,24.8906241 12.9654954,26.2136338 L99.2257303,91.4079455 L184.162955,26.2136338 C185.221363,24.8906241 186.279771,24.6260221 186.544373,26.4782358 L197.128451,184.205051 L149.764702,184.205051 L145.531071,107.470486 L116.180892,141.482164 L101.456121,108.246251 L85.4691828,145.392371 Z M93.1193843,153.950224 L98.1673225,159.59707 C98.9611283,160.390876 99.7549342,160.390876 100.54874,159.59707 L105.421653,153.950224 L93.1193843,153.950224 Z" id="M" fill="#291254" sketch:type="MSShapeGroup"></path>
                <path d="M140.359306,184.493708 L190.104472,184.493708 L102.785829,1.38916022 C101.992023,-0.463053408 100.404412,-0.463053408 99.6106058,1.38916022 L12.0273612,184.493708 L59.1265079,184.493708 L140.359306,184.493708 Z M121.704716,153.950224 L81.7860565,153.950224 L101.456121,108.246251 L121.704716,153.950224 Z" id="A" fill="#6441A5" sketch:type="MSShapeGroup"></path>
            </g>
        </g>
    </g>
</svg>