<?xml version="1.0" encoding="UTF-8" standalone="no"?>
<svg width="20px" height="20px" viewBox="0 0 20 20" version="1.1" xmlns="http://www.w3.org/2000/svg" xmlns:xlink="http://www.w3.org/1999/xlink" xmlns:sketch="http://www.bohemiancoding.com/sketch/ns">
    <!-- Generator: Sketch 3.3.2 (12043) - http://www.bohemiancoding.com/sketch -->
    <title>Group</title>
    <desc>Created with Sketch.</desc>
    <defs></defs>
    <g id="Page-1" stroke="none" stroke-width="1" fill="none" fill-rule="evenodd" sketch:type="MSPage">
        <g id="1280w" sketch:type="MSArtboardGroup" transform="translate(-49.000000, -207.000000)" stroke="#000000" stroke-linejoin="round">
            <g id="M-+-A-+-Path-Copy-+-Group-+-WORK-+-ABOUT-+-BLOG" sketch:type="MSLayerGroup" transform="translate(20.000000, 20.000000)">
                <g id="Group" transform="translate(29.000000, 120.000000)" sketch:type="MSShapeGroup">
                    <g transform="translate(1.126693, 67.352000)">
                        <path d="M18.2091558,9.90712074 C18.2091558,14.8890815 14.1715088,18.9267286 9.18954799,18.9267286 C4.2075872,18.9267286 0.169940144,14.8890815 0.169940144,9.90712074 C0.169940144,4.92672859 4.2075872,0.8875129 9.18954799,0.8875129 C14.1715088,0.8875129 18.2091558,4.92672859 18.2091558,9.90712074 L18.2091558,9.90712074 Z" id="Stroke-49"></path>
                        <path d="M4.88962642,1.97590506 C9.40884211,5.41355212 12.3264892,10.8496305 12.3264892,16.965709 C12.3264892,17.4449247 12.3084499,17.9170815 12.2739401,18.3853168" id="Stroke-51"></path>
                        <path d="M15.9228813,3.90641486 C12.5424892,7.13778741 7.96131269,9.12288545 2.91503818,9.12288545 C2.00131269,9.12288545 1.10327348,9.0570031 0.223273478,8.93229721" id="Stroke-53"></path>
                        <path d="M2.17668524,15.578807 C5.56021465,12.3239051 10.1578617,10.3239051 15.2229598,10.3239051 C16.1547245,10.3239051 17.2919794,10.4093953 18.1868813,10.5403756" id="Stroke-55"></path>
                    </g>
                </g>
            </g>
        </g>
    </g>
</svg>