<?xml version="1.0" encoding="UTF-8" standalone="no"?>
<svg width="21px" height="20px" viewBox="0 0 21 20" version="1.1" xmlns="http://www.w3.org/2000/svg" xmlns:xlink="http://www.w3.org/1999/xlink" xmlns:sketch="http://www.bohemiancoding.com/sketch/ns">
    <!-- Generator: Sketch 3.3.2 (12043) - http://www.bohemiancoding.com/sketch -->
    <title>Group</title>
    <desc>Created with Sketch.</desc>
    <defs></defs>
    <g id="Page-1" stroke="none" stroke-width="1" fill="none" fill-rule="evenodd" sketch:type="MSPage">
        <g id="1280w" sketch:type="MSArtboardGroup" transform="translate(-49.000000, -244.000000)" stroke-linecap="round" stroke="#000000" stroke-linejoin="round">
            <g id="M-+-A-+-Path-Copy-+-Group-+-WORK-+-ABOUT-+-BLOG" sketch:type="MSLayerGroup" transform="translate(20.000000, 20.000000)">
                <g id="Group" transform="translate(29.000000, 120.000000)" sketch:type="MSShapeGroup">
                    <g transform="translate(0.126693, 105.352000)">
                        <path d="M17.0631,12.6 C17.0631,7.2279 13.3497,9.4221 10.3131,9.4221 C7.2756,9.4221 3.5631,7.2837 3.5631,12.6 C3.5631,14.3397 4.9734,15.75 6.7131,15.75 L13.9131,15.75 C15.6537,15.75 17.0631,14.3397 17.0631,12.6 L17.0631,12.6 Z" id="Stroke-270"></path>
                        <path d="M18.88947,6.49296 L18.91827,6.51276 C18.91827,6.51276 21.30057,2.39886 18.37557,0.00036 C16.57557,0.00036 13.82247,2.97306 13.82247,2.97306 L13.84317,2.98656 C11.60127,2.32776 9.08577,2.32326 6.83937,2.97216 C6.82497,2.95686 4.08357,0.00036 2.28807,0.00036 C-0.56853,2.34216 1.63107,6.31116 1.73457,6.49566 C0.81927,7.86906 0.31977,9.58536 0.47907,11.66436 C0.69597,14.47686 3.04227,17.55036 5.86287,17.55036 L14.76207,17.55036 C17.58447,17.55036 19.92987,14.47686 20.14587,11.66436 C20.30697,9.58356 19.80747,7.86546 18.88947,6.49296 L18.88947,6.49296 Z" id="Stroke-271"></path>
                        <path d="M14.38155,12.6 C14.38155,13.3461 13.97925,13.95 13.48155,13.95 C12.98475,13.95 12.58155,13.3461 12.58155,12.6 C12.58155,11.8539 12.98475,11.25 13.48155,11.25 C13.97925,11.25 14.38155,11.8539 14.38155,12.6 L14.38155,12.6 Z" id="Stroke-272"></path>
                        <path d="M8.08155,12.6 C8.08155,13.3461 7.67925,13.95 7.18155,13.95 C6.68475,13.95 6.28155,13.3461 6.28155,12.6 C6.28155,11.8539 6.68475,11.25 7.18155,11.25 C7.67925,11.25 8.08155,11.8539 8.08155,12.6 L8.08155,12.6 Z" id="Stroke-273"></path>
                    </g>
                </g>
            </g>
        </g>
    </g>
</svg>