<?xml version="1.0" encoding="UTF-8" standalone="no"?>
<svg width="24px" height="24px" viewBox="0 0 24 24" version="1.1" xmlns="http://www.w3.org/2000/svg" xmlns:xlink="http://www.w3.org/1999/xlink" xmlns:sketch="http://www.bohemiancoding.com/sketch/ns">
    <!-- Generator: Sketch 3.3.2 (12043) - http://www.bohemiancoding.com/sketch -->
    <title>Group</title>
    <desc>Created with Sketch.</desc>
    <defs></defs>
    <g id="Page-1" stroke="none" stroke-width="1" fill="none" fill-rule="evenodd" sketch:type="MSPage">
        <g id="Group" sketch:type="MSLayerGroup" transform="translate(1.000000, 0.000000)" stroke="#000000" stroke-linecap="round" stroke-linejoin="round">
            <path d="M6.5,21 L0,23 L2,16.5 L14,4.5 L18.5,9 L6.5,21 L6.5,21 Z" id="Stroke-150" sketch:type="MSShapeGroup"></path>
            <path d="M14,4.5 L17.086,1.415 C17.864,0.637 19.136,0.637 19.914,1.415 L21.586,3.086 C22.364,3.865 22.364,5.137 21.586,5.915 L18.5,9" id="Stroke-151" sketch:type="MSShapeGroup"></path>
            <path d="M16.25,6.75 L5.5,17.5" id="Stroke-152" sketch:type="MSShapeGroup"></path>
            <path d="M2,16.5 L3,17.5 L5.5,17.5 L5.5,20 L6.5,21" id="Stroke-153" sketch:type="MSShapeGroup"></path>
            <path d="M1,20 L3,22" id="Stroke-154" sketch:type="MSShapeGroup"></path>
            <path d="M15.5,3 L20,7.5" id="Stroke-155" sketch:type="MSShapeGroup"></path>
        </g>
    </g>
</svg>