<?xml version="1.0" encoding="UTF-8" standalone="no"?>
<svg width="26px" height="21px" viewBox="0 0 26 21" version="1.1" xmlns="http://www.w3.org/2000/svg" xmlns:xlink="http://www.w3.org/1999/xlink" xmlns:sketch="http://www.bohemiancoding.com/sketch/ns">
    <!-- Generator: Sketch 3.3.2 (12043) - http://www.bohemiancoding.com/sketch -->
    <title>Fill 264</title>
    <desc>Created with Sketch.</desc>
    <defs></defs>
    <g id="Page-1" stroke="none" stroke-width="1" fill="none" fill-rule="evenodd" sketch:type="MSPage">
        <g id="Desktop-Copy-2" sketch:type="MSArtboardGroup" transform="translate(-521.000000, -373.000000)" fill="#000000">
            <g id="Fill-264-+-Fill-256" sketch:type="MSLayerGroup" transform="translate(521.000000, 370.000000)">
                <path d="M25.6502857,6.096 C24.72,6.51085714 23.936,6.52457143 23.104,6.11428571 C24.1771429,5.472 24.2262857,5.02171429 24.6137143,3.80685714 C23.6102857,4.40228571 22.4982857,4.83542857 21.3154286,5.06971429 C20.3691429,4.06057143 19.0182857,3.42857143 17.5257143,3.42857143 C14.6571429,3.42857143 12.3325714,5.75542857 12.3325714,8.62171429 C12.3325714,9.02971429 12.3782857,9.42628571 12.4662857,9.80571429 C8.14971429,9.58971429 4.32342857,7.52114286 1.76228571,4.37828571 C1.31542857,5.14628571 1.05828571,6.03885714 1.05828571,6.99085714 C1.05828571,8.79314286 1.976,10.3817143 3.36914286,11.3131429 C2.51771429,11.2857143 1.71771429,11.0525714 1.01714286,10.664 C1.016,10.6857143 1.016,10.7062857 1.016,10.7291429 C1.016,13.2457143 2.80685714,15.344 5.18285714,15.8217143 C4.42171429,16.0285714 3.61942857,16.0605714 2.83657143,15.9108571 C3.49828571,17.9737143 5.416,19.4754286 7.688,19.5177143 C5.46628571,21.2594286 2.71085714,21.9851429 0,21.6674286 C2.29828571,23.1405714 5.02742857,24 7.96,24 C17.5131429,24 22.7348571,16.0868571 22.7348571,9.224 C22.7348571,8.99771429 22.7314286,8.776 22.7211429,8.552 C23.7348571,7.82057143 24.9542857,7.13828571 25.6502857,6.096" id="Fill-264" sketch:type="MSShapeGroup"></path>
            </g>
        </g>
    </g>
</svg>