<?xml version="1.0" encoding="UTF-8" standalone="no"?>
<svg width="31px" height="30px" viewBox="0 0 31 30" version="1.1" xmlns="http://www.w3.org/2000/svg" xmlns:xlink="http://www.w3.org/1999/xlink" xmlns:sketch="http://www.bohemiancoding.com/sketch/ns">
    <!-- Generator: Sketch 3.3.2 (12043) - http://www.bohemiancoding.com/sketch -->
    <title>Imported Layers</title>
    <desc>Created with Sketch.</desc>
    <defs></defs>
    <g id="Page-1" stroke="none" stroke-width="1" fill="none" fill-rule="evenodd" sketch:type="MSPage">
        <g id="Desktop" sketch:type="MSArtboardGroup" transform="translate(-756.000000, -1164.000000)" fill="#8CC63F">
            <g id="Group" sketch:type="MSLayerGroup" transform="translate(280.000000, 1161.000000)">
                <g id="Imported-Layers" transform="translate(476.000000, 3.000000)" sketch:type="MSShapeGroup">
                    <path d="M21.7835484,30 L0.0290322581,30 L0.0290322581,0.142580645 L21.3222581,0.142580645 C26.8577419,0.142580645 30.3382258,3.28758065 30.3382258,8.31983871 C30.3382258,11.5487097 28.3253226,13.8551613 26.3125806,14.6519355 C28.6190323,15.5745161 30.7995161,17.7970968 30.7995161,21.571129 C30.7995161,27.0646774 27.0672581,30 21.7835484,30 L21.7835484,30 Z M20.9448387,4.21032258 L4.55790323,4.21032258 L4.55790323,12.765 L20.9448387,12.765 C23.8383871,12.765 25.8093548,11.2551613 25.8093548,8.48758065 C25.8093548,5.71983871 23.8383871,4.21032258 20.9448387,4.21032258 L20.9448387,4.21032258 Z M21.3641935,16.8324194 L4.55790323,16.8324194 L4.55790323,25.9322581 L21.3641935,25.9322581 C24.5093548,25.9322581 26.2704839,24.0032258 26.2704839,21.3614516 C26.2704839,18.7196774 24.5093548,16.8324194 21.3641935,16.8324194 L21.3641935,16.8324194 Z" id="Fill-1"></path>
                    <path d="M4.51612903,4.19354839 L19.0612903,4.19354839 L19.0641935,0.142580645 L0.0290322581,0.142580645 L0.0290322581,30 L19.0416129,30 L19.0445161,25.9677419 L4.51612903,25.9677419 L4.51612903,16.7741935 L16.9354839,16.7741935 L16.9354839,12.7419355 L4.51612903,12.7419355 L4.51612903,4.19354839" id="Fill-2"></path>
                    <path d="M4.51612903,0.142580645 L0.0290322581,0.142580645 L0.0290322581,30 L19.0416129,30 L19.0445161,25.9677419 L4.51612903,25.9677419 L4.51612903,16.7741935" id="Fill-3"></path>
                </g>
            </g>
        </g>
    </g>
</svg>