<?xml version="1.0" encoding="UTF-8" standalone="no"?>
<svg width="161px" height="40px" viewBox="0 0 161 40" version="1.1" xmlns="http://www.w3.org/2000/svg" xmlns:xlink="http://www.w3.org/1999/xlink" xmlns:sketch="http://www.bohemiancoding.com/sketch/ns">
    <!-- Generator: Sketch 3.3.2 (12043) - http://www.bohemiancoding.com/sketch -->
    <title>Group</title>
    <desc>Created with Sketch.</desc>
    <defs></defs>
    <g id="Page-1" stroke="none" stroke-width="1" fill="none" fill-rule="evenodd" sketch:type="MSPage">
        <g id="Desktop" sketch:type="MSArtboardGroup" transform="translate(-330.000000, -932.000000)">
            <g id="Rectangle-2-Copy-+-Group-Copy-Copy" sketch:type="MSLayerGroup" transform="translate(280.000000, 854.000000)">
                <g id="Group" transform="translate(50.000000, 78.000000)" sketch:type="MSShapeGroup">
                    <path id="Shape" fill="#FFFFFF" d="M82.4525926,23.3540741 C82.4781481,23.4237037 82.5025926,23.4933333 82.5214815,23.5644444 C82.4981481,23.4940741 82.4748148,23.4244444 82.4525926,23.3540741 C82.4781481,23.4237037 82.4525926,23.382963 82.4525926,23.3540741 L82.4525926,23.3540741 Z"></path>
                    <path d="M51.2785185,29.3762963 C53.217037,28.822963 54.6577778,27.7066667 55.5607407,25.8955556 C54.2592593,27.2037037 52.7348148,28.2533333 51.2785185,29.3762963 C52.1940741,29.1148148 51.9103704,28.8888889 51.2785185,29.3762963 C53.2162963,28.822963 52.0118519,28.8103704 51.2785185,29.3762963 L51.2785185,29.3762963 Z" id="Shape" fill="#FFFFFF"></path>
                    <path d="M137.638519,5.45851852 C137.438519,5.57259259 137.240741,5.68592593 137.041481,5.8 C137.557037,5.88444444 137.965926,5.71481481 138.268148,5.29111111 C138.057778,5.57333333 137.686667,5.49407407 137.638519,5.45851852 C137.427407,5.54222222 137.803704,5.58074074 137.638519,5.45851852 L137.638519,5.45851852 Z" id="Shape"></path>
                    <path id="Shape" fill="#FFFFFF" d="M143.66963,23.3540741 C143.700741,23.422963 143.724074,23.4933333 143.738519,23.5644444 C143.714074,23.4940741 143.692963,23.4244444 143.66963,23.3540741 C143.700741,23.422963 143.66963,23.382963 143.66963,23.3540741 L143.66963,23.3540741 Z"></path>
                    <path d="M124.705185,5.45851852 C124.506667,5.57259259 124.308889,5.68592593 124.11037,5.8 C124.627407,5.88518519 125.037778,5.71555556 125.341481,5.29111111 C125.126667,5.57407407 124.756296,5.49407407 124.705185,5.45851852 C124.496296,5.54814815 124.880741,5.58074074 124.705185,5.45851852 L124.705185,5.45851852 Z" id="Shape"></path>
                    <path d="M21.0533333,25.5918519 C20.9140741,25.6437037 20.8555556,24.8496296 20.3681481,25.157037 C19.8866667,25.4607407 20.6207407,26.5051852 20.7548148,26.797037 C21.5762963,26.1896296 21.2155556,26.0762963 21.0533333,25.5918519 C20.9844444,25.6177778 21.1414815,25.8555556 21.0533333,25.5918519 L21.0533333,25.5918519 Z" id="Shape" fill="#FFFFFF"></path>
                    <path d="M20.3466667,24.5377778 C20.3466667,24.4244444 19.317037,22.3377778 20.1118519,25.0385185 C20.4940741,24.8762963 20.3466667,24.537037 20.3466667,24.5377778 C20.3466667,24.2133333 20.3918519,24.7962963 20.3466667,24.5377778 L20.3466667,24.5377778 Z" id="Shape" fill="#FFFFFF"></path>
                    <path d="M59.2518519,21.66 C59.2725926,20.9822222 61.577037,9.89259259 59.7311111,10.5874074 C59.7311111,9.81851852 59.7148148,9.91185185 59.0066667,9.79185185 C59.8459259,9.19333333 57.8785185,8.58740741 57.6896296,9.79037037 C57.4733333,11.1740741 57.2911111,12.4081481 57.4088889,13.8281481 C57.5422222,15.4385185 57.4266667,17.0333333 57.4037037,18.6503704 C57.38,20.3096296 58.0948148,23.2311111 56.9903704,24.62 C55.7037037,26.2385185 51.3007407,30.2548148 49.1925926,29.837037 C45.9533333,29.1940741 44.6274074,26.5474074 44.0622222,23.5059259 C43.4059259,19.9718519 43.6985185,16.5948148 43.7266667,13.0437037 C43.7392593,11.4007407 45.2074074,9.52148148 42.9807407,10.3785185 C42.8125926,10.1303704 42.5903704,10.0940741 42.3125926,10.2688889 C41.7437037,10.5259259 42.2059259,11.5251852 42.242963,11.9503704 C42.3918519,13.6703704 41.7733333,15.5844444 41.7155556,17.3296296 C41.58,21.3992593 42.9214815,24.4918519 44.5111111,28.1051852 C40.6674074,25.5948148 40.5881481,20.5985185 40.9422222,16.5051852 C41.0451852,15.3066667 41.9651852,11.3711111 41.1207407,10.482963 C40.36,9.68222222 40.2044444,15.2185185 40.1422222,15.8607407 C39.6748148,20.7014815 39.9155556,26.6866667 44.837037,29.24 C47.2251852,30.4777778 48.78,31.557037 51.6814815,30.6466667 C53.8081481,29.9807407 56.2674074,29.2725926 57.6940741,27.4288889 C57.6940741,27.682963 58.1051852,31.7555556 58.6703704,30.482963 C59.3281481,29.2962963 58.9718519,26.4725926 59.1325926,25.137037 C59.1325926,26.8474074 59.1748148,28.5540741 59.4822222,30.242963 C59.6696296,31.2725926 60.7725926,31.857037 60.4192593,30.4451852 C60.037037,28.9177778 60.1281481,27.4014815 60.0555556,25.8444444 C59.9881481,24.4118519 59.2133333,23.0488889 59.2518519,21.66 C59.2637037,21.2555556 59.2407407,22.0548148 59.2518519,21.66 C59.2674074,21.1488889 59.2377778,22.1622222 59.2518519,21.66 L59.2518519,21.66 Z M54.8074074,28.1866667 C54.0637037,28.7422222 53.2014815,29.1222222 52.3125926,29.3755556 C53.7637037,28.2474074 55.2903704,27.2007407 56.5925926,25.8948148 C56.1177778,26.8451852 55.4903704,27.7140741 54.6133333,28.3311111 C54.7281481,28.2511111 55.2733333,27.8362963 54.8074074,28.1866667 C54.0637037,28.7422222 55.4881481,27.6748148 54.8074074,28.1866667 L54.8074074,28.1866667 Z" id="Shape" fill="#000000"></path>
                    <path d="M40.342963,20.1533333 C40.3051852,17.8111111 38.7481481,16.1251852 38.6933333,13.7985185 C38.6133333,10.417037 38.5118519,7.03333333 38.4874074,3.64962963 C38.4851852,3.31703704 38.8562963,0.862222222 37.8911111,1.20148148 C37.2140741,1.43925926 37.6444444,4.27851852 37.6511111,4.82666667 C37.6903704,8.13407407 37.7992593,11.4407407 37.882963,14.7474074 C37.3562963,13.1592593 37.9881481,11.4333333 37.5896296,9.84814815 C37.2340741,8.42888889 37.0659259,10.8244444 37.1251852,8.15111111 C37.1607407,6.54592593 37.0792593,4.93851852 36.8681481,3.34666667 C37.5844444,3.11407407 35.9348148,2.59555556 35.9718519,2.61777778 C35.7511111,3.66592593 35.8466667,4.43111111 35.7940741,5.49185185 C35.6674074,8.05185185 35.6111111,10.6140741 35.5533333,13.1762963 C35.08,12.8874074 34.5851852,12.6392593 34.0703704,12.4333333 C31.8681481,11.8503704 34.162963,12.0651852 33.1385185,11.5681481 C33.4192593,11.5918519 34.6837037,11.3274074 33.8725926,10.8577778 C33.0444444,10.3785185 31.342963,10.5911111 30.3977778,10.4881481 C27.0777778,10.1274074 24.7918519,11.2992593 22.5244444,13.697037 C20.3792593,15.9651852 19.5777778,17.8325926 19.5844444,21.002963 C19.5874074,22.4918519 19.7985185,24.1251852 20.1851852,25.3281481 C20.4488889,24.9644444 21.0385185,25.1118519 20.9762963,25.6059259 C20.9859259,25.2696296 20.9281481,24.9437037 20.802963,24.6311111 C22.3222222,27.3259259 26.3266667,29.0881481 29.2792593,29.417037 C26.3140741,30.0740741 22.7437037,29.3444444 21.3548148,26.3518519 C20.2259259,27.2281481 21.7637037,28.6111111 22.5822222,29.377037 C23.6688889,30.3718519 25.0844444,30.3318519 26.457037,30.2466667 C29.5274074,30.0555556 32.8148148,29.72 35.4688889,28.0192593 C35.4688889,31.0992593 36.3111111,29.5140741 36.3111111,27.4281481 C36.3111111,28.3 36.557037,29.2281481 36.4748148,30.0918519 C36.4622222,30.2259259 35.2074074,31.6948148 36.3111111,31.4518519 C38.2992593,30.9392593 36.577037,27.3296296 37.8459259,25.9851852 C37.8896296,27.3474074 37.817037,28.7207407 38.0059259,30.0748148 C37.9296296,30.3718519 38.0311111,30.5644444 38.3088889,30.6518519 C39.4859259,30.717037 39.1222222,29.5437037 39.1511111,28.5437037 C39.1896296,27.1933333 38.6266667,25.1377778 39.302963,23.9081481 C39.9688889,22.6992593 40.4037037,21.32 40.3414815,19.9281481 C40.3422222,19.9725926 40.3518519,20.5437037 40.342963,20.1533333 C40.322963,18.8688889 40.3555556,20.7140741 40.342963,20.1533333 L40.342963,20.1533333 Z M22.322963,17.2903704 C22.5948148,14.5903704 24.8051852,12.8903704 27.4192593,12.7118519 C24.922963,13.5155556 23.8822222,15.4177778 22.322963,17.2903704 C22.3562963,16.962963 22.322963,17.2903704 22.322963,17.2903704 L22.322963,17.2903704 Z M21.6911111,23.2503704 C21.2511111,22.3844444 21.0288889,21.4303704 21.0437037,20.4592593 C21.0585185,19.8192593 21.1548148,19.1911111 21.3325926,18.5755556 C21.2659259,17.7866667 21.5407407,17.4711111 22.157037,17.6311111 C21.0177778,19.9585185 21.5355556,22.7755556 22.8325926,24.922963 C22.3362963,24.3607407 21.9385185,23.7481481 21.602963,23.0785185 C21.6318519,23.1348148 21.92,23.702963 21.6911111,23.2503704 C20.7562963,21.4125926 21.997037,23.8555556 21.6911111,23.2503704 L21.6911111,23.2503704 Z M35.4911111,20.4074074 C35.5037037,22.322963 35.4962963,24.2392593 35.4674074,26.1548148 C34.9266667,27.2362963 31.7748148,27.597037 30.7377778,27.8051852 C27.5133333,28.4518519 24.1244444,26.5688889 22.9518519,23.5385185 C21.8162963,20.6037037 22.9622222,17.18 25.257037,15.1407407 C28.0444444,12.6622222 31.4325926,12.797037 34.7496296,13.8992593 C36.0881481,13.8992593 35.4777778,19.9259259 35.4955556,20.9562963 C35.4888889,20.5903704 35.4874074,20.2237037 35.4888889,19.8585185 C35.4896296,20.0414815 35.4903704,20.2237037 35.4911111,20.4074074 C35.5037037,22.3222222 35.4814815,18.4992593 35.4911111,20.4074074 L35.4911111,20.4074074 Z M37.2103704,23.9044444 C37.4296296,23.7133333 36.8103704,17.9103704 36.7822222,16.7466667 C37.6096296,18.7340741 38.0133333,21.8481481 37.2103704,23.9044444 C37.2355556,23.8822222 37.4533333,23.282963 37.2103704,23.9044444 C37.1451852,23.9614815 37.4318519,23.3362963 37.2103704,23.9044444 L37.2103704,23.9044444 Z" id="Shape" fill="#000000"></path>
                    <path d="M79.9222222,25.6540741 C79.5896296,27.2503704 77.6637037,27.8496296 76.3681481,28.4059259 C77.4096296,27.5185185 78.6407407,26.4014815 79.4274074,25.2666667 C80.2925926,24.0162963 78.4688889,24.5762963 78.0562963,24.837037 C77.54,23.8066667 75.062963,25.8548148 73.9355556,26.2644444 C72.0785185,26.9385185 69.8911111,27.3407407 67.9111111,27.1303704 C66.1088889,26.9392593 65.022963,26.1318519 64.1192593,24.5992593 C63.6851852,23.8622222 63.5948148,23.2022222 63.6518519,22.3540741 C63.6577778,22.2659259 63.5703704,21.422963 63.7592593,22.082963 C63.8785185,20.2740741 64.2725926,18.4637037 65.0348148,16.8140741 C65.4140741,15.9933333 65.8859259,15.2148148 66.4577778,14.5140741 C66.5762963,14.3703704 68.6711111,12.6103704 67.24,13.5111111 C69.3785185,11.4481481 70.8762963,12.0118519 73.3318519,12.7355556 C74.3466667,13.0340741 75.5185185,12.2118519 74.0977778,11.9459259 C73.0451852,11.7481481 72.2325926,10.9955556 71.1496296,10.8674074 C70.0592593,10.7385185 69.0407407,11.2666667 67.9555556,11.2666667 C69.9651852,10.0659259 73.6303704,10.3459259 75.6503704,11.6237037 C75.9844444,11.8348148 76.7688889,12.2096296 77.0162963,11.4459259 C77.0881481,11.2244444 75.6081481,10.0111111 75.3844444,9.8562963 C71.0696296,6.86296296 61.5696296,11.5051852 60.3288889,16.2548148 C58.9562963,21.5177778 60.7311111,27.2844444 65.4896296,29.8844444 C67.9748148,31.2422222 71.2074074,31.4740741 73.8392593,30.4688889 C75.8414815,29.7022222 81.1177778,28.3303704 79.9222222,25.6540741 C79.7992593,26.24 80.0474074,25.9385185 79.9222222,25.6540741 C79.6014815,27.1874074 80.077037,26.0007407 79.9222222,25.6540741 L79.9222222,25.6540741 Z M61.5688889,19.4362963 C61.4074074,20.1888889 61.3407407,20.9488889 61.3681481,21.7177778 C59.9444444,18.8859259 61.3666667,14.9792593 63.9955556,13.2674074 C62.6192593,14.9548148 62.0333333,17.6222222 61.5118519,19.6874074 C61.5488889,19.542963 61.7014815,18.8362963 61.5688889,19.4362963 C61.3962963,20.2037037 61.762963,18.5592593 61.5688889,19.4362963 L61.5688889,19.4362963 Z M62.9259259,21.6340741 C61.9844444,18.4096296 64.0740741,13.8022222 67.1074074,12.3355556 C64.4214815,14.5488889 63.0288889,19.1481481 62.8844444,21.2644444 C62.9718519,21.0259259 62.9851852,21.1496296 62.9259259,21.6340741 C62.6444444,20.6696296 62.982963,20.8014815 62.9259259,21.6340741 L62.9259259,21.6340741 Z M65.1074074,27.9318519 C64.7688889,27.5133333 64.4881481,27.0585185 64.2644444,26.5681481 C65.082963,27.3162963 66.157037,28.7348148 67.2133333,29.0488889 C66.3733333,29.0059259 65.6340741,28.5725926 65.1074074,27.9318519 C64.8459259,27.6088889 65.362963,28.2422222 65.1074074,27.9318519 C64.7696296,27.5155556 65.4333333,28.3281481 65.1074074,27.9318519 L65.1074074,27.9318519 Z M72.8214815,27.7496296 C71.017037,28.9911111 68.9577778,29.18 67.1985185,27.9066667 C69.3474074,28.36 71.5355556,27.8977778 73.6014815,27.2874074 C72.04,28.1866667 72.9540741,27.6637037 72.8214815,27.7496296 C72.0022222,28.3133333 73.0748148,27.5859259 72.8214815,27.7496296 L72.8214815,27.7496296 Z" id="Shape" fill="#000000"></path>
                    <path d="M61.0711111,20.7222222 C61.0711111,19.3933333 60.98,18.0362963 61.3348148,16.7377778 C60.1444444,19.0681481 60.5348148,21.8777778 61.32,24.22 C61.2392593,23.0540741 61.1903704,21.8851852 61.0711111,20.7222222 C61.0866667,20.8733333 61.1022222,21.0237037 61.1177778,21.1755556 C61.1022222,21.0244444 61.0866667,20.8733333 61.0711111,20.7222222 C61.0711111,19.3896296 61.1814815,21.7977778 61.0711111,20.7222222 L61.0711111,20.7222222 Z" id="Shape" fill="#FFFFFF"></path>
                    <path id="Shape" fill="#FFFFFF" d="M82.4733333,23.3118519 C82.5166667,23.217037 82.4966667,23.1733333 82.4111111,23.18 C82.4311111,23.2251852 82.4522222,23.2681481 82.4733333,23.3118519 C82.5166667,23.2177778 82.4333333,23.2548148 82.4733333,23.3118519 L82.4733333,23.3118519 Z"></path>
                    <path id="Shape" fill="#FFFFFF" d="M79.707541,25.1857699 C79.6519855,25.1502143 79.697541,25.1891032 79.707541,25.1857699 C79.707541,25.1857699 79.6964299,25.1891032 79.707541,25.1857699 L79.707541,25.1857699 Z"></path>
                    <path d="M80.5051852,25.6051852 C79.522963,25.3607407 80.2911111,26.5725926 80.4933333,26.8325926 C80.6407407,26.577037 81.0814815,25.7325926 80.5051852,25.6051852 C79.5222222,25.3607407 80.7274074,25.6540741 80.5051852,25.6051852 L80.5051852,25.6051852 Z" id="Shape" fill="#FFFFFF"></path>
                    <path d="M120.439259,15.9785185 C117.226667,8.89111111 108.115556,7.91259259 102.762222,13.0925926 C102.818519,9.81407407 102.875556,6.53555556 102.931852,3.25851852 C102.944444,2.49777778 104.188148,1.17777778 102.82963,0.363703704 C101.936296,-0.171851852 101.734815,6.35037037 101.732593,6.89851852 C101.716296,9.19037037 102.354074,13.1948148 101.102222,15.2074074 C101.117037,13.9777778 101.814815,1.92518519 100.602963,2.24518519 C100.100741,2.37777778 100.283704,12.057037 100.265926,13.5155556 C100.203704,17.8577778 100.200741,22.0881481 100.12963,26.4355556 C100.117037,27.1740741 99.4681481,30.622963 100.616296,30.8785185 C101.723704,31.1244444 101.586667,25.9733333 101.615556,25.4755556 C101.871852,26.1111111 101.418519,29.9540741 102.064444,30.0311111 C103.454815,30.1992593 102.759259,27.5962963 102.759259,26.7022222 C106.333333,30.28 112.514815,30.7059259 116.908889,28.4459259 C121.616296,26.0237037 122.01037,20.0918519 120.334074,15.7451852 C120.385926,15.88 120.688889,16.517037 120.439259,15.9785185 C119.745926,14.4496296 120.804444,16.7659259 120.439259,15.9785185 L120.439259,15.9785185 Z M103.379259,24.9681481 C102.111852,22.5451852 102.635556,14.9111111 106.152593,14.5785185 C102.254074,18.1874074 101.765185,24.4266667 106.24,27.8511111 C104.860741,27.1318519 103.914815,25.9896296 103.203704,24.6340741 C103.319259,24.857037 103.434815,25.08 103.552593,25.3014815 C103.495556,25.1896296 103.437778,25.0785185 103.379259,24.9681481 C102.442222,23.1755556 104.044444,26.2377778 103.379259,24.9681481 L103.379259,24.9681481 Z M119.50963,23.097037 C115.943704,31.537037 101.03037,28.8385185 104.228148,19 C104.914815,16.8888889 106.422963,15.0088889 108.302963,13.8407407 C110.394815,12.5414815 113.124444,13.5318519 115.142963,14.6281481 C117.961481,16.1585185 121.477037,19.8933333 119.391852,23.3659259 C119.471852,23.2355556 119.767407,22.4503704 119.50963,23.097037 C117.885926,26.9377778 119.880741,22.1622222 119.50963,23.097037 L119.50963,23.097037 Z M120.065926,17.5481481 C119.357778,15.6540741 117.416296,14.1266667 115.774815,13.0725926 C113.648148,11.7066667 113.791852,11.3340741 111.188148,11.6081481 C106.908148,12.0592593 104.175556,13.9303704 102.640741,18.0059259 C102.640741,15.7066667 102.317778,14.0637037 104.301481,12.6385185 C106.318519,11.1888889 108.708148,10.4533333 111.199259,10.642963 C115.40963,10.962963 119.631111,14.1325926 120.439259,18.3955556 C120.337778,18.242963 119.961481,17.1444444 120.065926,17.5481481 C119.599259,16.3007407 120.146667,17.8622222 120.065926,17.5481481 L120.065926,17.5481481 Z" id="Shape" fill="#000000"></path>
                    <path d="M125.554815,9.32518519 C123.983704,8.92814815 124.34,11.9133333 124.242963,13.0133333 C124.137037,12.2518519 124.314074,10.9348148 123.955556,10.2355556 C123.453333,9.25481481 123.137778,11.0681481 123.141481,11.2140741 C123.214074,13.5607407 123.591111,15.8844444 123.606667,18.2525926 C123.622963,20.8133333 124.031111,23.9422222 123.523704,26.4533333 C123.421481,26.9585185 122.2,30.3562963 123.778519,30.0481481 C124.50963,28.737037 123.963704,27.262963 124.582963,26.0222222 C124.582963,27.3437037 123.720741,30.1451852 125.340741,30.3066667 C125.759259,23.4355556 126.017037,16.1955556 125.554815,9.32518519 C125.538519,9.32074074 125.473333,10.2148148 125.586667,10.2437037 C125.602963,9.93777778 125.593333,9.63111111 125.554815,9.32518519 C125.277037,9.25555556 125.694815,11.4096296 125.554815,9.32518519 L125.554815,9.32518519 Z" id="Shape" fill="#000000"></path>
                    <path d="M132.883704,27.4274074 C132.766667,23.2296296 132.317037,19.1125926 131.894074,14.942963 C131.457037,10.6303704 132.338519,6.2637037 132.38,1.94148148 C131.67037,2.06592593 131.445926,1.86222222 131.445926,2.70592593 C131.401481,2.2362963 131.476296,1.49555556 131.237037,1.06888889 C130.86963,0.411851852 130.466667,1.34148148 130.502222,1.67703704 C130.774815,4.25555556 130.702963,6.85333333 130.775556,9.44148148 C130.91037,14.3488889 130.658519,19.397037 130.174074,24.2866667 C129.771852,17.9503704 130.16963,11.5222222 130.256296,5.17777778 C130.271111,4.1237037 130.711852,2.09111111 130.242963,1.09777778 C129.61037,-0.244444444 129.419259,2.96814815 129.417778,3.04518519 C129.371111,6.05259259 129.312593,9.06 129.277037,12.0674074 C129.239259,15.2481481 129.24963,18.4281481 129.271111,21.6096296 C129.282963,23.2533333 128.798519,29.2992593 130.43037,29.8177778 C131,29.9985185 130.225926,30.5488889 131.371852,30.4385185 C131.545926,30.4222222 131.604444,27.8903704 131.596296,28.1762963 C131.691852,25.1518519 131.537037,22.0977778 131.537037,19.0703704 C131.742222,20.962963 131.906667,22.8614815 131.981481,24.7644444 C132.025185,25.86 131.682222,27.9637037 132.177037,28.9681481 C132.719259,30.0674074 133.18,28.4688889 133.211111,28.1296296 C133.287407,27.3155556 132.688889,27.3740741 132.883704,27.4274074 C132.805185,24.6340741 133.083704,27.4822222 132.883704,27.4274074 L132.883704,27.4274074 Z" id="Shape" fill="#000000"></path>
                    <path d="M138.487407,9.32518519 C136.913333,8.94666667 137.268148,11.897037 137.17037,13.0133333 C137.080741,12.2644444 137.24,10.9214815 136.883704,10.2348148 C136.374074,9.25333333 136.071852,11.0777778 136.076296,11.217037 C136.145185,13.562963 136.527407,15.8866667 136.544444,18.2533333 C136.560741,20.8207407 136.951852,23.9355556 136.448148,26.4548148 C136.371111,26.8437037 135.188148,30.4977778 136.701481,30.0488889 C137.464444,28.7548148 136.841481,27.2081481 137.511852,26.022963 C137.511852,27.34 136.657037,30.1459259 138.268889,30.3074074 C138.702963,23.44 138.945185,16.1918519 138.487407,9.32518519 C138.46,9.31851852 138.405926,10.217037 138.517037,10.2437037 C138.535556,9.93777778 138.527407,9.63111111 138.487407,9.32518519 C138.208889,9.25851852 138.626667,11.4096296 138.487407,9.32518519 L138.487407,9.32518519 Z" id="Shape" fill="#000000"></path>
                    <path id="Shape" fill="#FFFFFF" d="M143.688148,23.3118519 C143.737037,23.217037 143.717037,23.1733333 143.632593,23.18 C143.652593,23.2251852 143.67037,23.2681481 143.688148,23.3118519 C143.737037,23.2177778 143.653704,23.2548148 143.688148,23.3118519 L143.688148,23.3118519 Z"></path>
                    <path d="M43.5925926,38.3688889 C38.1437037,37.3007407 31.9681481,38.0022222 26.4296296,38.0059259 C26.5837037,39.5044444 38.9140741,38.3851852 40.6081481,38.5222222 C37.6,38.8318519 34.5511111,38.7955556 31.5311111,38.7977778 C30.9911111,38.7977778 25.92,38.14 26.222963,39.5592593 C26.3,39.8933333 37.0962963,39.6577778 38.2681481,39.6251852 C40.4259259,39.5659259 42.9303704,39.9362963 45.0222222,39.2940741 C46.5162963,38.8333333 43.1896296,38.1985185 43.1948148,38.2674074 C43.3377778,38.2562963 43.4711111,38.2903704 43.5925926,38.3688889 C40.7377778,37.8088889 43.5844444,38.26 43.5925926,38.3688889 L43.5925926,38.3688889 Z" id="Shape" fill="#C4D367"></path>
                    <path d="M91.3133333,38.8340741 C96.782963,39.8674074 102.923704,39.2 108.476296,39.1962963 C108.304444,37.6777778 96.0051852,38.82 94.2977778,38.677037 C97.2940741,38.2859259 100.361481,38.4081481 103.374815,38.4037037 C103.954074,38.402963 108.976296,39.0659259 108.687407,37.6407407 C108.596296,37.3051852 104.565926,37.8222222 104.085185,37.7303704 C101.62963,37.257037 99.1155556,37.5103704 96.637037,37.577037 C94.4792593,37.6348148 91.9748148,37.2666667 89.882963,37.9088889 C88.3851852,38.3688889 91.717037,38.9992593 91.7111111,38.9340741 C91.5688889,38.9444444 91.4355556,38.9111111 91.3133333,38.8340741 C94.1740741,39.3740741 91.322963,38.9414815 91.3133333,38.8340741 L91.3133333,38.8340741 Z" id="Shape" fill="#E66D69"></path>
                    <path d="M87.1444444,37.48 C86.4385185,36.3762963 78.9933333,37.1496296 77.5140741,37.1577778 C74.8814815,37.1733333 72.2185185,37.3844444 69.597037,37.6177778 C68.4474074,37.7207407 65.6474074,38.1437037 68.2088889,38.5096296 C67.2792593,38.5844444 66.5844444,38.5511111 65.6874074,38.4096296 C64.4748148,38.217037 65.3118519,39.2311111 66.1792593,39.2422222 C69.1022222,39.2748148 71.9977778,38.9474074 74.94,39.0807407 C78.0888889,39.2237037 80.977037,38.4911111 84.0866667,38.2051852 C85.0688889,38.1148148 86.2362963,38.6607407 87.1177778,38.3118519 C87.7207407,38.0711111 87.4311111,37.5651852 87.1444444,37.48 C86.9562963,37.1866667 87.3192593,37.5318519 87.1444444,37.48 L87.1444444,37.48 Z M76.2533333,38.4933333 C75.037037,38.5822222 73.8222222,38.4911111 72.6111111,38.3911111 C74.3844444,38.282963 75.9822222,38.1755556 77.7622222,38.3318519 C77.4,38.3844444 75.8785185,38.5185185 76.2533333,38.4933333 C75.0140741,38.5844444 76.7488889,38.46 76.2533333,38.4933333 L76.2533333,38.4933333 Z M78.082963,38.5659259 C77.9903704,38.0807407 78.5807407,38.4081481 79.1985185,38.437037 C78.8274074,38.48 78.4548148,38.522963 78.082963,38.5659259 C78.0614815,38.4525926 78.082963,38.5659259 78.082963,38.5659259 L78.082963,38.5659259 Z M79.9459259,37.9592593 C79.6274074,37.942963 79.3096296,37.9244444 78.9911111,37.9074074 C80.0762963,37.8822222 81.1614815,37.8392593 82.2481481,37.877037 C82.6896296,37.8377778 79.2348148,37.9488889 80.0414815,37.9622222 C80.3437037,37.9666667 80.3111111,37.9659259 79.9459259,37.9592593 C79.6274074,37.9592593 80.6955556,37.9725926 79.9459259,37.9592593 L79.9459259,37.9592593 Z" id="Shape" fill="#6EB6BF"></path>
                    <path d="M138.126667,38.8740741 C138.471111,39.5355556 141.448148,39.1518519 141.948148,39.1407407 C144.565926,39.0851852 147.18,39.2918519 149.799259,39.1451852 C151.959259,39.0237037 154.14963,38.9311111 156.296296,38.6792593 C157.602963,38.5274074 159.315556,38.1503704 157.054074,37.8488889 C157.984444,37.7703704 158.678519,37.8059259 159.577037,37.9474074 C160.788148,38.137037 159.957778,37.122963 159.086667,37.1162963 C156.16,37.0940741 153.268889,37.4214815 150.326667,37.2740741 C147.221481,37.1185185 144.373333,37.8451852 141.311852,38.1407407 C140.466667,38.2214815 138.837778,37.6162963 138.16963,38.0044444 C137.638519,38.3140741 137.777778,38.7814815 138.126667,38.8740741 C138.328889,39.2637037 137.948148,38.8274074 138.126667,38.8740741 L138.126667,38.8740741 Z M149.008889,37.8674074 C150.224444,37.7666667 151.437778,37.8674074 152.64963,37.9659259 C150.874815,38.097037 149.279259,38.1792593 147.500741,38.0222222 C147.863704,37.9718519 149.385926,37.8422222 149.008889,37.8674074 C150.245926,37.7644444 148.511852,37.9 149.008889,37.8674074 L149.008889,37.8674074 Z M147.182963,37.7925926 C147.26963,38.2748148 146.673333,37.9607407 146.062963,37.9237037 C146.436296,37.88 146.80963,37.8362963 147.182963,37.7925926 C147.203704,37.9044444 147.182963,37.7925926 147.182963,37.7925926 L147.182963,37.7925926 Z M145.322963,38.4007407 C145.64,38.417037 145.955556,38.4325926 146.272593,38.4488889 C145.188889,38.477037 144.103704,38.5192593 143.019259,38.4807407 C142.582222,38.52 146.028148,38.4125926 145.225926,38.3955556 C144.924444,38.3911111 144.956296,38.3925926 145.322963,38.4007407 C145.637778,38.3940741 144.572593,38.3851852 145.322963,38.4007407 L145.322963,38.4007407 Z" id="Shape" fill="#C4D367"></path>
                    <path d="M24.6822222,39.1851852 C25.0740741,38.36 20.6577778,38.3207407 19.9022222,38.1748148 C17.4059259,37.6903704 14.8837037,37.5274074 12.3414815,37.5266667 C9.66592593,37.5259259 6.99555556,37.717037 4.32740741,37.8903704 C4.04666667,37.9081481 0.0748148148,37.8844444 0.762962963,38.8637037 C1.30148148,39.6303704 6.04,39.197037 7.01259259,39.1148148 C9.55925926,38.8985185 12.0725926,38.9533333 14.622963,39.0696296 C16.9155556,39.1755556 19.1822222,39.0985185 21.4711111,39.1274074 C22.5940741,39.142963 23.6977778,39.5281481 24.6822222,39.1851852 C24.9244444,38.6733333 24.5948148,39.2155556 24.6822222,39.1851852 L24.6822222,39.1851852 Z M12.0703704,38.4637037 C9.01851852,38.3874074 5.97407407,38.6118519 2.91777778,38.5311111 C8.21703704,37.72 14.1096296,38.0637037 19.4155556,38.6622222 C16.8118519,38.7096296 14.2162963,38.5177778 11.6148148,38.4533333 C11.7666667,38.4562963 11.9185185,38.4592593 12.0703704,38.4637037 C10.2814815,38.4192593 12.0703704,38.4637037 12.0703704,38.4637037 L12.0703704,38.4637037 Z" id="Shape" fill="#6EB6BF"></path>
                    <path d="M111.412593,37.7777778 C110.968889,38.5577778 115.471111,38.6459259 116.19037,38.7866667 C118.682963,39.2748148 121.20963,39.4348148 123.748148,39.4325926 C126.422963,39.4311111 129.092593,39.2303704 131.761481,39.0725926 C131.91037,39.0637037 136.045926,39.0703704 135.328889,38.1 C134.757778,37.3259259 130.071111,37.7614815 129.077037,37.8466667 C126.527407,38.0666667 124.016296,38.0118519 121.462222,37.8933333 C119.17037,37.7874074 116.906667,37.8622222 114.619259,37.8348148 C113.511111,37.8207407 112.391852,37.4074074 111.412593,37.7777778 C111.125926,38.282963 111.497037,37.7466667 111.412593,37.7777778 L111.412593,37.7777778 Z M121.703704,38.6940741 C120.025185,38.6162963 118.34963,38.4933333 116.68,38.3007407 C122.145926,38.2222222 127.712593,38.2518519 133.174815,38.4340741 C129.353333,39.0088889 125.180741,38.8222222 121.331852,38.677037 C121.454815,38.6822222 121.579259,38.6881481 121.703704,38.6940741 C120.024444,38.6155556 121.703704,38.6940741 121.703704,38.6940741 L121.703704,38.6940741 Z" id="Shape" fill="#F4C156"></path>
                    <path d="M50.1577778,38.6185185 C49.14,38.5837037 48.1214815,38.5651852 47.1037037,38.5659259 C47.3511111,37.6111111 54.3903704,37.9755556 55.7681481,37.9044444 C57.1451852,37.8348148 63.4940741,36.7237037 64.0696296,38.1007407 C59.8014815,38.0185185 55.6111111,38.5792593 51.4014815,39.0022222 C53.9037037,39.0022222 56.4074074,38.9222222 58.9,38.6940741 C59.9874074,38.5985185 61.0748148,38.3948148 62.1422222,38.2814815 C62.6733333,38.1977778 63.0162963,38.8481481 62.7340741,38.8481481 C57.5103704,38.8481481 52.2414815,39.5466667 46.9814815,39.5466667 C47.2607407,38.4748148 49.1081481,38.717037 50.1577778,38.6185185 C49.9614815,38.6007407 49.7696296,38.6133333 49.5807407,38.6592593 C49.7733333,38.6459259 49.9651852,38.6325926 50.1577778,38.6185185 C49.1392593,38.5844444 49.1014815,38.7177778 50.1577778,38.6185185 L50.1577778,38.6185185 Z" id="Shape" fill="#F4C156"></path>
                    <path d="M139.922222,5.08296296 C139.440741,3.68296296 137.37037,4.52296296 136.622222,5.03703704 C137.171852,4.26518519 137.974815,4.4 138.631852,3.87703704 C139.531111,3.16074074 137.478519,3.26148148 137.182222,3.39481481 C136.337037,3.77333333 134.638519,5.78444444 136.011111,6.54444444 C137.268148,7.24222222 140.256296,6.3637037 139.922222,5.08296296 C139.762963,4.61925926 139.98,5.30518519 139.922222,5.08296296 L139.922222,5.08296296 Z M137.72,5.75555556 C137.494074,5.77037037 137.268889,5.78518519 137.042222,5.8 C137.411111,5.54 138.025185,5.60740741 138.268889,5.29037037 C138.385185,5.08888889 137.66963,5.76222222 137.72,5.75555556 C137.495556,5.78962963 137.917037,5.72888889 137.72,5.75555556 L137.72,5.75555556 Z" id="Shape" fill="#F4C156"></path>
                    <path d="M127.021481,5.08296296 C126.541481,3.68444444 124.46963,4.52074074 123.722963,5.03703704 C124.271111,4.26222222 125.075556,4.40148148 125.732593,3.87777778 C126.631852,3.16074074 124.580741,3.26222222 124.285185,3.39481481 C123.439259,3.77407407 121.742222,5.78814815 123.116296,6.54814815 C124.37037,7.24148148 127.357037,6.35777778 127.021481,5.08296296 C126.862222,4.62 127.079259,5.30518519 127.021481,5.08296296 L127.021481,5.08296296 Z M124.822222,5.75555556 C124.596296,5.77037037 124.371111,5.78518519 124.145185,5.8 C124.503704,5.55259259 125.128889,5.59925926 125.366667,5.29037037 C124.46,6.89185185 124.788889,5.76 124.822222,5.75555556 C124.597778,5.79037037 125.018519,5.72888889 124.822222,5.75555556 L124.822222,5.75555556 Z" id="Shape" fill="#C4D367"></path>
                    <path id="Shape" fill="#FFFFFF" d="M8.26222222,27.2219124 C8.47185185,27.2308013 8.68148148,27.217468 8.89185185,27.217468 C8.63555556,27.1963569 8.2837037,27.1808013 8.26222222,27.2219124 C8.47259259,27.2308013 8.27185185,27.2030235 8.26222222,27.2219124 L8.26222222,27.2219124 Z"></path>
                    <path id="Shape" fill="#FFFFFF" d="M6.8076436,26.7235692 C6.76653248,26.6902359 6.60319915,26.6080136 6.8076436,26.7235692 C6.8076436,26.7235692 6.77542137,26.7057914 6.8076436,26.7235692 L6.8076436,26.7235692 Z"></path>
                    <path d="M20.1844444,25.3274074 C17.077037,27.5496296 13.9548148,29.0007407 10.0459259,28.102963 C12.3251852,28.102963 14.5888889,27.7718519 16.7340741,26.982963 C16.9962963,26.8866667 20.1822222,24.3407407 20.1014815,25.0274074 C20.342963,22.9637037 18.2325926,24.6844444 17.6711111,25.257037 C16.3659259,26.5859259 14.4622222,26.8925926 12.6807407,27.0933333 C9.01925926,27.5088889 6.53851852,27.4896296 4.42074074,24.202963 C1.96518519,20.3911111 2.56222222,16.3037037 6.03333333,13.4237037 C9.04074074,10.9288889 12.5733333,10.7592593 15.7659259,12.9244444 C12.6674074,15.8103704 9.62666667,19.2577778 7.00148148,22.5777778 C7.7837037,22.9688889 7.61111111,23.2659259 7.45407407,24.1711111 C8.07925926,23.6762963 8.70074074,23.177037 9.31925926,22.6740741 C8.77481481,23.4533333 8.25703704,24.2496296 7.75407407,25.0562963 C9.17925926,25.1837037 9.89407407,23.3696296 10.5162963,22.3725926 C11.4555556,20.8711111 12.6748148,19.8251852 13.982963,18.6488889 C12.5392593,20.7377778 10.9733333,22.7392593 9.32148148,24.6674074 C10.4977778,24.2881481 10.082963,25.0837037 11.0540741,23.9081481 C12.0259259,22.7288889 12.962963,21.5207407 13.8496296,20.2762963 C14.7585185,19 15.4851852,17.5414815 16.5148148,16.3577778 C16.9274074,15.9118519 17.3592593,15.4844444 17.8096296,15.077037 C18.222963,14.6851852 17.5444444,14.1266667 17.1651852,14.4962963 C17.3711111,14.1607407 17.2992593,13.9185185 16.9481481,13.7703704 C17.2592593,13.3851852 17.5992593,13.0281481 17.9674074,12.6977778 C17.942963,12.7185185 20.3007407,10.66 18.8585185,11.057037 C19.3318519,10.1925926 14.0007407,9.96 13.4518519,9.90148148 C7.10962963,9.2362963 0.346666667,13.8918519 0.99037037,20.9133333 C1.39777778,25.3614815 3.80666667,29.1681481 8.22222222,30.7 C10.7614815,31.5807407 13.3533333,31.4681481 15.5896296,29.9222222 C16.6207407,29.2096296 17.7955556,28.8059259 18.8540741,28.1296296 C20.4681481,27.0985185 20.7585185,27.1192593 20.1844444,25.3274074 C20.2162963,25.4259259 20.3422222,25.8207407 20.1844444,25.3274074 C19.2696296,25.9814815 20.3444444,25.8274074 20.1844444,25.3274074 L20.1844444,25.3274074 Z M6.56444444,27.8496296 C3.86296296,26.3266667 2.11333333,24.2259259 2.11333333,20.9785185 C2.38296296,22.7325926 3.21037037,24.3496296 4.36074074,25.6888889 C4.64222222,26.0333333 6.79555556,27.6444444 6.56444444,27.8496296 C5.48888889,27.2437037 6.56444444,27.7977778 6.56444444,27.8496296 L6.56444444,27.8496296 Z" id="Shape" fill="#000000"></path>
                    <path id="Shape" fill="#FFFFFF" d="M9.55555556,27.2821969 C9.51185185,27.1721969 9.1,27.2155302 8.89185185,27.213308 C9.11333333,27.2355302 9.33407407,27.2588635 9.55555556,27.2821969 C9.51185185,27.173308 9.55555556,27.2821969 9.55555556,27.2821969 L9.55555556,27.2821969 Z"></path>
                    <path id="Shape" fill="#FFFFFF" d="M143.402222,23.3540741 C143.425556,23.4244444 143.448889,23.4940741 143.474444,23.5644444 C143.451111,23.4940741 143.424444,23.4244444 143.402222,23.3540741 C143.422222,23.4244444 143.402222,23.382963 143.402222,23.3540741 L143.402222,23.3540741 Z"></path>
                    <path d="M156.639259,16.9577778 C156.376296,16.2022222 156.301481,15.0881481 156.102222,14.2585185 C156.281481,15.1585185 156.371852,16.0777778 156.639259,16.9577778 C156.732593,17.2244444 156.628889,16.9244444 156.639259,16.9577778 L156.639259,16.9577778 Z" id="Shape" fill="#FFFFFF"></path>
                    <path d="M159.280741,26.26 C159.088148,21.897037 159.542222,17.3140741 157.776296,13.1962963 C156.023704,9.06074074 152.857037,8.63925926 148.774815,8.86 C146.991111,8.9562963 145.204444,9.48148148 143.512593,10.0266667 C143.058519,10.1733333 139.855556,12.2244444 140.774074,13.0244444 C141.914815,14.0177778 143.845185,12.3881481 144.84,11.8311111 C146.866667,10.6962963 149.313333,10.2259259 151.617778,10.5533333 C160.512593,11.8237037 156.44,25.6496296 150.205926,28.0207407 C145.874074,29.6688889 143.102222,26.4140741 144.728148,22.1103704 C146.280741,18.0051852 150.585185,17.5325926 154.196296,19.0711111 C153.4,16.5903704 149.942963,17.2985185 147.997037,17.8437037 C145.441481,18.5607407 143.760741,20.8592593 143.45037,23.44 C142.33037,20.9592593 143.868148,18.3207407 146.551852,17.08 C148.138519,16.3459259 149.58963,15.9659259 151.334074,16.3162963 C152.557037,16.5622222 153.932593,18.1385185 154.934815,17.422963 C152.284444,14.0733333 149.456296,13.7362963 145.536296,15.56 C141.757778,17.3192593 139.705926,20.3207407 140.511852,24.4814815 C140.788148,25.9022222 141.371111,27.0237037 142.548889,27.9274074 C144,29.0437037 145.72,30.5651852 147.563704,30.9577778 C150.881481,31.6659259 156.631852,29.8118519 157.902963,26.3614815 C158.02,27.6807407 157.73037,28.8474074 157.536296,30.1355556 C157.445926,30.7325926 158.073333,32.522963 158.777778,31.2325926 C159.532593,29.8518519 159.245185,27.5333333 159.271111,25.9955556 C159.268148,26.1451852 159.314815,26.8903704 159.280741,26.26 C159.08963,21.9162963 159.33037,27.18 159.280741,26.26 L159.280741,26.26 Z M141.662963,24.1644444 C140.893333,22.7177778 141.802222,20.9340741 142.515556,19.6711111 C141.857778,21.7644444 142.688889,24.4851852 143.195556,26.5407407 C142.575556,25.8266667 142.079259,25.0118519 141.662963,24.1644444 C141.727407,24.2851852 141.785185,24.4111111 141.842963,24.5348148 C141.783704,24.4111111 141.722963,24.2874074 141.662963,24.1644444 C140.924444,22.7762963 142.117778,25.0911111 141.662963,24.1644444 L141.662963,24.1644444 Z M143.45037,23.5644444 C143.433333,23.4940741 143.415556,23.4244444 143.402222,23.3540741 C143.417037,23.4244444 143.434815,23.4940741 143.45037,23.5644444 C143.433333,23.4948148 143.45037,23.5644444 143.45037,23.5644444 L143.45037,23.5644444 Z M156.951111,23.6481481 C156.574074,26.3044444 154.459259,28.4540741 151.931852,29.2022222 C154.171852,27.8288889 156.397778,23.5703704 156.51037,20.8518519 C157.162963,21.7192593 157.011852,22.9044444 156.917037,23.9022222 C156.928889,23.757037 157.04,23.0488889 156.951111,23.6481481 C156.572593,26.3140741 157.082222,22.7725926 156.951111,23.6481481 L156.951111,23.6481481 Z M158.034074,20.3444444 C157.64963,18.3111111 157.527407,16.2266667 156.934815,14.2355556 C157.806667,16.0118519 157.715556,19.56 158.034074,20.3444444 C157.648889,18.3059259 158.034074,20.3444444 158.034074,20.3444444 L158.034074,20.3444444 Z" id="Shape" fill="#000000"></path>
                    <path id="Shape" fill="#FFFFFF" d="M82.4259259,23.3540741 C82.4548148,23.422963 82.4759259,23.4933333 82.487037,23.5644444 C82.467037,23.4940741 82.447037,23.4244444 82.4259259,23.3540741 C82.4559259,23.422963 82.4259259,23.382963 82.4259259,23.3540741 L82.4259259,23.3540741 Z"></path>
                    <path id="Shape" fill="#FFFFFF" d="M82.4455556,23.3118519 C82.4955556,23.2162963 82.4744444,23.1725926 82.3866667,23.18 C82.4077778,23.2251852 82.4277778,23.2681481 82.4455556,23.3118519 C82.4955556,23.217037 82.4077778,23.2548148 82.4455556,23.3118519 L82.4455556,23.3118519 Z"></path>
                    <path id="Shape" fill="#FFFFFF" d="M82.1562963,23.3540741 C82.1796296,23.4244444 82.202963,23.4933333 82.2251852,23.5644444 C82.202963,23.4940741 82.1796296,23.4244444 82.1562963,23.3540741 C82.1796296,23.4244444 82.1562963,23.382963 82.1562963,23.3540741 L82.1562963,23.3540741 Z"></path>
                    <path d="M95.3888889,16.9577778 C95.0822222,16.3874074 95.0251852,14.9666667 94.8562963,14.2585185 C95.0355556,15.1585185 95.2711111,16.0474074 95.3888889,16.9577778 C95.517037,17.1940741 95.3859259,16.9244444 95.3888889,16.9577778 L95.3888889,16.9577778 Z" id="Shape" fill="#FFFFFF"></path>
                    <path d="M98.04,26.26 C97.82,21.8940741 98.2718519,17.3259259 96.5340741,13.1962963 C94.7237037,9.0762963 91.6555556,8.63703704 87.5296296,8.86 C85.7451852,8.9562963 83.9577778,9.48148148 82.2651852,10.0274074 C81.8066667,10.1755556 78.6148148,12.2192593 79.5333333,13.0244444 C80.6674074,14.0207407 82.6044444,12.3844444 83.5955556,11.8296296 C85.6214815,10.6962963 88.0674074,10.2244444 90.3718519,10.5525926 C99.2666667,11.8214815 95.1955556,25.6466667 88.96,28.02 C84.6237037,29.6711111 81.8592593,26.4125926 83.4822222,22.1096296 C85.0311111,18.0044444 89.3414815,17.5296296 92.9511111,19.0703704 C92.1481481,16.5911111 88.6992593,17.2955556 86.7488889,17.842963 C84.2,18.5592593 82.5059259,20.86 82.202963,23.4392593 C81.1466667,20.9311111 82.5777778,18.3451852 85.3059259,17.08 C86.8918519,16.3444444 88.3444444,15.9644444 90.0888889,16.3155556 C91.3111111,16.5614815 92.6866667,18.1377778 93.6896296,17.4222222 C91.0414815,14.0740741 88.2059259,13.7311111 84.2888889,15.5592593 C80.5074074,17.3251852 78.4688889,20.3155556 79.2666667,24.4792593 C79.5392593,25.9 80.1266667,27.0259259 81.3037037,27.9288889 C82.7562963,29.042963 84.4748148,30.5659259 86.3192593,30.957037 C89.6355556,31.662963 95.3866667,29.8118519 96.6585185,26.3614815 C96.7725926,27.6837037 96.48,28.8459259 96.2896296,30.1355556 C96.2022222,30.7318519 96.8407407,32.5266667 97.5340741,31.2333333 C98.2185185,29.9577778 98.1333333,27.442963 98.0251852,25.9955556 C98.037037,26.1466667 98.0688889,26.8888889 98.04,26.26 C97.82,21.897037 98.0822222,27.18 98.04,26.26 L98.04,26.26 Z M80.4207407,24.1644444 C79.6266667,22.7318519 80.5666667,20.9296296 81.2703704,19.6711111 C80.62,21.7622222 81.4362963,24.4888889 81.9503704,26.5407407 C81.3311111,25.8259259 80.8377778,25.0103704 80.4207407,24.1644444 C80.4866667,24.2837037 80.5437037,24.4111111 80.6014815,24.5348148 C80.5407407,24.4111111 80.48,24.2874074 80.4207407,24.1644444 C79.6607407,22.7933333 80.877037,25.0911111 80.4207407,24.1644444 L80.4207407,24.1644444 Z M82.2037037,23.5644444 C82.1881481,23.4933333 82.1718519,23.4244444 82.1577778,23.3540741 C82.1718519,23.4244444 82.1874074,23.4940741 82.2037037,23.5644444 C82.1874074,23.4940741 82.2037037,23.5644444 82.2037037,23.5644444 L82.2037037,23.5644444 Z M95.7081481,23.6481481 C95.3311111,26.3059259 93.2118519,28.4555556 90.6837037,29.2022222 C92.9266667,27.8311111 95.1525926,23.5696296 95.2651852,20.8518519 C95.9074074,21.6777778 95.8074074,22.937037 95.6733333,23.9022222 C95.6933333,23.757037 95.7925926,23.0503704 95.7081481,23.6481481 C95.3296296,26.3140741 95.8325926,22.7725926 95.7081481,23.6481481 L95.7081481,23.6481481 Z M96.7874074,20.3444444 C96.3911111,18.3140741 96.28,16.2266667 95.6851852,14.2355556 C96.5681481,16.0214815 96.4696296,19.542963 96.7874074,20.3444444 C96.3896296,18.3059259 96.7874074,20.3444444 96.7874074,20.3444444 L96.7874074,20.3444444 Z" id="Shape" fill="#000000"></path>
                </g>
            </g>
        </g>
    </g>
</svg>