<?xml version="1.0" encoding="UTF-8" standalone="no"?>
<svg width="60px" height="60px" viewBox="0 0 60 60" version="1.1" xmlns="http://www.w3.org/2000/svg" xmlns:xlink="http://www.w3.org/1999/xlink" xmlns:sketch="http://www.bohemiancoding.com/sketch/ns">
    <!-- Generator: Sketch 3.3.2 (12043) - http://www.bohemiancoding.com/sketch -->
    <title>Rectangle 8 + G</title>
    <desc>Created with Sketch.</desc>
    <defs></defs>
    <g id="Page-1" stroke="none" stroke-width="1" fill="none" fill-rule="evenodd" sketch:type="MSPage">
        <g id="Desktop" sketch:type="MSArtboardGroup" transform="translate(-940.000000, -922.000000)">
            <g id="Rectangle-2-Copy-+-Group-Copy-Copy-Copy-Copy" sketch:type="MSLayerGroup" transform="translate(840.000000, 854.000000)">
                <g id="Rectangle-8-+-G" transform="translate(100.000000, 68.000000)" sketch:type="MSShapeGroup">
                    <rect id="Rectangle-8" stroke-opacity="0.9" stroke="#FA5555" x="0" y="0" width="60" height="60"></rect>
                    <path d="M37.4674479,23.8997396 C36.7773403,22.7799423 35.9375049,21.9531277 34.9479167,21.4192708 C33.9583284,20.885414 32.7148512,20.6184896 31.2174479,20.6184896 C28.7564981,20.6184896 26.975917,21.4094973 25.875651,22.9915365 C24.7753851,24.5735756 24.2252604,26.9270677 24.2252604,30.0520833 C24.2252604,33.1510572 24.7688748,35.4199147 25.8561198,36.858724 C26.9433648,38.2975332 28.6913942,39.0169271 31.1002604,39.0169271 C32.9231862,39.0169271 34.6028569,38.6393267 36.1393229,37.8841146 L36.1393229,33.6848958 L30.8658854,33.6848958 L30.8658854,28.8216146 L41.6666667,28.8216146 L41.6666667,40.7747396 C40.4166604,41.7122443 38.8639416,42.4674451 37.0084635,43.0403646 C35.1529855,43.6132841 33.2421973,43.8997396 31.2760417,43.8997396 C27.0572706,43.8997396 23.880219,42.7994902 21.7447917,40.5989583 C19.6093643,38.3984265 18.5416667,34.8828367 18.5416667,30.0520833 C18.5416667,20.5077648 22.7408434,15.7356771 31.1393229,15.7356771 C33.5872518,15.7356771 35.7226471,16.1458292 37.5455729,16.9661458 C39.3684987,17.7864624 40.7552036,18.9908775 41.7057292,20.5794271 L37.4674479,23.8997396 Z" id="G" fill="#FA5555"></path>
                </g>
            </g>
        </g>
    </g>
</svg>