<?xml version="1.0" encoding="UTF-8" standalone="no"?>
<svg width="35px" height="35px" viewBox="0 0 35 35" version="1.1" xmlns="http://www.w3.org/2000/svg" xmlns:xlink="http://www.w3.org/1999/xlink" xmlns:sketch="http://www.bohemiancoding.com/sketch/ns">
    <!-- Generator: Sketch 3.3.2 (12043) - http://www.bohemiancoding.com/sketch -->
    <title>Imported Layers</title>
    <desc>Created with Sketch.</desc>
    <defs></defs>
    <g id="Page-1" stroke="none" stroke-width="1" fill="none" fill-rule="evenodd" sketch:type="MSPage">
        <g id="Desktop" sketch:type="MSArtboardGroup" transform="translate(-437.000000, -1161.000000)">
            <g id="Group" sketch:type="MSLayerGroup" transform="translate(280.000000, 1161.000000)">
                <g id="Imported-Layers" transform="translate(157.000000, 0.000000)" sketch:type="MSShapeGroup">
                    <path d="M29.9660541,29.9060811 C26.7496486,33.1926757 22.1347568,34.9407838 17.2402432,34.9407838 C12.4853514,34.9407838 7.80064865,33.1926757 4.65443243,29.9768378 C1.64764865,26.8300541 -0.100459459,22.0755405 0.0391621622,17.4604595 C0.108972973,12.9151892 1.15802703,8.4402973 5.00405405,4.73464865 C8.6397027,1.23843243 12.6953514,0.0495675676 17.2402432,0.0495675676 C21.8553243,0.0495675676 26.400027,1.65767568 29.5468108,4.66464865 C32.8328378,7.81105405 34.5109459,12.4261351 34.5109459,17.4604595 C34.5109459,22.214973 32.9028378,26.7596757 29.9660541,29.9060811" id="Fill-1" fill="#3D9AD1"></path>
                    <path d="M24.4091892,15.7844324 C24.4091892,16.5676757 24.4381351,18.2217568 24.4381351,19.2666486 C24.4381351,21.2105676 24.1768649,23.1261081 23.3932432,24.2576486 C22.2906486,25.8247027 20.4335676,26.8692162 16.8930811,26.8692162 C15.1811081,26.8692162 12.5984865,26.4340811 11.4088649,25.7666216 C11.1475946,25.6215135 10.9444054,25.5634324 11.0603784,25.1281081 C11.1767297,24.692973 11.3505946,24.1708108 11.4088649,23.8223243 C11.4667568,23.5322973 11.6120541,22.8357027 11.6408108,22.5744324 C11.6988919,22.2556486 11.9020811,22.0812162 12.1050811,22.2263243 C13.0338108,22.8648378 14.9491622,23.3001622 16.1387838,23.3001622 C17.6186216,23.3001622 19.3886757,22.4297027 19.3886757,21.2686486 L19.3886757,20.3111622 C18.8667027,20.8045676 17.4156216,21.675027 15.6745135,21.675027 C12.0761351,21.675027 9.63862162,18.7730541 9.63862162,15.2331351 C9.63862162,11.8088108 11.8148649,8.87789189 15.5583514,8.87789189 C16.9222162,8.87789189 18.2281892,9.51640541 18.8373784,10.4158108 C19.1856757,10.9381622 19.2727027,10.7642973 19.2727027,10.2124324 C19.2727027,9.10983784 19.3016486,9.08108108 19.533973,9.08108108 C19.9401622,9.08108108 21.4780811,9.28389189 21.8844595,9.31321622 C22.2906486,9.34197297 24.0315676,9.51640541 24.2928378,9.5742973 C24.5251622,9.66113514 24.5251622,9.74835135 24.5251622,10.0964595 C24.4962162,10.503027 24.4091892,13.5786757 24.4091892,15.7844324 L24.4091892,15.7844324 Z M17.1255946,12.7954324 C15.9066486,12.7954324 14.7168378,13.8111892 14.7168378,15.3778649 C14.7168378,16.8577027 15.8775135,17.9027838 17.1255946,17.9027838 C18.4022432,17.9027838 19.533973,16.8289459 19.533973,15.3491081 C19.533973,13.8111892 18.3441622,12.7954324 17.1255946,12.7954324 L17.1255946,12.7954324 Z" id="Fill-2" fill="#FFFFFF"></path>
                </g>
            </g>
        </g>
    </g>
</svg>