<?xml version="1.0" encoding="UTF-8" standalone="no"?>
<svg width="93px" height="30px" viewBox="0 0 93 30" version="1.1" xmlns="http://www.w3.org/2000/svg" xmlns:xlink="http://www.w3.org/1999/xlink" xmlns:sketch="http://www.bohemiancoding.com/sketch/ns">
    <!-- Generator: Sketch 3.3.2 (12043) - http://www.bohemiancoding.com/sketch -->
    <title>HASHCARD + Rectangle 20</title>
    <desc>Created with Sketch.</desc>
    <defs></defs>
    <g id="Page-1" stroke="none" stroke-width="1" fill="none" fill-rule="evenodd" sketch:type="MSPage">
        <g id="Desktop" sketch:type="MSArtboardGroup" transform="translate(-630.000000, -1161.000000)" fill="#000000">
            <g id="Group" sketch:type="MSLayerGroup" transform="translate(280.000000, 1161.000000)">
                <g id="HASHCARD-+-Rectangle-20" transform="translate(350.000000, 0.000000)" sketch:type="MSShapeGroup">
                    <rect id="Rectangle-20" x="40.6956522" y="0" width="11.4782609" height="6.26086957"></rect>
                    <path d="M1.68521739,21.5791304 C1.94956654,21.0086928 2.38782303,20.5565234 3,20.2226087 C3.61217697,19.888694 4.26608348,19.7217391 4.96173913,19.7217391 C6.20000619,19.7217391 7.12869256,20.0904311 7.74782609,20.8278261 C8.36695962,21.5652211 8.67652174,22.5391244 8.67652174,23.7495652 L8.67652174,29.7391304 L7.2573913,29.7391304 L7.2573913,24.333913 C7.2573913,23.8191279 7.21565259,23.3530456 7.13217391,22.9356522 C7.04869523,22.5182588 6.90608797,22.1600015 6.70434783,21.8608696 C6.50260769,21.5617376 6.23130605,21.3286965 5.89043478,21.1617391 C5.54956351,20.9947818 5.1217417,20.9113043 4.60695652,20.9113043 C4.23130247,20.9113043 3.86608873,20.9878253 3.51130435,21.1408696 C3.15651997,21.2939138 2.84000139,21.526955 2.56173913,21.84 C2.28347687,22.153045 2.0608704,22.5495628 1.89391304,23.0295652 C1.72695569,23.5095676 1.64347826,24.0765185 1.64347826,24.7304348 L1.64347826,29.7391304 L0.224347826,29.7391304 L0.224347826,13.9617391 L1.64347826,13.9617391 L1.64347826,21.5791304 L1.68521739,21.5791304 Z M19.8104348,23.4365217 C19.8104348,22.5878218 19.5878283,21.9547847 19.1426087,21.5373913 C18.6973891,21.1199979 18.050439,20.9113043 17.2017391,20.9113043 C16.6173884,20.9113043 16.0747851,21.0156511 15.573913,21.2243478 C15.073041,21.4330445 14.6486974,21.7113026 14.3008696,22.0591304 L13.5078261,21.12 C13.9113064,20.7165197 14.443475,20.38261 15.1043478,20.1182609 C15.7652207,19.8539117 16.5130393,19.7217391 17.3478261,19.7217391 C17.8765244,19.7217391 18.3704325,19.7947819 18.8295652,19.9408696 C19.2886979,20.0869573 19.6921722,20.3060855 20.04,20.5982609 C20.3878278,20.8904362 20.6591295,21.2591282 20.853913,21.7043478 C21.0486966,22.1495674 21.146087,22.6713014 21.146087,23.2695652 L21.146087,27.5478261 C21.146087,27.9234801 21.1599999,28.3130415 21.1878261,28.7165217 C21.2156523,29.120002 21.257391,29.4608682 21.3130435,29.7391304 L20.04,29.7391304 C19.9982607,29.5026075 19.9634784,29.2452188 19.9356522,28.9669565 C19.9078259,28.6886943 19.893913,28.4173926 19.893913,28.1530435 L19.8521739,28.1530435 C19.4069543,28.8069598 18.9026115,29.2765203 18.3391304,29.5617391 C17.7756494,29.8469579 17.0973953,29.9895652 16.3043478,29.9895652 C15.9286938,29.9895652 15.5426107,29.9373918 15.146087,29.8330435 C14.7495632,29.7286951 14.3878277,29.5582621 14.0608696,29.3217391 C13.7339114,29.0852162 13.4626098,28.7791323 13.2469565,28.4034783 C13.0313033,28.0278242 12.9234783,27.5686984 12.9234783,27.026087 C12.9234783,26.2747789 13.1147807,25.6800022 13.4973913,25.2417391 C13.8800019,24.8034761 14.3913011,24.4765228 15.0313043,24.2608696 C15.6713075,24.0452163 16.4052133,23.9060873 17.2330435,23.8434783 C18.0608737,23.7808693 18.9199955,23.7495652 19.8104348,23.7495652 L19.8104348,23.4365217 Z M19.3930435,24.8556522 C18.8086927,24.8556522 18.2208725,24.8799998 17.6295652,24.9286957 C17.0382579,24.9773915 16.5026111,25.0747819 16.0226087,25.2208696 C15.5426063,25.3669573 15.1495667,25.579129 14.8434783,25.8573913 C14.5373898,26.1356536 14.3843478,26.5043455 14.3843478,26.9634783 C14.3843478,27.3113061 14.4504341,27.6034771 14.5826087,27.84 C14.7147833,28.0765229 14.8921728,28.2678254 15.1147826,28.413913 C15.3373924,28.5600007 15.5843465,28.6643475 15.8556522,28.7269565 C16.1269579,28.7895655 16.4017377,28.8208696 16.68,28.8208696 C17.1808721,28.8208696 17.626085,28.7339139 18.0156522,28.56 C18.4052193,28.3860861 18.7321726,28.1495667 18.9965217,27.8504348 C19.2608709,27.5513029 19.462608,27.2069585 19.6017391,26.8173913 C19.7408703,26.4278241 19.8104348,26.0173935 19.8104348,25.586087 L19.8104348,24.8556522 L19.3930435,24.8556522 Z M31.2991304,22.2886957 C31.0904337,21.8852154 30.7739152,21.5547839 30.3495652,21.2973913 C29.9252153,21.0399987 29.4417418,20.9113043 28.8991304,20.9113043 C28.6486944,20.9113043 28.3982621,20.9391302 28.1478261,20.9947826 C27.8973901,21.0504351 27.6747836,21.1408689 27.48,21.266087 C27.2852164,21.391305 27.1286962,21.5513034 27.0104348,21.746087 C26.8921733,21.9408705 26.8330435,22.1704335 26.8330435,22.4347826 C26.8330435,22.8939153 27.0208677,23.2452162 27.3965217,23.4886957 C27.7721758,23.7321751 28.3634742,23.9373905 29.1704348,24.1043478 C30.3252232,24.3408707 31.1773886,24.6852151 31.7269565,25.1373913 C32.2765245,25.5895675 32.5513043,26.198257 32.5513043,26.9634783 C32.5513043,27.5200028 32.4434793,27.9895633 32.2278261,28.3721739 C32.0121728,28.7547845 31.7304365,29.0678249 31.3826087,29.3113043 C31.0347809,29.5547838 30.6417413,29.7286951 30.2034783,29.8330435 C29.7652152,29.9373918 29.3234805,29.9895652 28.8782609,29.9895652 C28.1408659,29.9895652 27.4243513,29.8365233 26.7286957,29.5304348 C26.03304,29.2243463 25.4626109,28.7443511 25.0173913,28.0904348 L26.1443478,27.2556522 C26.3947839,27.6869587 26.7634758,28.0486942 27.2504348,28.3408696 C27.7373937,28.6330449 28.2730406,28.7791304 28.8573913,28.7791304 C29.1634798,28.7791304 29.4556508,28.7513046 29.733913,28.6956522 C30.0121753,28.6399997 30.2556511,28.5426094 30.4643478,28.4034783 C30.6730445,28.2643471 30.8399994,28.0869576 30.9652174,27.8713043 C31.0904354,27.6556511 31.1530435,27.3878277 31.1530435,27.0678261 C31.1530435,26.5530409 30.9060894,26.1669578 30.4121739,25.9095652 C29.9182584,25.6521726 29.2052221,25.412175 28.2730435,25.1895652 C27.9808681,25.1199997 27.671306,25.033044 27.3443478,24.9286957 C27.0173897,24.8243473 26.714784,24.6713054 26.4365217,24.4695652 C26.1582595,24.2678251 25.9286966,24.0139146 25.7478261,23.7078261 C25.5669556,23.4017376 25.4765217,23.0191327 25.4765217,22.56 C25.4765217,22.0591279 25.5739121,21.6313061 25.7686957,21.2765217 C25.9634792,20.9217374 26.2243462,20.6295664 26.5513043,20.4 C26.8782625,20.1704336 27.2504327,20.0000006 27.6678261,19.8886957 C28.0852195,19.7773907 28.5165195,19.7217391 28.9617391,19.7217391 C29.6434817,19.7217391 30.3043446,19.8747811 30.9443478,20.1808696 C31.584351,20.4869581 32.0643462,20.9182581 32.3843478,21.4747826 L31.2991304,22.2886957 Z M38.1756522,21.5791304 C38.4400013,21.0086928 38.8782578,20.5565234 39.4904348,20.2226087 C40.1026118,19.888694 40.7565183,19.7217391 41.4521739,19.7217391 C42.690441,19.7217391 43.6191273,20.0904311 44.2382609,20.8278261 C44.8573944,21.5652211 45.1669565,22.5391244 45.1669565,23.7495652 L45.1669565,29.7391304 L43.7478261,29.7391304 L43.7478261,24.333913 C43.7478261,23.8191279 43.7060874,23.3530456 43.6226087,22.9356522 C43.53913,22.5182588 43.3965227,22.1600015 43.1947826,21.8608696 C42.9930425,21.5617376 42.7217408,21.3286965 42.3808696,21.1617391 C42.0399983,20.9947818 41.6121765,20.9113043 41.0973913,20.9113043 C40.7217373,20.9113043 40.3565235,20.9878253 40.0017391,21.1408696 C39.6469547,21.2939138 39.3304362,21.526955 39.0521739,21.84 C38.7739117,22.153045 38.5513052,22.5495628 38.3843478,23.0295652 C38.2173905,23.5095676 38.133913,24.0765185 38.133913,24.7304348 L38.133913,29.7391304 L36.7147826,29.7391304 L36.7147826,13.9617391 L38.133913,13.9617391 L38.133913,21.5791304 L38.1756522,21.5791304 Z M57.1773913,22.2052174 C56.9408684,21.8295633 56.596524,21.5200012 56.1443478,21.2765217 C55.6921717,21.0330423 55.2017418,20.9113043 54.6730435,20.9113043 C54.1026058,20.9113043 53.5878284,21.0121729 53.1286957,21.213913 C52.6695629,21.4156532 52.2765234,21.6939113 51.9495652,22.0486957 C51.6226071,22.40348 51.3721748,22.8208672 51.1982609,23.3008696 C51.024347,23.780872 50.9373913,24.2991277 50.9373913,24.8556522 C50.9373913,25.4121767 51.024347,25.9269542 51.1982609,26.4 C51.3721748,26.8730458 51.6191288,27.2869547 51.9391304,27.6417391 C52.259132,27.9965235 52.6486934,28.2747816 53.1078261,28.4765217 C53.5669588,28.6782619 54.0817363,28.7791304 54.6521739,28.7791304 C55.278264,28.7791304 55.8069544,28.6608707 56.2382609,28.4243478 C56.6695674,28.1878249 57.0243464,27.881741 57.3026087,27.506087 L58.3669565,28.2991304 C57.9495631,28.8139156 57.4382639,29.2243463 56.8330435,29.5304348 C56.2278231,29.8365233 55.5008738,29.9895652 54.6521739,29.9895652 C53.8591265,29.9895652 53.1426119,29.8608709 52.5026087,29.6034783 C51.8626055,29.3460857 51.316524,28.9878284 50.8643478,28.5286957 C50.4121717,28.0695629 50.0608708,27.5269597 49.8104348,26.9008696 C49.5599987,26.2747795 49.4347826,25.5930472 49.4347826,24.8556522 C49.4347826,24.1182572 49.5599987,23.4365249 49.8104348,22.8104348 C50.0608708,22.1843447 50.4121717,21.6417414 50.8643478,21.1826087 C51.316524,20.723476 51.8626055,20.3652187 52.5026087,20.1078261 C53.1426119,19.8504335 53.8591265,19.7217391 54.6521739,19.7217391 C55.3060902,19.7217391 55.9704314,19.8643464 56.6452174,20.1495652 C57.3200034,20.434784 57.8660849,20.8556494 58.2834783,21.4121739 L57.1773913,22.2052174 Z M68.04,23.4365217 C68.04,22.5878218 67.8173935,21.9547847 67.3721739,21.5373913 C66.9269543,21.1199979 66.2800042,20.9113043 65.4313043,20.9113043 C64.8469536,20.9113043 64.3043503,21.0156511 63.8034783,21.2243478 C63.3026062,21.4330445 62.8782626,21.7113026 62.5304348,22.0591304 L61.7373913,21.12 C62.1408716,20.7165197 62.6730402,20.38261 63.333913,20.1182609 C63.9947859,19.8539117 64.7426045,19.7217391 65.5773913,19.7217391 C66.1060896,19.7217391 66.5999977,19.7947819 67.0591304,19.9408696 C67.5182632,20.0869573 67.9217374,20.3060855 68.2695652,20.5982609 C68.617393,20.8904362 68.8886947,21.2591282 69.0834783,21.7043478 C69.2782618,22.1495674 69.3756522,22.6713014 69.3756522,23.2695652 L69.3756522,27.5478261 C69.3756522,27.9234801 69.3895651,28.3130415 69.4173913,28.7165217 C69.4452175,29.120002 69.4869562,29.4608682 69.5426087,29.7391304 L68.2695652,29.7391304 C68.2278259,29.5026075 68.1930436,29.2452188 68.1652174,28.9669565 C68.1373912,28.6886943 68.1234783,28.4173926 68.1234783,28.1530435 L68.0817391,28.1530435 C67.6365195,28.8069598 67.1321767,29.2765203 66.5686957,29.5617391 C66.0052146,29.8469579 65.3269605,29.9895652 64.533913,29.9895652 C64.158259,29.9895652 63.7721759,29.9373918 63.3756522,29.8330435 C62.9791285,29.7286951 62.6173929,29.5582621 62.2904348,29.3217391 C61.9634766,29.0852162 61.692175,28.7791323 61.4765217,28.4034783 C61.2608685,28.0278242 61.1530435,27.5686984 61.1530435,27.026087 C61.1530435,26.2747789 61.3443459,25.6800022 61.7269565,25.2417391 C62.1095671,24.8034761 62.6208664,24.4765228 63.2608696,24.2608696 C63.9008728,24.0452163 64.6347785,23.9060873 65.4626087,23.8434783 C66.2904389,23.7808693 67.1495608,23.7495652 68.04,23.7495652 L68.04,23.4365217 Z M67.6226087,24.8556522 C67.0382579,24.8556522 66.4504377,24.8799998 65.8591304,24.9286957 C65.2678231,24.9773915 64.7321763,25.0747819 64.2521739,25.2208696 C63.7721715,25.3669573 63.379132,25.579129 63.0730435,25.8573913 C62.766955,26.1356536 62.613913,26.5043455 62.613913,26.9634783 C62.613913,27.3113061 62.6799993,27.6034771 62.8121739,27.84 C62.9443485,28.0765229 63.121738,28.2678254 63.3443478,28.413913 C63.5669576,28.5600007 63.8139117,28.6643475 64.0852174,28.7269565 C64.3565231,28.7895655 64.631303,28.8208696 64.9095652,28.8208696 C65.4104373,28.8208696 65.8556502,28.7339139 66.2452174,28.56 C66.6347846,28.3860861 66.9617378,28.1495667 67.226087,27.8504348 C67.4904361,27.5513029 67.6921732,27.2069585 67.8313043,26.8173913 C67.9704355,26.4278241 68.04,26.0173935 68.04,25.586087 L68.04,24.8556522 L67.6226087,24.8556522 Z M74.3321739,22.1217391 C74.3321739,21.85739 74.3252175,21.5165238 74.3113043,21.0991304 C74.2973912,20.681737 74.2765219,20.3060886 74.2486957,19.9721739 L75.6052174,19.9721739 C75.6330436,20.2365231 75.653913,20.5286941 75.6678261,20.8486957 C75.6817392,21.1686973 75.6886957,21.4330424 75.6886957,21.6417391 L75.7304348,21.6417391 C76.008697,21.0713015 76.4260842,20.6086974 76.9826087,20.253913 C77.5391332,19.8991287 78.1652139,19.7217391 78.8608696,19.7217391 C79.04174,19.7217391 79.2052167,19.7286956 79.3513043,19.7426087 C79.497392,19.7565218 79.6469558,19.7843476 79.8,19.826087 L79.6121739,21.1617391 C79.5286952,21.1339129 79.3895662,21.1060871 79.1947826,21.0782609 C78.999999,21.0504346 78.8052184,21.0365217 78.6104348,21.0365217 C78.2347807,21.0365217 77.8730452,21.1060863 77.5252174,21.2452174 C77.1773896,21.3843485 76.8747839,21.6034768 76.6173913,21.9026087 C76.3599987,22.2017406 76.1513051,22.5843455 75.9913043,23.0504348 C75.8313035,23.5165241 75.7513043,24.0765185 75.7513043,24.7304348 L75.7513043,29.7391304 L74.3321739,29.7391304 L74.3321739,22.1217391 Z M91.1843478,28.0904348 C90.7669544,28.7165249 90.2243512,29.1895636 89.5565217,29.5095652 C88.8886923,29.8295668 88.2000035,29.9895652 87.4904348,29.9895652 C86.7252136,29.9895652 86.0330466,29.8573926 85.413913,29.5930435 C84.7947795,29.3286943 84.2660891,28.9669588 83.8278261,28.5078261 C83.389563,28.0486934 83.0486969,27.5060901 82.8052174,26.88 C82.5617379,26.2539099 82.44,25.5791341 82.44,24.8556522 C82.44,24.1321703 82.5617379,23.4573944 82.8052174,22.8313043 C83.0486969,22.2052143 83.389563,21.662611 83.8278261,21.2034783 C84.2660891,20.7443455 84.7947795,20.38261 85.413913,20.1182609 C86.0330466,19.8539117 86.7252136,19.7217391 87.4904348,19.7217391 C88.2000035,19.7217391 88.8886923,19.8852158 89.5565217,20.2121739 C90.2243512,20.5391321 90.7669544,21.0226055 91.1843478,21.6626087 L91.226087,21.6626087 L91.226087,13.9617391 L92.6452174,13.9617391 L92.6452174,29.7391304 L91.226087,29.7391304 L91.226087,28.0904348 L91.1843478,28.0904348 Z M83.9426087,24.8556522 C83.9426087,25.3982636 84.0260861,25.9095628 84.1930435,26.3895652 C84.3600008,26.8695676 84.5999984,27.2869547 84.9130435,27.6417391 C85.2260885,27.9965235 85.6121716,28.2747816 86.0713043,28.4765217 C86.5304371,28.6782619 87.052171,28.7791304 87.6365217,28.7791304 C88.1791331,28.7791304 88.6799977,28.6782619 89.1391304,28.4765217 C89.5982632,28.2747816 89.9947809,28.0000017 90.3286957,27.6521739 C90.6626104,27.3043461 90.9234773,26.8904372 91.1113043,26.4104348 C91.2991314,25.9304324 91.3930435,25.4121767 91.3930435,24.8556522 C91.3930435,24.2991277 91.2991314,23.780872 91.1113043,23.3008696 C90.9234773,22.8208672 90.6626104,22.40348 90.3286957,22.0486957 C89.9947809,21.6939113 89.5982632,21.4156532 89.1391304,21.213913 C88.6799977,21.0121729 88.1791331,20.9113043 87.6365217,20.9113043 C87.052171,20.9113043 86.5304371,21.0156511 86.0713043,21.2243478 C85.6121716,21.4330445 85.2260885,21.7147808 84.9130435,22.0695652 C84.5999984,22.4243496 84.3600008,22.8417367 84.1930435,23.3217391 C84.0260861,23.8017415 83.9426087,24.3130408 83.9426087,24.8556522 L83.9426087,24.8556522 Z" id="hashcard"></path>
                </g>
            </g>
        </g>
    </g>
</svg>