<?xml version="1.0" encoding="UTF-8" standalone="no"?>
<svg width="32px" height="35px" viewBox="0 0 32 35" version="1.1" xmlns="http://www.w3.org/2000/svg" xmlns:xlink="http://www.w3.org/1999/xlink" xmlns:sketch="http://www.bohemiancoding.com/sketch/ns">
    <!-- Generator: Sketch 3.3.2 (12043) - http://www.bohemiancoding.com/sketch -->
    <title>Imported Layers Copy</title>
    <desc>Created with Sketch.</desc>
    <defs></defs>
    <g id="Page-1" stroke="none" stroke-width="1" fill="none" fill-rule="evenodd" sketch:type="MSPage">
        <g id="Desktop" sketch:type="MSArtboardGroup" transform="translate(-502.000000, -1164.000000)">
            <g id="Group" sketch:type="MSLayerGroup" transform="translate(280.000000, 1161.000000)">
                <g id="Imported-Layers-Copy" transform="translate(222.000000, 3.000000)" sketch:type="MSShapeGroup">
                    <path d="M0.139204545,0.362727273 L31.9573864,0.362727273 L31.9573864,27.7184091 L0.139204545,27.7184091 L0.139204545,0.362727273 Z" id="Fill-1" fill="#BA1E2A"></path>
                    <path d="M15.4970455,28.2147727 L9.04232955,28.9004545 L9.49931818,26.5013636 L3.44431818,21.1889205 L4.64426136,20.3322159 L3.61573864,16.1051705 L7.32892045,16.8477273 L8.35704545,15.0770455 L12.1271023,18.5042614 L10.7561364,10.6213068 L13.269375,12.1064205 L15.833125,7.05409091 L18.445,12.0674432 L21.0381818,10.6213068 L19.7244886,18.5042614 L23.4376705,14.905625 L24.6368182,16.961875 L28.1785795,16.0478977 L27.0931818,20.3322159 L28.5210227,21.3603409 L22.1808523,26.5586364 L22.9234091,28.9577273 L16.35375,28.2147727 L16.4678977,34.6126136 L15.3832955,34.6698864 L15.4970455,28.2147727" id="Fill-2" fill="#FFFFFF"></path>
                </g>
            </g>
        </g>
    </g>
</svg>