<?xml version="1.0" encoding="UTF-8" standalone="no"?>
<svg width="32px" height="35px" viewBox="0 0 32 35" version="1.1" xmlns="http://www.w3.org/2000/svg" xmlns:xlink="http://www.w3.org/1999/xlink" xmlns:sketch="http://www.bohemiancoding.com/sketch/ns">
    <!-- Generator: Sketch 3.3.2 (12043) - http://www.bohemiancoding.com/sketch -->
    <title>Imported Layers</title>
    <desc>Created with Sketch.</desc>
    <defs></defs>
    <g id="Page-1" stroke="none" stroke-width="1" fill="none" fill-rule="evenodd" sketch:type="MSPage">
        <g id="Desktop" sketch:type="MSArtboardGroup" transform="translate(-817.000000, -1162.000000)">
            <g id="Group" sketch:type="MSLayerGroup" transform="translate(280.000000, 1161.000000)">
                <g id="Imported-Layers" transform="translate(537.000000, 1.000000)" sketch:type="MSShapeGroup">
                    <path d="M29.9870552,0.852668712 L19.5901227,0.829693252 L19.1516564,0.829478528 L19.1523006,0.873282209 L19.1499387,0.873282209 L19.1486503,1.31389571 L19.1458589,3.25177914 L12.0953988,3.23588957 L12.1005521,1.2106135 L12.1005521,0.769570552 L11.6610123,0.767423313 L1.2653681,0.746595092 L0.824969325,0.745521472 L0.824754601,1.18613497 L0.792331288,16.073589 L0.821319018,16.0742331 L10.2069018,33.8836503 L10.3310123,34.1200613 L10.5959816,34.1207055 L15.2928528,34.1307975 L15.7944479,34.1318712 L20.4902454,34.1419632 L20.7543558,34.1423926 L20.8795399,33.9059816 L30.3177301,16.1815951 L30.3956748,16.1820245 L30.4272393,1.2941411 L30.4278834,0.853527607 L29.9870552,0.852668712 L29.9870552,0.852668712 Z M20.2267791,33.2607362 L15.7953067,33.2504294 L15.2941411,33.2491411 L10.8615951,33.2401227 L1.67355828,15.8064724 L1.70404908,1.7607362 L11.218681,1.78113497 L11.2141718,3.675 L11.2146012,3.71858896 L11.2126687,4.11496933 L11.2137423,4.1596319 L11.6537117,4.16113497 L19.5845399,4.17874233 L20.0230061,4.17874233 L20.022362,4.13515337 L20.0240798,4.13515337 L20.0255828,3.69411043 L20.0305215,1.75601227 L29.546227,1.77705521 L29.5153067,15.8180675 L20.2267791,33.2607362 L20.2267791,33.2607362 Z" id="Fill-1" fill="#FFFFFF"></path>
                    <path d="M29.6739877,1.21340491 L19.5031595,1.19128834 L19.0743558,1.19107362 L19.075,1.23380368 L19.0724233,1.23380368 L19.071135,1.66496933 L19.0685583,3.56055215 L12.171411,3.54509202 L12.1763497,1.56361963 L12.1763497,1.13223926 L11.7464724,1.13030675 L1.57671779,1.10990798 L1.1459816,1.10883436 L1.14576687,1.54 L1.11398773,16.1036503 L1.14254601,16.1042945 L10.3241411,33.5263497 L10.4454601,33.7578221 L10.7046319,33.7584663 L15.2992945,33.7683436 L15.7899387,33.7694172 L20.3837423,33.7792945 L20.6422699,33.7792945 L20.7646626,33.5482515 L29.9975767,16.2092945 L30.0738037,16.2097239 L30.1047239,1.64564417 L30.1053681,1.2142638 L29.6739877,1.21340491 L29.6739877,1.21340491 Z M20.1258589,32.9171779 L15.7907975,32.9068712 L15.3005828,32.9055828 L10.9644479,32.8967791 L1.97610429,15.8423313 L2.00616564,2.10193252 L11.3138037,2.12190184 L11.3092945,3.9747546 L11.3097239,4.01726994 L11.3080061,4.40506135 L11.308865,4.44886503 L11.7393865,4.45015337 L19.4977914,4.46754601 L19.9265951,4.46754601 L19.9261656,4.42460123 L19.9276687,4.42460123 L19.9289571,3.99343558 L19.9341104,2.09742331 L29.2426074,2.11803681 L29.212546,15.8537117 L20.1258589,32.9171779 L20.1258589,32.9171779 Z" id="Fill-2" fill="#FFFFFF"></path>
                    <path d="M17.5328528,33.445184 L13.563681,33.4346626 L13.623589,4.08404908 L17.5854601,4.09220859 L17.5328528,33.445184" id="Fill-3" fill="#FFFFFF"></path>
                    <path d="M9.64819018,30.721411 L6.12972393,24.1248773 L5.69984663,23.2507362 L5.74579755,1.76030675 L9.70680982,1.76911043 L9.64819018,30.721411" id="Fill-4" fill="#FFFFFF"></path>
                    <path d="M21.5050307,30.377638 L25.4915951,22.9307975 L25.527454,1.77276074 L21.5647239,1.76417178 L21.5050307,30.377638" id="Fill-5" fill="#FFFFFF"></path>
                    <path d="M5.69297546,17.5511043 L5.69555215,18.9088037 L4.07760736,19.9579448 L3.51417178,18.9313497 L1.73668712,15.6117178 L1.76610429,1.73368098 L5.72668712,1.74076687 L5.69297546,17.5511043" id="Fill-6" fill="#D7232E"></path>
                    <path d="M25.4915951,22.9307975 L29.4972699,15.5395706 L29.4972699,1.8397546 L25.5347546,1.83138037 L25.4915951,22.9307975" id="Fill-7" fill="#D7232E"></path>
                    <path d="M21.5065337,30.4306748 L19.8772086,33.4473313 L17.5246933,33.4462577 L17.5923313,4.08297546 L20.8099693,4.0904908 L20.8271472,1.76567485 L21.5589264,1.76846626 L21.5065337,30.4306748" id="Fill-8" fill="#D7232E"></path>
                    <path d="M9.64819018,30.721411 L11.0784663,33.428865 L13.5619632,33.4346626 L13.6280982,4.06472393 L10.374816,4.05720859 L10.3831902,1.74355828 L9.70595092,1.74226994 L9.64819018,30.721411" id="Fill-9" fill="#D7232E"></path>
                    <path d="M3.08064417,20.662454 L30.6069632,3.90046012 L30.5945092,9.87493865 L5.4608589,24.8965951 L3.08064417,20.662454" id="Fill-10" fill="#FFFFFF"></path>
                    <path d="M30.3920245,4.42717791 L3.56205521,20.6721166 L3.27733129,20.2023006 L30.106227,3.95757669 L30.3920245,4.42717791" id="Fill-11" fill="#CF222A"></path>
                    <path d="M30.4343252,10.2305215 L5.67279141,25.2238344 L5.38785276,24.753589 L30.147454,9.76070552 L30.4343252,10.2305215" id="Fill-12" fill="#CF222A"></path>
                    <path d="M30.6134049,0.130337423 L19.7642638,0.106503067 L19.3066871,0.106288344 L19.3073313,0.15202454 L19.3045399,0.15202454 L19.3032515,0.61196319 L19.3004601,2.6340184 L11.9433742,2.61748466 L11.9487423,0.503957055 L11.9487423,0.043803681 L11.490092,0.0414417178 L0.64202454,0.0199693252 L0.182515337,0.0186809816 L0.182300613,0.478404908 L0.148374233,16.013681 L0.178865031,16.0143252 L9.97263804,34.5982515 L10.1023313,34.8449693 L10.378681,34.8458282 L15.2797546,34.8563497 L15.8032515,34.8574233 L20.7032515,34.8679448 L20.9789571,34.8683742 L21.1097239,34.6216564 L30.9584663,16.1261963 L31.0396319,16.1266258 L31.0726994,0.591349693 L31.0733436,0.131196319 L30.6134049,0.130337423 L30.6134049,0.130337423 Z M20.4286196,33.9484969 L15.8041104,33.937546 L15.2810429,33.9362577 L10.6558896,33.9268098 L1.06825153,15.7347546 L1.10003067,1.07812883 L11.0284356,1.0993865 L11.0237117,3.07570552 L11.0241411,3.12122699 L11.0222086,3.53478528 L11.0232822,3.58138037 L11.482362,3.58266871 L19.7582515,3.60113497 L20.2158282,3.60113497 L20.215184,3.55582822 L20.2169018,3.55582822 L20.2184049,3.09567485 L20.223773,1.07319018 L30.1532515,1.09530675 L30.1210429,15.7469939 L20.4286196,33.9484969 L20.4286196,33.9484969 Z" id="Fill-13" fill="#CF222A"></path>
                    <path d="M9.25996933,21.7098773 L8.70340491,22.0489264 L7.0790184,19.3904294 L7.63493865,19.0520245 L9.25996933,21.7098773" id="Fill-14" fill="#CF222A"></path>
                    <path d="M11.0316564,20.6272393 L10.475092,20.9675767 L10.1448466,20.4258282 L10.6996933,20.0874233 L11.0316564,20.6272393" id="Fill-15" fill="#CF222A"></path>
                    <path d="M12.67,19.6268405 L12.085092,19.9843558 L11.4063497,16.7452454 L12.0477301,16.3555215 L14.6096012,18.4409202 L14.0066564,18.8104601 L13.5011963,18.3657669 L12.5196933,18.9659202 L12.67,19.6268405 L12.67,19.6268405 Z M12.3867791,18.4164417 L13.0642331,18.0035276 L12.0923926,17.1515031 L12.0846626,17.1566564 L12.3867791,18.4164417 L12.3867791,18.4164417 Z" id="Fill-16" fill="#CF222A"></path>
                    <path d="M16.2189571,17.4559816 L15.6632515,17.7976074 L15.3321472,17.2562883 L15.8887117,16.9155215 L16.2189571,17.4559816" id="Fill-17" fill="#CF222A"></path>
                    <path d="M18.0816871,13.8632209 C17.9388957,13.7296626 17.6713497,13.4823006 17.2142025,13.763589 C16.9455828,13.9259202 16.6612883,14.3442025 17.1225153,15.0942331 C17.4138957,15.5722086 17.866319,15.8857055 18.336135,15.5981902 C18.6438344,15.4113804 18.7511963,15.1066871 18.6191411,14.7403681 L19.1744172,14.401319 C19.4166258,15.0452761 19.2860736,15.6795706 18.6197853,16.0856135 C17.9118405,16.5193558 17.1122086,16.3505828 16.551135,15.4334969 C15.9829755,14.5052454 16.2290491,13.7023926 16.9144479,13.2834663 C17.7108589,12.797546 18.368773,13.1492638 18.6376074,13.5230982 L18.0816871,13.8632209" id="Fill-18" fill="#CF222A"></path>
                    <path d="M21.4060429,14.2875153 L20.8501227,14.6280675 L20.5215951,14.0867485 L21.0757975,13.7472699 L21.4060429,14.2875153" id="Fill-19" fill="#CF222A"></path>
                    <path d="M23.271135,10.6926074 C23.1283436,10.5607669 22.8595092,10.3119018 22.3991411,10.592546 C22.132454,10.7561656 21.848589,11.1742331 22.3080982,11.9257669 C22.6009816,12.4035276 23.052546,12.717454 23.5240798,12.4303681 C23.8302761,12.2426994 23.9382822,11.9371472 23.8060123,11.5714724 L24.3615031,11.2304908 C24.6024233,11.8761656 24.4740184,12.5108896 23.8068712,12.9195092 C23.0993558,13.3504601 22.2999387,13.182546 21.737362,12.2650307 C21.1692025,11.3354908 21.4165644,10.532638 22.1015337,10.1141411 C22.8979448,9.62757669 23.5562883,9.9795092 23.8259816,10.3529141 L23.271135,10.6926074" id="Fill-20" fill="#CF222A"></path>
                    <path d="M26.5939877,11.117546 L26.0393558,11.4576687 L25.7084663,10.9165644 L26.2637423,10.5764417 L26.5939877,11.117546" id="Fill-21" fill="#CF222A"></path>
                </g>
            </g>
        </g>
    </g>
</svg>