<?xml version="1.0" encoding="UTF-8" standalone="no"?>
<svg width="84px" height="20px" viewBox="0 0 84 20" version="1.1" xmlns="http://www.w3.org/2000/svg" xmlns:xlink="http://www.w3.org/1999/xlink" xmlns:sketch="http://www.bohemiancoding.com/sketch/ns">
    <!-- Generator: Sketch 3.3.2 (12043) - http://www.bohemiancoding.com/sketch -->
    <title>Logo_of_La_Voz_del_interior_newspaper_since_2009</title>
    <desc>Created with Sketch.</desc>
    <defs></defs>
    <g id="Page-1" stroke="none" stroke-width="1" fill="none" fill-rule="evenodd" sketch:type="MSPage">
        <g id="Desktop" sketch:type="MSArtboardGroup" transform="translate(-970.000000, -1169.000000)" fill="#30549F">
            <g id="Group" sketch:type="MSLayerGroup" transform="translate(280.000000, 1161.000000)">
                <g id="Logo_of_La_Voz_del_interior_newspaper_since_2009" transform="translate(690.000000, 8.000000)" sketch:type="MSShapeGroup">
                    <g id="layer1" transform="translate(0.096160, 0.178011)">
                        <g id="g3690" transform="translate(0.088482, 0.145764)">
                            <path d="M12.8863818,19.0753727 L0.178994545,19.0753727 L0.178994545,0.0398618182 L4.96024545,0.0398618182 L4.96024545,15.4446909 L12.8863818,15.4446909 L12.8863818,19.0753727 Z" id="path2887"></path>
                            <path d="M22.81962,15.3296345 L22.81962,12.3381564 C22.0610891,12.4148673 21.4474527,12.48092 20.9787109,12.5363109 C20.5099545,12.5917145 20.0497273,12.70038 19.5980291,12.8623055 C19.2059782,12.9986745 18.9012909,13.2053509 18.6839673,13.4823327 C18.4666327,13.7593273 18.3579673,14.1279345 18.3579727,14.5881564 C18.3579673,15.2614564 18.5390745,15.7238145 18.9012964,15.9752309 C19.2635055,16.2266545 19.7983073,16.3523636 20.5057,16.3523618 C20.8977382,16.3523636 21.2983055,16.2628764 21.7074036,16.0838964 C22.1164873,15.9049218 22.4872255,15.6535018 22.81962,15.3296345 L22.81962,15.3296345 Z M22.81962,17.5540655 C22.5127927,17.8097491 22.2379345,18.0398618 21.9950473,18.2444073 C21.75214,18.4489527 21.4261455,18.6534982 21.0170636,18.8580436 C20.6164873,19.0540655 20.2265727,19.2032145 19.84732,19.3054873 C19.4680509,19.4077582 18.9375127,19.4588945 18.2557,19.4588964 C16.9858091,19.4588945 15.9311236,19.03276 15.0916382,18.1804873 C14.2521473,17.3282164 13.8324036,16.2543527 13.8324036,14.9588964 C13.8324036,13.89356 14.0454709,13.0327655 14.4716091,12.3765091 C14.8977436,11.7202673 15.51138,11.20038 16.3125182,10.8168509 C17.1221727,10.4248127 18.0895018,10.1520855 19.2145073,9.99866909 C20.3395,9.84526909 21.5497255,9.72595091 22.8451891,9.64071455 L22.8451891,9.56400909 C22.8451782,8.77140545 22.5532764,8.22382182 21.9694782,7.92125273 C21.3856636,7.61870909 20.5099545,7.46742909 19.3423473,7.46741818 C18.8139327,7.46742909 18.1960364,7.56331091 17.4886545,7.75506 C16.7812636,7.94683273 16.0909236,8.19186182 15.4176309,8.49014545 L15.0341091,8.49014545 L15.0341091,5.02565636 C15.4772891,4.89783091 16.1931964,4.74655273 17.1818364,4.57182182 C18.1704673,4.39712 19.1676255,4.30976182 20.1733127,4.30974727 C22.6448945,4.30976182 24.44532,4.72098364 25.5745927,5.54341273 C26.70384,6.36586909 27.2684691,7.62083818 27.2684836,9.30832727 L27.2684836,19.0753727 L22.81962,19.0753727 L22.81962,17.5540655 Z" id="path2889"></path>
                            <path d="M54.4346764,0.0398618182 L47.8892218,19.0753727 L42.9034273,19.0753727 L36.3579727,0.0398618182 L41.3182,0.0398618182 L45.4602455,12.9390091 L49.6022909,0.0398618182 L54.4346764,0.0398618182 Z" id="path2891"></path>
                            <path d="M69.7500182,11.9034982 C69.7500018,14.2642982 69.1044073,16.1243818 67.8132291,17.4837527 C66.5220236,18.8431291 64.6960309,19.5228164 62.3352455,19.5228164 C59.9914891,19.5228164 58.1697582,18.8431291 56.8700473,17.4837527 C55.5703291,16.1243818 54.9204727,14.2642982 54.9204727,11.9034982 C54.9204727,9.51714364 55.5703291,7.64853818 56.8700473,6.29767455 C58.1697582,4.94683636 59.9914891,4.27141091 62.3352455,4.27139636 C64.6875073,4.27141091 66.5113691,4.95109636 67.8068364,6.31045818 C69.1022764,7.66984364 69.7500018,9.53418909 69.7500182,11.9034982 L69.7500182,11.9034982 Z M65.1605291,11.9290655 C65.1605182,11.0768018 65.0902055,10.3672855 64.9495927,9.80051455 C64.8089564,9.23376364 64.6150636,8.77992909 64.3679164,8.43900909 C64.1037018,8.08106545 63.8054055,7.83177636 63.4730291,7.69114 C63.1406345,7.55052727 62.7613727,7.48021455 62.3352455,7.48020182 C61.9346691,7.48021455 61.5724545,7.54200364 61.2485982,7.66557091 C60.9247273,7.78916182 60.6264327,8.02566727 60.3537109,8.37508909 C60.0980236,8.70748545 59.8934782,9.16345091 59.7400745,9.74298727 C59.58666,10.32254 59.5099564,11.0512327 59.5099618,11.9290655 C59.5099564,12.8069127 59.5823982,13.5164291 59.7272909,14.0576164 C59.8721709,14.5988145 60.0596709,15.0313436 60.2897909,15.3552018 C60.52842,15.6875927 60.8267164,15.9304891 61.1846764,16.0838964 C61.5426236,16.2373073 61.9389309,16.3140127 62.3735982,16.3140091 C62.7315436,16.3140127 63.0958891,16.2373073 63.4666382,16.0838964 C63.8373673,15.9304891 64.1335309,15.7003764 64.3551309,15.3935545 C64.6193255,15.0270818 64.8196091,14.5860309 64.9559836,14.0704018 C65.0923364,13.5547818 65.1605182,12.8410036 65.1605291,11.9290655 L65.1605291,11.9290655 Z" id="path2893"></path>
                            <path d="M83.5824036,19.0753727 L71.0284273,19.0753727 L71.0284273,16.1222473 L77.8807,8.08105455 L71.3352455,8.08105455 L71.3352455,4.71883818 L83.44178,4.71883818 L83.44178,7.62082727 L76.5767218,15.6492364 L83.5824036,15.6492364 L83.5824036,19.0753727 Z" id="path2895"></path>
                        </g>
                    </g>
                </g>
            </g>
        </g>
    </g>
</svg>