<?xml version="1.0" encoding="UTF-8" standalone="no"?>
<svg width="61px" height="25px" viewBox="0 0 61 25" version="1.1" xmlns="http://www.w3.org/2000/svg" xmlns:xlink="http://www.w3.org/1999/xlink" xmlns:sketch="http://www.bohemiancoding.com/sketch/ns">
    <!-- Generator: Sketch 3.3.2 (12043) - http://www.bohemiancoding.com/sketch -->
    <title>Imported Layers</title>
    <desc>Created with Sketch.</desc>
    <defs></defs>
    <g id="Page-1" stroke="none" stroke-width="1" fill="none" fill-rule="evenodd" sketch:type="MSPage">
        <g id="Desktop" sketch:type="MSArtboardGroup" transform="translate(-879.000000, -1166.000000)" fill="#C02349">
            <g id="Group" sketch:type="MSLayerGroup" transform="translate(280.000000, 1161.000000)">
                <g id="Imported-Layers" transform="translate(599.000000, 5.000000)" sketch:type="MSShapeGroup">
                    <path d="M4.97225,20.55725 L14.056,20.55725 C12.13425,22.1665 10.35675,23.27725 8.72375,23.89 C7.09,24.5025 5.301,24.8085 3.355,24.8085 C2.6345,24.8085 2.486,24.70625 1.90975,24.5025 C1.33325,24.2985 0.89475,23.93825 0.5945,23.4215 C0.29375,22.90525 0.14425,22.335 0.14425,21.71 C0.14425,20.89375 0.39625,19.82475 0.901,18.50375 L5.4405,5.92925 C6.209,4.07975 6.95925,2.6325 7.6925,1.5875 C8.42475,0.54275 9.4995,0.0205 10.917,0.0205 C11.8295,0.0205 12.598,0.19475 13.223,0.54275 C13.84725,0.89125 14.25525,1.27575 14.448,1.69575 C14.64,2.116 14.73625,2.555 14.73625,3.01075 C14.73625,4.83625 13.7635,7.473 11.81775,10.91925 C9.872,14.36625 7.59,17.579 4.97225,20.55725 L4.97225,20.55725 Z M10.701,4.452 C10.2685,5.1005 9.866,5.84525 9.49375,6.68575 C9.12125,7.527 8.71925,8.5655 8.28675,9.8025 C7.8545,11.03975 7.206,12.88275 6.3415,15.333 C7.63825,13.81975 8.9355,11.9585 10.2325,9.74825 C11.52975,7.53875 12.178,5.88125 12.178,4.776 C12.178,4.488 12.14775,4.23 12.088,4.0015 C12.0275,3.7735 11.8775,3.6595 11.6375,3.6595 C11.34925,3.6595 11.037,3.924 10.701,4.452 L10.701,4.452 Z" id="Fill-1"></path>
                    <path d="M19.1435,13.20975 L22.5565,13.21225 L19.7645,20.564 L25.7585,20.564 C24.0165,21.91325 22.78275,22.75425 22.057,23.08725 C21.331,23.42025 20.37025,23.58675 19.17525,23.58675 C18.5945,23.58675 18.065,23.446 17.587,23.16425 C17.10875,22.88225 16.75,22.528 16.511,22.101 C15.7765,22.725 15.038,23.1715 14.29525,23.44 C13.55225,23.7085 12.79675,23.843 12.02825,23.843 C11.6525,23.843 11.29375,23.7355 10.9525,23.52125 C10.6105,23.30675 10.38875,23.0665 10.28625,22.80075 C10.184,22.535 10.107,22.3075 10.05575,22.11875 C10.00475,21.92975 9.979,21.7325 9.979,21.5265 C9.979,21.2005 10.013,20.87875 10.0815,20.56125 C10.1495,20.244 10.29475,19.793 10.517,19.2095 L12.8225,13.21225 L16.178,13.21225 L14.20575,18.3355 C13.864,19.22375 13.69325,19.84675 13.69325,20.2055 C13.69325,20.37625 13.74,20.51725 13.83425,20.62825 C13.92775,20.7395 14.06875,20.7945 14.257,20.7945 C14.46175,20.7945 14.80725,20.701 15.294,20.51275 C15.78075,20.32525 16.20725,19.94925 16.57425,19.38575 C16.9415,18.82225 17.3555,17.9595 17.81675,16.798 L19.1435,13.20975" id="Fill-2"></path>
                    <path d="M31.097,14.08325 L31.43,13.21225 L34.83675,13.21225 L32.019,20.564 L37.16775,20.564 C36.2115,21.5035 35.29775,22.242 34.427,22.77975 C33.556,23.31775 32.64225,23.58675 31.686,23.58675 C31.5665,23.58675 31.45125,23.5825 31.34025,23.574 C31.229,23.565 31.0115,23.52275 30.687,23.446 C30.36225,23.369 30.042,23.18125 29.7265,22.88225 C29.4105,22.58375 29.184,22.28925 29.0475,21.99875 C28.27925,22.58775 27.64725,23.04225 27.15175,23.3625 C26.6565,23.6825 25.87125,23.843 24.79525,23.843 C23.9755,23.843 23.30525,23.4695 22.7845,22.7235 C22.26325,21.97725 22.003,21.23525 22.003,20.49725 C22.003,19.43375 22.212,18.383 22.63075,17.34475 C23.049,16.307 23.6465,15.42325 24.42375,14.694 C25.20075,13.96475 25.918,13.46725 26.57575,13.2015 C27.23275,12.93575 27.886,12.8025 28.53525,12.8025 C28.928,12.8025 29.27825,12.846 29.5855,12.93325 C29.89275,13.0205 30.1615,13.14225 30.39225,13.299 C30.62275,13.456 30.8575,13.71725 31.097,14.08325 L31.097,14.08325 Z M26.3835,17.6125 C26.22975,17.8545 26.09725,18.15675 25.9865,18.51925 C25.87525,18.88175 25.82,19.19275 25.82,19.4515 C25.82,19.814 25.9135,20.0735 26.10175,20.22875 C26.2895,20.384 26.5115,20.4615 26.76775,20.4615 C27.10925,20.4615 27.468,20.34525 27.8435,20.11225 C28.21925,19.87925 28.54825,19.59425 28.83,19.25725 C29.1115,18.92075 29.36325,18.5365 29.5855,18.10475 C29.80725,17.6735 29.9185,17.29325 29.9185,16.965 C29.9185,16.568 29.79075,16.2745 29.53425,16.0845 C29.27825,15.89475 29.02175,15.7995 28.766,15.7995 C28.37275,15.7995 27.9545,15.97675 27.51025,16.3305 C27.0665,16.6845 26.69075,17.11175 26.3835,17.6125 L26.3835,17.6125 Z" id="Fill-3"></path>
                    <path d="M43.199,13.20975 L46.612,13.21225 L43.81975,20.564 L49.814,20.564 C48.072,21.91325 46.838,22.75425 46.1125,23.08725 C45.3865,23.42025 44.42575,23.58675 43.23075,23.58675 C42.65,23.58675 42.12025,23.446 41.64225,23.16425 C41.164,22.88225 40.80575,22.528 40.5665,22.101 C39.832,22.725 39.09375,23.1715 38.3505,23.44 C37.608,23.7085 36.85225,23.843 36.08375,23.843 C35.70775,23.843 35.34925,23.7355 35.00775,23.52125 C34.666,23.30675 34.44425,23.0665 34.34175,22.80075 C34.23925,22.535 34.16225,22.3075 34.11125,22.11875 C34.06,21.92975 34.0345,21.7325 34.0345,21.5265 C34.0345,21.2005 34.06825,20.87875 34.13675,20.56125 C34.20475,20.244 34.35025,19.793 34.57225,19.2095 L36.878,13.21225 L40.23375,13.21225 L38.261,18.3355 C37.91925,19.22375 37.74875,19.84675 37.74875,20.2055 C37.74875,20.37625 37.79575,20.51725 37.88975,20.62825 C37.9835,20.7395 38.124,20.7945 38.31225,20.7945 C38.51725,20.7945 38.86275,20.701 39.34925,20.51275 C39.836,20.32525 40.26275,19.94925 40.63,19.38575 C40.99675,18.82225 41.41125,17.9595 41.872,16.798 L43.199,13.20975" id="Fill-4"></path>
                    <path d="M54.90225,14.08325 L55.235,13.21225 L58.642,13.21225 L55.82425,20.564 L60.97325,20.564 C60.0165,21.5035 59.10325,22.242 58.2325,22.77975 C57.36125,23.31775 56.4475,23.58675 55.4915,23.58675 C55.37175,23.58675 55.25625,23.5825 55.1455,23.574 C55.03425,23.565 54.81675,23.52275 54.4925,23.446 C54.16775,23.369 53.8475,23.18125 53.53175,22.88225 C53.2155,22.58375 52.9895,22.28925 52.85275,21.99875 C52.0845,22.58775 51.4525,23.04225 50.95725,23.3625 C50.46175,23.6825 49.6765,23.843 48.6005,23.843 C47.781,23.843 47.11025,23.4695 46.58975,22.7235 C46.0685,21.97725 45.80825,21.23525 45.80825,20.49725 C45.80825,19.43375 46.01725,18.383 46.436,17.34475 C46.85425,16.307 47.452,15.42325 48.229,14.694 C49.006,13.96475 49.7235,13.46725 50.38075,13.2015 C51.038,12.93575 51.6915,12.8025 52.3405,12.8025 C52.73325,12.8025 53.0835,12.846 53.391,12.93325 C53.69825,13.0205 53.967,13.14225 54.19775,13.299 C54.42825,13.456 54.66275,13.71725 54.90225,14.08325 L54.90225,14.08325 Z M50.189,17.6125 C50.035,17.8545 49.9025,18.15675 49.79175,18.51925 C49.6805,18.88175 49.62525,19.19275 49.62525,19.4515 C49.62525,19.814 49.719,20.0735 49.907,20.22875 C50.09475,20.384 50.317,20.4615 50.573,20.4615 C50.9145,20.4615 51.27325,20.34525 51.649,20.11225 C52.0245,19.87925 52.35325,19.59425 52.63525,19.25725 C52.91675,18.92075 53.16875,18.5365 53.391,18.10475 C53.6125,17.6735 53.72375,17.29325 53.72375,16.965 C53.72375,16.568 53.59575,16.2745 53.3395,16.0845 C53.0835,15.89475 52.82725,15.7995 52.57125,15.7995 C52.178,15.7995 51.75975,15.97675 51.316,16.3305 C50.8715,16.6845 50.496,17.11175 50.189,17.6125 L50.189,17.6125 Z" id="Fill-5"></path>
                </g>
            </g>
        </g>
    </g>
</svg>