<?xml version="1.0" encoding="UTF-8" standalone="no"?>
<svg width="170px" height="18px" viewBox="0 0 170 18" version="1.1" xmlns="http://www.w3.org/2000/svg" xmlns:xlink="http://www.w3.org/1999/xlink" xmlns:sketch="http://www.bohemiancoding.com/sketch/ns">
    <!-- Generator: Sketch 3.3.2 (12043) - http://www.bohemiancoding.com/sketch -->
    <title>STAYFUL Copy 2</title>
    <desc>Created with Sketch.</desc>
    <defs></defs>
    <g id="Page-1" stroke="none" stroke-width="1" fill="none" fill-rule="evenodd" sketch:type="MSPage">
        <g id="Desktop" sketch:type="MSArtboardGroup" transform="translate(-885.000000, -728.000000)" fill="#000000">
            <g id="Rectangle-2-Copy-3-+-Bitmap-Copy" sketch:type="MSLayerGroup" transform="translate(840.000000, 639.000000)">
                <path d="M49.2788086,106.452148 C48.1632431,106.452148 46.7369879,106.208824 45,105.722168 L45,103.38623 C46.8717542,104.254724 48.410313,104.688965 49.6157227,104.688965 C50.5441127,104.688965 51.2909314,104.44564 51.8562012,103.958984 C52.4214709,103.472328 52.7041016,102.832198 52.7041016,102.038574 C52.7041016,101.387204 52.5188007,100.833173 52.1481934,100.376465 C51.777586,99.9197568 51.094406,99.4106473 50.0986328,98.8491211 L48.953125,98.1865234 C47.5380789,97.3779256 46.5404489,96.6161331 45.9602051,95.901123 C45.3799613,95.186113 45.0898438,94.3531949 45.0898438,93.4023438 C45.0898438,92.1220639 45.5540318,91.0682821 46.4824219,90.2409668 C47.4108119,89.4136515 48.5937428,89 50.03125,89 C51.3115298,89 52.6629161,89.2133768 54.0854492,89.6401367 L54.0854492,91.7963867 C52.3334873,91.1075812 51.0270225,90.7631836 50.1660156,90.7631836 C49.3499308,90.7631836 48.6761094,90.9803038 48.1445312,91.4145508 C47.6129531,91.8487977 47.347168,92.3953418 47.347168,93.0541992 C47.347168,93.6082384 47.5418275,94.0986307 47.9311523,94.5253906 C48.3204772,94.9521506 49.0317331,95.4612601 50.0649414,96.0527344 L51.2553711,96.7265625 C52.6928783,97.5426473 53.6961235,98.3137985 54.2651367,99.0400391 C54.83415,99.7662797 55.1186523,100.638504 55.1186523,101.656738 C55.1186523,103.101732 54.5852104,104.262203 53.5183105,105.138184 C52.4514107,106.014165 51.0382575,106.452148 49.2788086,106.452148 L49.2788086,106.452148 Z M74.5810547,106.036621 L74.5810547,91.1787109 L68.6850586,91.1787109 L68.6850586,89.4155273 L82.8354492,89.4155273 L82.8354492,91.1787109 L76.9394531,91.1787109 L76.9394531,106.036621 L74.5810547,106.036621 Z M105.812988,99.6801758 L102.98291,92.5151367 L100.141602,99.6801758 L105.812988,99.6801758 Z M108.306152,106.036621 L106.498047,101.432129 L99.456543,101.432129 L97.6259766,106.036621 L95.4360352,106.036621 L102.02832,89.4155273 L104.364258,89.4155273 L110.855469,106.036621 L108.306152,106.036621 Z M129.071289,106.036621 L129.071289,99.0961914 L123.523438,89.4155273 L126.21875,89.4155273 L130.53125,96.9174805 L135.180664,89.4155273 L137.370605,89.4155273 L131.429688,99.0512695 L131.429688,106.036621 L129.071289,106.036621 Z M152.026367,106.036621 L152.026367,89.4155273 L161.313965,89.4155273 L161.313965,91.1787109 L154.384766,91.1787109 L154.384766,96.7490234 L160.202148,96.7490234 L160.202148,98.4897461 L154.384766,98.4897461 L154.384766,106.036621 L152.026367,106.036621 Z M176.441406,89.4155273 L178.799805,89.4155273 L178.799805,99.9047852 C178.799805,101.57439 179.108639,102.78914 179.726318,103.549072 C180.343997,104.309004 181.326653,104.688965 182.674316,104.688965 C183.992031,104.688965 184.926023,104.331465 185.476318,103.616455 C186.026614,102.901445 186.301758,101.690438 186.301758,99.9833984 L186.301758,89.4155273 L188.368164,89.4155273 L188.368164,99.949707 C188.368164,102.218273 187.902104,103.869135 186.969971,104.902344 C186.037837,105.935552 184.553558,106.452148 182.51709,106.452148 C180.443186,106.452148 178.912114,105.916835 177.923828,104.846191 C176.935542,103.775548 176.441406,102.120942 176.441406,99.8823242 L176.441406,89.4155273 Z M204.730957,106.036621 L204.730957,89.4155273 L207.089355,89.4155273 L207.089355,104.273438 L214.568848,104.273438 L214.568848,106.036621 L204.730957,106.036621 Z" id="STAYFUL-Copy-2" sketch:type="MSShapeGroup"></path>
            </g>
        </g>
    </g>
</svg>