<?xml version="1.0" encoding="UTF-8" standalone="no"?>
<svg width="130px" height="83px" viewBox="0 0 130 83" version="1.1" xmlns="http://www.w3.org/2000/svg" xmlns:xlink="http://www.w3.org/1999/xlink" xmlns:sketch="http://www.bohemiancoding.com/sketch/ns">
    <!-- Generator: Sketch 3.3.2 (12043) - http://www.bohemiancoding.com/sketch -->
    <title>Imported Layers Copy 2</title>
    <desc>Created with Sketch.</desc>
    <defs></defs>
    <g id="Page-1" stroke="none" stroke-width="1" fill="none" fill-rule="evenodd" sketch:type="MSPage">
        <g id="Desktop" sketch:type="MSArtboardGroup" transform="translate(-834.000000, -428.000000)" fill="#0A0B09">
            <g id="Rectangle-2-+-L-(100)-Copy-2" sketch:type="MSLayerGroup" transform="translate(700.000000, 319.000000)">
                <g id="Imported-Layers-Copy-2" transform="translate(134.000000, 109.000000)" sketch:type="MSShapeGroup">
                    <path d="M10.0397414,4.76974138 L10.0397414,36.9451724 L5.14344828,36.9451724 L5.14344828,4.76974138 L0.452327586,4.76974138 L0.452327586,0.33362069 L14.7308621,0.33362069 L14.7308621,4.76974138 L10.0397414,4.76974138" id="Fill-1"></path>
                    <path d="M32.5251724,36.9451724 L32.5251724,20.3218103 L26.5092241,20.3218103 L26.5092241,36.9451724 L21.6143966,36.9451724 L21.6143966,0.33362069 L26.5092241,0.33362069 L26.5092241,15.8856897 L32.5251724,15.8856897 L32.5251724,0.33362069 L37.4214655,0.33362069 L37.4214655,36.9451724 L32.5251724,36.9451724" id="Fill-2"></path>
                    <path d="M46.0885345,0.33362069 L55.6759483,0.33362069 C59.4159483,0.33362069 61.2844828,2.42344828 61.2844828,6.60456897 L61.2844828,15.6306897 C61.2844828,18.8269828 60.3143103,20.8493966 58.3783621,21.697931 L61.7959483,36.9451724 L57.1546552,36.9451724 L53.9407759,22.1566379 L50.9848276,22.1566379 L50.9848276,36.9451724 L46.0885345,36.9451724 L46.0885345,0.33362069 L46.0885345,0.33362069 Z M50.9848276,17.9755172 L54.1957759,17.9755172 C55.6583621,17.9755172 56.3896552,17.0932759 56.3896552,15.3243966 L56.3896552,7.41939655 C56.3896552,5.65344828 55.6583621,4.76974138 54.1957759,4.76974138 L50.9848276,4.76974138 L50.9848276,17.9755172 L50.9848276,17.9755172 Z" id="Fill-3"></path>
                    <path d="M69.4430172,36.9451724 L69.4430172,0.33362069 L81.580431,0.33362069 L81.580431,4.76974138 L74.3393103,4.76974138 L74.3393103,15.8856897 L80.7626724,15.8856897 L80.7626724,20.3218103 L74.3393103,20.3218103 L74.3393103,32.5090517 L81.580431,32.5090517 L81.580431,36.9451724 L69.4430172,36.9451724" id="Fill-4"></path>
                    <path d="M93.8160345,36.9451724 L88.9212069,36.9451724 L88.9212069,6.60456897 C88.9212069,2.42344828 90.8747414,0.33362069 94.7847414,0.33362069 L98.4558621,0.33362069 C102.365862,0.33362069 104.320862,2.42344828 104.320862,6.60456897 L104.320862,36.9451724 L99.424569,36.9451724 L99.424569,23.5342241 L93.8160345,23.5342241 L93.8160345,36.9451724 L93.8160345,36.9451724 Z M99.424569,19.0981034 L99.424569,6.91086207 C99.424569,5.48344828 98.7123276,4.76974138 97.2819828,4.76974138 L95.9586207,4.76974138 C94.5297414,4.76974138 93.8160345,5.48344828 93.8160345,6.91086207 L93.8160345,19.0981034 L99.424569,19.0981034 L99.424569,19.0981034 Z" id="Fill-5"></path>
                    <path d="M112.732931,36.9451724 L112.732931,0.33362069 L121.249052,0.33362069 C125.837586,0.33362069 128.134052,2.67844828 128.134052,7.36956897 L128.134052,31.6414655 C128.134052,35.1777586 126.177586,36.9451724 122.269052,36.9451724 L112.732931,36.9451724 L112.732931,36.9451724 Z M117.629224,32.5090517 L121.300345,32.5090517 C122.592931,32.5090517 123.237759,31.9653448 123.237759,30.8764655 L123.237759,7.41939655 C123.237759,5.65344828 122.506466,4.76974138 121.043879,4.76974138 L117.629224,4.76974138 L117.629224,32.5090517 L117.629224,32.5090517 Z" id="Fill-6"></path>
                    <path d="M17.4332759,74.270431 L17.4332759,76.6167241 C17.4332759,80.7656034 15.4768103,82.8363793 11.5682759,82.8363793 L8.40715517,82.8363793 C4.49715517,82.8363793 2.54215517,80.7656034 2.54215517,76.6167241 L2.54215517,52.4459483 C2.54215517,48.3 4.49715517,46.2262931 8.40715517,46.2262931 L11.5682759,46.2262931 C15.4768103,46.2262931 17.4332759,48.3 17.4332759,52.4459483 L17.4332759,56.5772414 L12.5369828,56.5772414 L12.5369828,52.8035345 C12.5369828,51.3761207 11.8056897,50.6624138 10.3431034,50.6624138 L9.37586207,50.6624138 C8.08327586,50.6624138 7.43698276,51.3761207 7.43698276,52.8035345 L7.43698276,76.2606034 C7.43698276,77.6865517 8.08327586,78.4017241 9.37586207,78.4017241 L10.599569,78.4017241 C11.8906897,78.4017241 12.5369828,77.6865517 12.5369828,76.2606034 L12.5369828,74.270431 L17.4332759,74.270431" id="Fill-7"></path>
                    <path d="M28.1901724,82.8363793 C24.247931,82.8363793 22.2753448,80.7656034 22.2753448,76.6167241 L22.2753448,52.4972414 C22.2753448,48.3161207 24.2318103,46.2262931 28.1403448,46.2262931 L32.8314655,46.2262931 C36.74,46.2262931 38.695,48.3161207 38.695,52.4972414 L38.695,76.6167241 C38.695,80.7656034 36.7238793,82.8363793 32.7816379,82.8363793 L28.1901724,82.8363793 L28.1901724,82.8363793 Z M29.3640517,78.4017241 L31.8627586,78.4017241 C33.1538793,78.4017241 33.8016379,77.6865517 33.8016379,76.2606034 L33.8016379,52.8035345 C33.8016379,51.3761207 33.0703448,50.6624138 31.6077586,50.6624138 L29.3142241,50.6624138 C27.8853448,50.6624138 27.1716379,51.3761207 27.1716379,52.8035345 L27.1716379,76.2606034 C27.1716379,77.6865517 27.902931,78.4017241 29.3640517,78.4017241 L29.3640517,78.4017241 Z" id="Fill-8"></path>
                    <path d="M60.2146552,46.2262931 L60.2146552,75.9044828 C60.2146552,80.5252586 58.242069,82.8363793 54.2983621,82.8363793 L50.1685345,82.8363793 C46.2585345,82.8363793 44.305,80.5106034 44.305,75.8502586 L44.305,46.2262931 L49.1998276,46.2262931 L49.1998276,76.0041379 C49.1998276,77.6030172 49.9135345,78.4017241 51.3409483,78.4017241 L53.3311207,78.4017241 C54.6559483,78.4017241 55.3183621,77.6030172 55.3183621,76.0041379 L55.3183621,46.2262931 L60.2146552,46.2262931" id="Fill-9"></path>
                    <path d="M76.2239655,63.9194828 L76.2239655,46.2262931 L81.1202586,46.2262931 L81.1202586,82.8363793 L76.2239655,82.8363793 L76.2239655,75.545431 L70.9730172,58.8707759 L70.9730172,82.8363793 L66.0781897,82.8363793 L66.0781897,46.2262931 L70.9730172,46.2262931 L76.2239655,63.9194828" id="Fill-10"></path>
                    <path d="M101.618448,74.270431 L101.618448,76.6167241 C101.618448,80.7656034 99.6634483,82.8363793 95.7549138,82.8363793 L92.5923276,82.8363793 C88.6837931,82.8363793 86.7287931,80.7656034 86.7287931,76.6167241 L86.7287931,52.4459483 C86.7287931,48.3 88.6837931,46.2262931 92.5923276,46.2262931 L95.7549138,46.2262931 C99.6634483,46.2262931 101.618448,48.3 101.618448,52.4459483 L101.618448,56.5772414 L96.7236207,56.5772414 L96.7236207,52.8035345 C96.7236207,51.3761207 95.9923276,50.6624138 94.5297414,50.6624138 L93.5610345,50.6624138 C92.2699138,50.6624138 91.6236207,51.3761207 91.6236207,52.8035345 L91.6236207,76.2606034 C91.6236207,77.6865517 92.2699138,78.4017241 93.5610345,78.4017241 L94.7847414,78.4017241 C96.0787931,78.4017241 96.7236207,77.6865517 96.7236207,76.2606034 L96.7236207,74.270431 L101.618448,74.270431" id="Fill-11"></path>
                    <path d="M106.718448,46.2262931 L111.613276,46.2262931 L111.613276,82.8363793 L106.718448,82.8363793 L106.718448,46.2262931 Z" id="Fill-12"></path>
                    <path d="M129.102759,82.8363793 L117.475345,82.8363793 L117.475345,46.2262931 L122.371638,46.2262931 L122.371638,78.4017241 L129.102759,78.4017241 L129.102759,82.8363793" id="Fill-13"></path>
                </g>
            </g>
        </g>
    </g>
</svg>