<?xml version="1.0" encoding="UTF-8" standalone="no"?>
<svg width="124px" height="124px" viewBox="0 0 124 124" version="1.1" xmlns="http://www.w3.org/2000/svg" xmlns:xlink="http://www.w3.org/1999/xlink" xmlns:sketch="http://www.bohemiancoding.com/sketch/ns">
    <!-- Generator: Sketch 3.3.2 (12043) - http://www.bohemiancoding.com/sketch -->
    <title>worldly</title>
    <desc>Created with Sketch.</desc>
    <defs></defs>
    <g id="Page-1" stroke="none" stroke-width="1" fill="none" fill-rule="evenodd" sketch:type="MSPage">
        <g id="worldly" sketch:type="MSLayerGroup" transform="translate(2.000000, 2.000000)">
            <g id="Page-1" sketch:type="MSShapeGroup">
                <g id="Desktop">
                    <g id="Rectangle-2-+-L-(100)">
                        <g id="L-(100)">
                            <circle id="Oval-3" stroke="#ECD200" stroke-width="4" cx="60" cy="60" r="60"></circle>
                            <path d="M41.22,81.6 L52.98,81.6 L58.86,57.6 L58.98,57.6 L64.86,81.6 L76.62,81.6 L85.38,47.7 C85.68,46.68 86.76,45.9 87.66,45.9 L88.38,45.9 L88.38,39.6 L72.12,39.6 L72.12,45.9 L73.8,45.9 C76.26,45.9 76.68,47.28 75.96,50.16 L71.58,68.16 L71.46,68.16 L64.5,39.6 L56.22,39.6 L49.2,68.16 L49.08,68.16 L44.04,45.9 L48.54,45.9 L48.54,39.6 L30,39.6 L30,45.9 L30.9,45.9 C31.68,45.9 32.58,46.56 32.76,47.34 L41.22,81.6 L41.22,81.6 Z" id="W-3" fill="#000000"></path>
                        </g>
                    </g>
                </g>
            </g>
        </g>
    </g>
</svg>