<svg width="198" height="185" viewBox="0 0 198 185" xmlns="http://www.w3.org/2000/svg"><title>New logo</title><g fill="none" fill-rule="evenodd"><path d="M85.47 145.392l-34.137-38.186-4.234 77H0L10.584 26.477c.265-1.852 1.323-1.587 2.38-.264l86.262 65.194 84.937-65.194c1.058-1.323 2.117-1.588 2.38.264l10.585 157.727h-47.363l-4.234-76.735-29.35 34.012-14.724-33.236-15.987 37.146zm7.65 8.558l5.047 5.647c.794.794 1.588.794 2.382 0l4.872-5.647H93.12z" fill="#291254"/><path d="M140.36 184.494h49.744L102.786 1.39c-.794-1.853-2.382-1.853-3.175 0L12.028 184.493H140.36zm-18.655-30.544h-39.92l19.67-45.704 20.25 45.704z" fill="#6441A5"/></g></svg>